<?xml version="1.0" encoding="UTF-8" standalone="no"?>
<!DOCTYPE svg PUBLIC "-//W3C//DTD SVG 1.1//EN"
 "http://www.w3.org/Graphics/SVG/1.1/DTD/svg11.dtd">
<!-- Generated by graphviz version 2.38.0 (20140413.2041)
 -->
<!-- Title: List Pages: 1 -->
<svg width="184pt" height="404pt"
 viewBox="0.00 0.00 183.50 404.00" xmlns="http://www.w3.org/2000/svg" xmlns:xlink="http://www.w3.org/1999/xlink">
<g id="graph0" class="graph" transform="scale(1 1) rotate(0) translate(4 400)">
<title>List</title>
<polygon fill="white" stroke="none" points="-4,4 -4,-400 179.5,-400 179.5,4 -4,4"/>
<!-- Head -->
<g id="node1" class="node"><title>Head</title>
<polygon fill="none" stroke="black" points="80.5,-396 26.5,-396 26.5,-360 80.5,-360 80.5,-396"/>
<text text-anchor="middle" x="53.5" y="-374.3" font-family="Times New Roman,serif" font-size="14.00">Head</text>
</g>
<!-- sixth -->
<g id="node2" class="node"><title>sixth</title>
<polygon fill="none" stroke="black" points="56.5,-324 2.5,-324 2.5,-288 56.5,-288 56.5,-324"/>
<text text-anchor="middle" x="29.5" y="-302.3" font-family="Times New Roman,serif" font-size="14.00">sixth</text>
</g>
<!-- Head&#45;&gt;sixth -->
<g id="edge1" class="edge"><title>Head&#45;&gt;sixth</title>
<path fill="none" stroke="black" d="M44.3224,-350.232C42.49,-344.888 40.5646,-339.272 38.7304,-333.922"/>
<polygon fill="black" stroke="black" points="41.0133,-351.372 47.5674,-359.697 47.6349,-349.102 41.0133,-351.372"/>
<polygon fill="black" stroke="black" points="41.9185,-332.429 35.3643,-324.104 35.2968,-334.699 41.9185,-332.429"/>
</g>
<!-- second -->
<g id="node5" class="node"><title>second</title>
<polygon fill="none" stroke="black" points="57,-252 0,-252 0,-216 57,-216 57,-252"/>
<text text-anchor="middle" x="28.5" y="-230.3" font-family="Times New Roman,serif" font-size="14.00">second</text>
</g>
<!-- sixth&#45;&gt;second -->
<g id="edge3" class="edge"><title>sixth&#45;&gt;second</title>
<path fill="none" stroke="black" d="M29.1095,-277.665C29.0365,-272.552 28.9601,-267.21 28.8872,-262.104"/>
<polygon fill="black" stroke="black" points="25.6102,-277.748 29.2528,-287.697 32.6095,-277.648 25.6102,-277.748"/>
<polygon fill="black" stroke="black" points="32.3869,-262.053 28.7443,-252.104 25.3876,-262.153 32.3869,-262.053"/>
</g>
<!-- 0 -->
<g id="node3" class="node"><title>0</title>
<text text-anchor="middle" x="148.5" y="-374.3" font-family="Times New Roman,serif" font-size="14.00">0</text>
</g>
<!-- 1 -->
<g id="node4" class="node"><title>1</title>
<text text-anchor="middle" x="148.5" y="-302.3" font-family="Times New Roman,serif" font-size="14.00">1</text>
</g>
<!-- 0&#45;&gt;1 -->
<g id="edge2" class="edge"><title>0&#45;&gt;1</title>
<path fill="none" stroke="white" d="M148.5,-349.665C148.5,-344.687 148.5,-339.491 148.5,-334.507"/>
<polygon fill="white" stroke="white" points="145,-349.697 148.5,-359.697 152,-349.697 145,-349.697"/>
<polygon fill="white" stroke="white" points="152,-334.104 148.5,-324.104 145,-334.104 152,-334.104"/>
</g>
<!-- 2 -->
<g id="node6" class="node"><title>2</title>
<text text-anchor="middle" x="148.5" y="-230.3" font-family="Times New Roman,serif" font-size="14.00">2</text>
</g>
<!-- 1&#45;&gt;2 -->
<g id="edge4" class="edge"><title>1&#45;&gt;2</title>
<path fill="none" stroke="white" d="M148.5,-277.665C148.5,-272.687 148.5,-267.491 148.5,-262.507"/>
<polygon fill="white" stroke="white" points="145,-277.697 148.5,-287.697 152,-277.697 145,-277.697"/>
<polygon fill="white" stroke="white" points="152,-262.104 148.5,-252.104 145,-262.104 152,-262.104"/>
</g>
<!-- first -->
<g id="node7" class="node"><title>first</title>
<polygon fill="none" stroke="black" points="55.5,-180 1.5,-180 1.5,-144 55.5,-144 55.5,-180"/>
<text text-anchor="middle" x="28.5" y="-158.3" font-family="Times New Roman,serif" font-size="14.00">first</text>
</g>
<!-- second&#45;&gt;first -->
<g id="edge5" class="edge"><title>second&#45;&gt;first</title>
<path fill="none" stroke="black" d="M28.5,-205.665C28.5,-200.687 28.5,-195.491 28.5,-190.507"/>
<polygon fill="black" stroke="black" points="25.0001,-205.697 28.5,-215.697 32.0001,-205.697 25.0001,-205.697"/>
<polygon fill="black" stroke="black" points="32.0001,-190.104 28.5,-180.104 25.0001,-190.104 32.0001,-190.104"/>
</g>
<!-- 3 -->
<g id="node8" class="node"><title>3</title>
<text text-anchor="middle" x="148.5" y="-158.3" font-family="Times New Roman,serif" font-size="14.00">3</text>
</g>
<!-- 2&#45;&gt;3 -->
<g id="edge6" class="edge"><title>2&#45;&gt;3</title>
<path fill="none" stroke="white" d="M148.5,-205.665C148.5,-200.687 148.5,-195.491 148.5,-190.507"/>
<polygon fill="white" stroke="white" points="145,-205.697 148.5,-215.697 152,-205.697 145,-205.697"/>
<polygon fill="white" stroke="white" points="152,-190.104 148.5,-180.104 145,-190.104 152,-190.104"/>
</g>
<!-- fifth -->
<g id="node9" class="node"><title>fifth</title>
<polygon fill="none" stroke="black" points="56.5,-108 2.5,-108 2.5,-72 56.5,-72 56.5,-108"/>
<text text-anchor="middle" x="29.5" y="-86.3" font-family="Times New Roman,serif" font-size="14.00">fifth</text>
</g>
<!-- first&#45;&gt;fifth -->
<g id="edge7" class="edge"><title>first&#45;&gt;fifth</title>
<path fill="none" stroke="black" d="M28.8905,-133.665C28.9635,-128.552 29.0399,-123.21 29.1128,-118.104"/>
<polygon fill="black" stroke="black" points="25.3905,-133.648 28.7472,-143.697 32.3898,-133.748 25.3905,-133.648"/>
<polygon fill="black" stroke="black" points="32.6124,-118.153 29.2557,-108.104 25.6131,-118.053 32.6124,-118.153"/>
</g>
<!-- 4 -->
<g id="node10" class="node"><title>4</title>
<text text-anchor="middle" x="148.5" y="-86.3" font-family="Times New Roman,serif" font-size="14.00">4</text>
</g>
<!-- 3&#45;&gt;4 -->
<g id="edge8" class="edge"><title>3&#45;&gt;4</title>
<path fill="none" stroke="white" d="M148.5,-133.665C148.5,-128.687 148.5,-123.491 148.5,-118.507"/>
<polygon fill="white" stroke="white" points="145,-133.697 148.5,-143.697 152,-133.697 145,-133.697"/>
<polygon fill="white" stroke="white" points="152,-118.104 148.5,-108.104 145,-118.104 152,-118.104"/>
</g>
<!-- third -->
<g id="node11" class="node"><title>third</title>
<polygon fill="none" stroke="black" points="75.5,-36 21.5,-36 21.5,-0 75.5,-0 75.5,-36"/>
<text text-anchor="middle" x="48.5" y="-14.3" font-family="Times New Roman,serif" font-size="14.00">third</text>
</g>
<!-- fifth&#45;&gt;third -->
<g id="edge9" class="edge"><title>fifth&#45;&gt;third</title>
<path fill="none" stroke="black" d="M36.8425,-61.9488C38.28,-56.6525 39.7872,-51.0999 41.2226,-45.8115"/>
<polygon fill="black" stroke="black" points="33.4384,-61.129 34.1966,-71.6966 40.194,-62.9627 33.4384,-61.129"/>
<polygon fill="black" stroke="black" points="44.6156,-46.672 43.8574,-36.1043 37.86,-44.8383 44.6156,-46.672"/>
</g>
<!-- 5 -->
<g id="node12" class="node"><title>5</title>
<text text-anchor="middle" x="148.5" y="-14.3" font-family="Times New Roman,serif" font-size="14.00">5</text>
</g>
<!-- 4&#45;&gt;5 -->
<g id="edge10" class="edge"><title>4&#45;&gt;5</title>
<path fill="none" stroke="white" d="M148.5,-61.6651C148.5,-56.6867 148.5,-51.4906 148.5,-46.5072"/>
<polygon fill="white" stroke="white" points="145,-61.6966 148.5,-71.6966 152,-61.6967 145,-61.6966"/>
<polygon fill="white" stroke="white" points="152,-46.1043 148.5,-36.1043 145,-46.1044 152,-46.1043"/>
</g>
<!-- third&#45;&gt;Head -->
<g id="edge11" class="edge"><title>third&#45;&gt;Head</title>
<path fill="none" stroke="black" d="M59.7834,-45.6341C70.6661,-73.7744 85.5,-119.705 85.5,-161 85.5,-235 85.5,-235 85.5,-235 85.5,-275.963 72.6707,-321.982 63.2586,-350.232"/>
<polygon fill="black" stroke="black" points="62.9421,-44.1059 55.9875,-36.1131 56.4398,-46.6983 62.9421,-44.1059"/>
<polygon fill="black" stroke="black" points="59.9128,-349.199 59.9757,-359.793 66.5334,-351.472 59.9128,-349.199"/>
</g>
</g>
</svg>
