<?xml version="1.0" encoding="UTF-8" standalone="no"?>
<!DOCTYPE svg PUBLIC "-//W3C//DTD SVG 1.1//EN"
 "http://www.w3.org/Graphics/SVG/1.1/DTD/svg11.dtd">
<!-- Generated by graphviz version 2.38.0 (20140413.2041)
 -->
<!-- Title: Tree Pages: 1 -->
<svg width="644pt" height="712pt"
 viewBox="0.00 0.00 643.50 712.00" xmlns="http://www.w3.org/2000/svg" xmlns:xlink="http://www.w3.org/1999/xlink">
<g id="graph0" class="graph" transform="scale(1 1) rotate(0) translate(4 708)">
<title>Tree</title>
<polygon fill="white" stroke="none" points="-4,4 -4,-708 639.5,-708 639.5,4 -4,4"/>
<!-- ;
[1695B20] -->
<g id="node1" class="node"><title>;
[1695B20]</title>
<polygon fill="none" stroke="black" points="121.5,-704 46.5,-704 46.5,-666 121.5,-666 121.5,-704"/>
<text text-anchor="middle" x="84" y="-688.8" font-family="Times,serif" font-size="14.00">;</text>
<text text-anchor="middle" x="84" y="-673.8" font-family="Times,serif" font-size="14.00">[1695B20]</text>
</g>
<!-- ;
[16954A0] -->
<g id="node2" class="node"><title>;
[16954A0]</title>
<polygon fill="none" stroke="black" points="122,-630 46,-630 46,-592 122,-592 122,-630"/>
<text text-anchor="middle" x="84" y="-614.8" font-family="Times,serif" font-size="14.00">;</text>
<text text-anchor="middle" x="84" y="-599.8" font-family="Times,serif" font-size="14.00">[16954A0]</text>
</g>
<!-- ;
[1695B20]&#45;&gt;;
[16954A0] -->
<g id="edge1" class="edge"><title>;
[1695B20]&#45;&gt;;
[16954A0]</title>
<path fill="none" stroke="black" d="M84,-665.831C84,-658.131 84,-648.974 84,-640.417"/>
<polygon fill="black" stroke="black" points="87.5001,-640.413 84,-630.413 80.5001,-640.413 87.5001,-640.413"/>
</g>
<!-- in
[1695420] -->
<g id="node3" class="node"><title>in
[1695420]</title>
<polygon fill="none" stroke="black" points="75.5,-556 2.5,-556 2.5,-518 75.5,-518 75.5,-556"/>
<text text-anchor="middle" x="39" y="-540.8" font-family="Times,serif" font-size="14.00">in</text>
<text text-anchor="middle" x="39" y="-525.8" font-family="Times,serif" font-size="14.00">[1695420]</text>
</g>
<!-- ;
[16954A0]&#45;&gt;in
[1695420] -->
<g id="edge2" class="edge"><title>;
[16954A0]&#45;&gt;in
[1695420]</title>
<path fill="none" stroke="black" d="M72.6446,-591.831C67.5674,-583.708 61.4773,-573.964 55.8824,-565.012"/>
<polygon fill="black" stroke="black" points="58.7763,-563.038 50.5083,-556.413 52.8403,-566.748 58.7763,-563.038"/>
</g>
<!-- ;
[1695620] -->
<g id="node5" class="node"><title>;
[1695620]</title>
<polygon fill="none" stroke="black" points="166.5,-556 93.5,-556 93.5,-518 166.5,-518 166.5,-556"/>
<text text-anchor="middle" x="130" y="-540.8" font-family="Times,serif" font-size="14.00">;</text>
<text text-anchor="middle" x="130" y="-525.8" font-family="Times,serif" font-size="14.00">[1695620]</text>
</g>
<!-- ;
[16954A0]&#45;&gt;;
[1695620] -->
<g id="edge4" class="edge"><title>;
[16954A0]&#45;&gt;;
[1695620]</title>
<path fill="none" stroke="black" d="M95.6077,-591.831C100.798,-583.708 107.023,-573.964 112.742,-565.012"/>
<polygon fill="black" stroke="black" points="115.801,-566.725 118.236,-556.413 109.903,-562.956 115.801,-566.725"/>
</g>
<!-- a
[1695460] -->
<g id="node4" class="node"><title>a
[1695460]</title>
<polygon fill="none" stroke="black" points="75.5,-482 2.5,-482 2.5,-444 75.5,-444 75.5,-482"/>
<text text-anchor="middle" x="39" y="-466.8" font-family="Times,serif" font-size="14.00">a</text>
<text text-anchor="middle" x="39" y="-451.8" font-family="Times,serif" font-size="14.00">[1695460]</text>
</g>
<!-- in
[1695420]&#45;&gt;a
[1695460] -->
<g id="edge3" class="edge"><title>in
[1695420]&#45;&gt;a
[1695460]</title>
<path fill="none" stroke="black" d="M39,-517.831C39,-510.131 39,-500.974 39,-492.417"/>
<polygon fill="black" stroke="black" points="42.5001,-492.413 39,-482.413 35.5001,-492.413 42.5001,-492.413"/>
</g>
<!-- =
[1695520] -->
<g id="node6" class="node"><title>=
[1695520]</title>
<polygon fill="none" stroke="black" points="166.5,-482 93.5,-482 93.5,-444 166.5,-444 166.5,-482"/>
<text text-anchor="middle" x="130" y="-466.8" font-family="Times,serif" font-size="14.00">=</text>
<text text-anchor="middle" x="130" y="-451.8" font-family="Times,serif" font-size="14.00">[1695520]</text>
</g>
<!-- ;
[1695620]&#45;&gt;=
[1695520] -->
<g id="edge5" class="edge"><title>;
[1695620]&#45;&gt;=
[1695520]</title>
<path fill="none" stroke="black" d="M130,-517.831C130,-510.131 130,-500.974 130,-492.417"/>
<polygon fill="black" stroke="black" points="133.5,-492.413 130,-482.413 126.5,-492.413 133.5,-492.413"/>
</g>
<!-- ;
[16958E0] -->
<g id="node11" class="node"><title>;
[16958E0]</title>
<polygon fill="none" stroke="black" points="307,-482 233,-482 233,-444 307,-444 307,-482"/>
<text text-anchor="middle" x="270" y="-466.8" font-family="Times,serif" font-size="14.00">;</text>
<text text-anchor="middle" x="270" y="-451.8" font-family="Times,serif" font-size="14.00">[16958E0]</text>
</g>
<!-- ;
[1695620]&#45;&gt;;
[16958E0] -->
<g id="edge10" class="edge"><title>;
[1695620]&#45;&gt;;
[16958E0]</title>
<path fill="none" stroke="black" d="M165.328,-517.831C183.649,-508.409 206.21,-496.806 225.689,-486.788"/>
<polygon fill="black" stroke="black" points="227.391,-489.849 234.683,-482.163 224.19,-483.624 227.391,-489.849"/>
</g>
<!-- b
[16954E0] -->
<g id="node7" class="node"><title>b
[16954E0]</title>
<polygon fill="none" stroke="black" points="74,-408 0,-408 0,-370 74,-370 74,-408"/>
<text text-anchor="middle" x="37" y="-392.8" font-family="Times,serif" font-size="14.00">b</text>
<text text-anchor="middle" x="37" y="-377.8" font-family="Times,serif" font-size="14.00">[16954E0]</text>
</g>
<!-- =
[1695520]&#45;&gt;b
[16954E0] -->
<g id="edge6" class="edge"><title>=
[1695520]&#45;&gt;b
[16954E0]</title>
<path fill="none" stroke="black" d="M106.532,-443.831C94.9673,-434.878 80.8596,-423.956 68.3817,-414.295"/>
<polygon fill="black" stroke="black" points="70.5102,-411.517 60.4603,-408.163 66.225,-417.052 70.5102,-411.517"/>
</g>
<!-- +
[16955A0] -->
<g id="node8" class="node"><title>+
[16955A0]</title>
<polygon fill="none" stroke="black" points="168,-408 92,-408 92,-370 168,-370 168,-408"/>
<text text-anchor="middle" x="130" y="-392.8" font-family="Times,serif" font-size="14.00">+</text>
<text text-anchor="middle" x="130" y="-377.8" font-family="Times,serif" font-size="14.00">[16955A0]</text>
</g>
<!-- =
[1695520]&#45;&gt;+
[16955A0] -->
<g id="edge7" class="edge"><title>=
[1695520]&#45;&gt;+
[16955A0]</title>
<path fill="none" stroke="black" d="M130,-443.831C130,-436.131 130,-426.974 130,-418.417"/>
<polygon fill="black" stroke="black" points="133.5,-418.413 130,-408.413 126.5,-418.413 133.5,-418.413"/>
</g>
<!-- a
[1695560] -->
<g id="node9" class="node"><title>a
[1695560]</title>
<polygon fill="none" stroke="black" points="74.5,-334 1.5,-334 1.5,-296 74.5,-296 74.5,-334"/>
<text text-anchor="middle" x="38" y="-318.8" font-family="Times,serif" font-size="14.00">a</text>
<text text-anchor="middle" x="38" y="-303.8" font-family="Times,serif" font-size="14.00">[1695560]</text>
</g>
<!-- +
[16955A0]&#45;&gt;a
[1695560] -->
<g id="edge8" class="edge"><title>+
[16955A0]&#45;&gt;a
[1695560]</title>
<path fill="none" stroke="black" d="M106.785,-369.831C95.453,-360.963 81.6536,-350.164 69.3973,-340.572"/>
<polygon fill="black" stroke="black" points="71.2402,-337.57 61.2081,-334.163 66.926,-343.082 71.2402,-337.57"/>
</g>
<!-- 4
[16955E0] -->
<g id="node10" class="node"><title>4
[16955E0]</title>
<polygon fill="none" stroke="black" points="167,-334 93,-334 93,-296 167,-296 167,-334"/>
<text text-anchor="middle" x="130" y="-318.8" font-family="Times,serif" font-size="14.00">4</text>
<text text-anchor="middle" x="130" y="-303.8" font-family="Times,serif" font-size="14.00">[16955E0]</text>
</g>
<!-- +
[16955A0]&#45;&gt;4
[16955E0] -->
<g id="edge9" class="edge"><title>+
[16955A0]&#45;&gt;4
[16955E0]</title>
<path fill="none" stroke="black" d="M130,-369.831C130,-362.131 130,-352.974 130,-344.417"/>
<polygon fill="black" stroke="black" points="133.5,-344.413 130,-334.413 126.5,-344.413 133.5,-344.413"/>
</g>
<!-- foo
[1695660] -->
<g id="node12" class="node"><title>foo
[1695660]</title>
<polygon fill="none" stroke="black" points="306.5,-408 233.5,-408 233.5,-370 306.5,-370 306.5,-408"/>
<text text-anchor="middle" x="270" y="-392.8" font-family="Times,serif" font-size="14.00">foo</text>
<text text-anchor="middle" x="270" y="-377.8" font-family="Times,serif" font-size="14.00">[1695660]</text>
</g>
<!-- ;
[16958E0]&#45;&gt;foo
[1695660] -->
<g id="edge11" class="edge"><title>;
[16958E0]&#45;&gt;foo
[1695660]</title>
<path fill="none" stroke="black" d="M270,-443.831C270,-436.131 270,-426.974 270,-418.417"/>
<polygon fill="black" stroke="black" points="273.5,-418.413 270,-408.413 266.5,-418.413 273.5,-418.413"/>
</g>
<!-- ;
[1695A20] -->
<g id="node22" class="node"><title>;
[1695A20]</title>
<polygon fill="none" stroke="black" points="494,-408 418,-408 418,-370 494,-370 494,-408"/>
<text text-anchor="middle" x="456" y="-392.8" font-family="Times,serif" font-size="14.00">;</text>
<text text-anchor="middle" x="456" y="-377.8" font-family="Times,serif" font-size="14.00">[1695A20]</text>
</g>
<!-- ;
[16958E0]&#45;&gt;;
[1695A20] -->
<g id="edge21" class="edge"><title>;
[16958E0]&#45;&gt;;
[1695A20]</title>
<path fill="none" stroke="black" d="M307.193,-447.603C336.304,-436.334 376.992,-420.584 408.465,-408.401"/>
<polygon fill="black" stroke="black" points="409.852,-411.617 417.914,-404.743 407.325,-405.089 409.852,-411.617"/>
</g>
<!-- output(
[16956A0] -->
<g id="node13" class="node"><title>output(
[16956A0]</title>
<polygon fill="none" stroke="black" points="261,-334 185,-334 185,-296 261,-296 261,-334"/>
<text text-anchor="middle" x="223" y="-318.8" font-family="Times,serif" font-size="14.00">output(</text>
<text text-anchor="middle" x="223" y="-303.8" font-family="Times,serif" font-size="14.00">[16956A0]</text>
</g>
<!-- foo
[1695660]&#45;&gt;output(
[16956A0] -->
<g id="edge12" class="edge"><title>foo
[1695660]&#45;&gt;output(
[16956A0]</title>
<path fill="none" stroke="black" d="M258.14,-369.831C252.837,-361.708 246.476,-351.964 240.633,-343.012"/>
<polygon fill="black" stroke="black" points="243.417,-340.874 235.02,-334.413 237.555,-344.7 243.417,-340.874"/>
</g>
<!-- ;
[16958A0] -->
<g id="node15" class="node"><title>;
[16958A0]</title>
<polygon fill="none" stroke="black" points="355,-334 279,-334 279,-296 355,-296 355,-334"/>
<text text-anchor="middle" x="317" y="-318.8" font-family="Times,serif" font-size="14.00">;</text>
<text text-anchor="middle" x="317" y="-303.8" font-family="Times,serif" font-size="14.00">[16958A0]</text>
</g>
<!-- foo
[1695660]&#45;&gt;;
[16958A0] -->
<g id="edge14" class="edge"><title>foo
[1695660]&#45;&gt;;
[16958A0]</title>
<path fill="none" stroke="black" d="M281.86,-369.831C287.163,-361.708 293.524,-351.964 299.367,-343.012"/>
<polygon fill="black" stroke="black" points="302.445,-344.7 304.98,-334.413 296.583,-340.874 302.445,-344.7"/>
</g>
<!-- a
[16956E0] -->
<g id="node14" class="node"><title>a
[16956E0]</title>
<polygon fill="none" stroke="black" points="260,-260 186,-260 186,-222 260,-222 260,-260"/>
<text text-anchor="middle" x="223" y="-244.8" font-family="Times,serif" font-size="14.00">a</text>
<text text-anchor="middle" x="223" y="-229.8" font-family="Times,serif" font-size="14.00">[16956E0]</text>
</g>
<!-- output(
[16956A0]&#45;&gt;a
[16956E0] -->
<g id="edge13" class="edge"><title>output(
[16956A0]&#45;&gt;a
[16956E0]</title>
<path fill="none" stroke="black" d="M223,-295.831C223,-288.131 223,-278.974 223,-270.417"/>
<polygon fill="black" stroke="black" points="226.5,-270.413 223,-260.413 219.5,-270.413 226.5,-270.413"/>
</g>
<!-- ;
[16957A0] -->
<g id="node16" class="node"><title>;
[16957A0]</title>
<polygon fill="none" stroke="black" points="354,-260 278,-260 278,-222 354,-222 354,-260"/>
<text text-anchor="middle" x="316" y="-244.8" font-family="Times,serif" font-size="14.00">;</text>
<text text-anchor="middle" x="316" y="-229.8" font-family="Times,serif" font-size="14.00">[16957A0]</text>
</g>
<!-- ;
[16958A0]&#45;&gt;;
[16957A0] -->
<g id="edge15" class="edge"><title>;
[16958A0]&#45;&gt;;
[16957A0]</title>
<path fill="none" stroke="black" d="M316.748,-295.831C316.641,-288.131 316.514,-278.974 316.395,-270.417"/>
<polygon fill="black" stroke="black" points="319.894,-270.364 316.256,-260.413 312.895,-270.461 319.894,-270.364"/>
</g>
<!-- out
[1695720] -->
<g id="node17" class="node"><title>out
[1695720]</title>
<polygon fill="none" stroke="black" points="306.5,-186 233.5,-186 233.5,-148 306.5,-148 306.5,-186"/>
<text text-anchor="middle" x="270" y="-170.8" font-family="Times,serif" font-size="14.00">out</text>
<text text-anchor="middle" x="270" y="-155.8" font-family="Times,serif" font-size="14.00">[1695720]</text>
</g>
<!-- ;
[16957A0]&#45;&gt;out
[1695720] -->
<g id="edge16" class="edge"><title>;
[16957A0]&#45;&gt;out
[1695720]</title>
<path fill="none" stroke="black" d="M304.392,-221.831C299.202,-213.708 292.977,-203.964 287.258,-195.012"/>
<polygon fill="black" stroke="black" points="290.097,-192.956 281.764,-186.413 284.199,-196.725 290.097,-192.956"/>
</g>
<!-- ;
[1695860] -->
<g id="node19" class="node"><title>;
[1695860]</title>
<polygon fill="none" stroke="black" points="397.5,-186 324.5,-186 324.5,-148 397.5,-148 397.5,-186"/>
<text text-anchor="middle" x="361" y="-170.8" font-family="Times,serif" font-size="14.00">;</text>
<text text-anchor="middle" x="361" y="-155.8" font-family="Times,serif" font-size="14.00">[1695860]</text>
</g>
<!-- ;
[16957A0]&#45;&gt;;
[1695860] -->
<g id="edge18" class="edge"><title>;
[16957A0]&#45;&gt;;
[1695860]</title>
<path fill="none" stroke="black" d="M327.355,-221.831C332.433,-213.708 338.523,-203.964 344.118,-195.012"/>
<polygon fill="black" stroke="black" points="347.16,-196.748 349.492,-186.413 341.224,-193.038 347.16,-196.748"/>
</g>
<!-- a
[1695760] -->
<g id="node18" class="node"><title>a
[1695760]</title>
<polygon fill="none" stroke="black" points="306.5,-112 233.5,-112 233.5,-74 306.5,-74 306.5,-112"/>
<text text-anchor="middle" x="270" y="-96.8" font-family="Times,serif" font-size="14.00">a</text>
<text text-anchor="middle" x="270" y="-81.8" font-family="Times,serif" font-size="14.00">[1695760]</text>
</g>
<!-- out
[1695720]&#45;&gt;a
[1695760] -->
<g id="edge17" class="edge"><title>out
[1695720]&#45;&gt;a
[1695760]</title>
<path fill="none" stroke="black" d="M270,-147.831C270,-140.131 270,-130.974 270,-122.417"/>
<polygon fill="black" stroke="black" points="273.5,-122.413 270,-112.413 266.5,-122.413 273.5,-122.413"/>
</g>
<!-- ret
[16957E0] -->
<g id="node20" class="node"><title>ret
[16957E0]</title>
<polygon fill="none" stroke="black" points="399,-112 325,-112 325,-74 399,-74 399,-112"/>
<text text-anchor="middle" x="362" y="-96.8" font-family="Times,serif" font-size="14.00">ret</text>
<text text-anchor="middle" x="362" y="-81.8" font-family="Times,serif" font-size="14.00">[16957E0]</text>
</g>
<!-- ;
[1695860]&#45;&gt;ret
[16957E0] -->
<g id="edge19" class="edge"><title>;
[1695860]&#45;&gt;ret
[16957E0]</title>
<path fill="none" stroke="black" d="M361.252,-147.831C361.359,-140.131 361.486,-130.974 361.605,-122.417"/>
<polygon fill="black" stroke="black" points="365.105,-122.461 361.744,-112.413 358.106,-122.364 365.105,-122.461"/>
</g>
<!-- a
[1695820] -->
<g id="node21" class="node"><title>a
[1695820]</title>
<polygon fill="none" stroke="black" points="398.5,-38 325.5,-38 325.5,-0 398.5,-0 398.5,-38"/>
<text text-anchor="middle" x="362" y="-22.8" font-family="Times,serif" font-size="14.00">a</text>
<text text-anchor="middle" x="362" y="-7.8" font-family="Times,serif" font-size="14.00">[1695820]</text>
</g>
<!-- ret
[16957E0]&#45;&gt;a
[1695820] -->
<g id="edge20" class="edge"><title>ret
[16957E0]&#45;&gt;a
[1695820]</title>
<path fill="none" stroke="black" d="M362,-73.8314C362,-66.131 362,-56.9743 362,-48.4166"/>
<polygon fill="black" stroke="black" points="365.5,-48.4132 362,-38.4133 358.5,-48.4133 365.5,-48.4132"/>
</g>
<!-- =
[1695960] -->
<g id="node23" class="node"><title>=
[1695960]</title>
<polygon fill="none" stroke="black" points="492.5,-334 419.5,-334 419.5,-296 492.5,-296 492.5,-334"/>
<text text-anchor="middle" x="456" y="-318.8" font-family="Times,serif" font-size="14.00">=</text>
<text text-anchor="middle" x="456" y="-303.8" font-family="Times,serif" font-size="14.00">[1695960]</text>
</g>
<!-- ;
[1695A20]&#45;&gt;=
[1695960] -->
<g id="edge22" class="edge"><title>;
[1695A20]&#45;&gt;=
[1695960]</title>
<path fill="none" stroke="black" d="M456,-369.831C456,-362.131 456,-352.974 456,-344.417"/>
<polygon fill="black" stroke="black" points="459.5,-344.413 456,-334.413 452.5,-344.413 459.5,-344.413"/>
</g>
<!-- ;
[1695AE0] -->
<g id="node27" class="node"><title>;
[1695AE0]</title>
<polygon fill="none" stroke="black" points="587.5,-334 510.5,-334 510.5,-296 587.5,-296 587.5,-334"/>
<text text-anchor="middle" x="549" y="-318.8" font-family="Times,serif" font-size="14.00">;</text>
<text text-anchor="middle" x="549" y="-303.8" font-family="Times,serif" font-size="14.00">[1695AE0]</text>
</g>
<!-- ;
[1695A20]&#45;&gt;;
[1695AE0] -->
<g id="edge26" class="edge"><title>;
[1695A20]&#45;&gt;;
[1695AE0]</title>
<path fill="none" stroke="black" d="M479.468,-369.831C491.033,-360.878 505.14,-349.956 517.618,-340.295"/>
<polygon fill="black" stroke="black" points="519.775,-343.052 525.54,-334.163 515.49,-337.517 519.775,-343.052"/>
</g>
<!-- d
[1695920] -->
<g id="node24" class="node"><title>d
[1695920]</title>
<polygon fill="none" stroke="black" points="445.5,-260 372.5,-260 372.5,-222 445.5,-222 445.5,-260"/>
<text text-anchor="middle" x="409" y="-244.8" font-family="Times,serif" font-size="14.00">d</text>
<text text-anchor="middle" x="409" y="-229.8" font-family="Times,serif" font-size="14.00">[1695920]</text>
</g>
<!-- =
[1695960]&#45;&gt;d
[1695920] -->
<g id="edge23" class="edge"><title>=
[1695960]&#45;&gt;d
[1695920]</title>
<path fill="none" stroke="black" d="M444.14,-295.831C438.837,-287.708 432.476,-277.964 426.633,-269.012"/>
<polygon fill="black" stroke="black" points="429.417,-266.874 421.02,-260.413 423.555,-270.7 429.417,-266.874"/>
</g>
<!-- output(
[16959A0] -->
<g id="node25" class="node"><title>output(
[16959A0]</title>
<polygon fill="none" stroke="black" points="540,-260 464,-260 464,-222 540,-222 540,-260"/>
<text text-anchor="middle" x="502" y="-244.8" font-family="Times,serif" font-size="14.00">output(</text>
<text text-anchor="middle" x="502" y="-229.8" font-family="Times,serif" font-size="14.00">[16959A0]</text>
</g>
<!-- =
[1695960]&#45;&gt;output(
[16959A0] -->
<g id="edge24" class="edge"><title>=
[1695960]&#45;&gt;output(
[16959A0]</title>
<path fill="none" stroke="black" d="M467.608,-295.831C472.798,-287.708 479.023,-277.964 484.742,-269.012"/>
<polygon fill="black" stroke="black" points="487.801,-270.725 490.236,-260.413 481.903,-266.956 487.801,-270.725"/>
</g>
<!-- b
[16959E0] -->
<g id="node26" class="node"><title>b
[16959E0]</title>
<polygon fill="none" stroke="black" points="538,-186 464,-186 464,-148 538,-148 538,-186"/>
<text text-anchor="middle" x="501" y="-170.8" font-family="Times,serif" font-size="14.00">b</text>
<text text-anchor="middle" x="501" y="-155.8" font-family="Times,serif" font-size="14.00">[16959E0]</text>
</g>
<!-- output(
[16959A0]&#45;&gt;b
[16959E0] -->
<g id="edge25" class="edge"><title>output(
[16959A0]&#45;&gt;b
[16959E0]</title>
<path fill="none" stroke="black" d="M501.748,-221.831C501.641,-214.131 501.514,-204.974 501.395,-196.417"/>
<polygon fill="black" stroke="black" points="504.894,-196.364 501.256,-186.413 497.895,-196.461 504.894,-196.364"/>
</g>
<!-- out
[1695A60] -->
<g id="node28" class="node"><title>out
[1695A60]</title>
<polygon fill="none" stroke="black" points="634,-260 558,-260 558,-222 634,-222 634,-260"/>
<text text-anchor="middle" x="596" y="-244.8" font-family="Times,serif" font-size="14.00">out</text>
<text text-anchor="middle" x="596" y="-229.8" font-family="Times,serif" font-size="14.00">[1695A60]</text>
</g>
<!-- ;
[1695AE0]&#45;&gt;out
[1695A60] -->
<g id="edge27" class="edge"><title>;
[1695AE0]&#45;&gt;out
[1695A60]</title>
<path fill="none" stroke="black" d="M560.86,-295.831C566.163,-287.708 572.524,-277.964 578.367,-269.012"/>
<polygon fill="black" stroke="black" points="581.445,-270.7 583.98,-260.413 575.583,-266.874 581.445,-270.7"/>
</g>
<!-- a
[1695AA0] -->
<g id="node29" class="node"><title>a
[1695AA0]</title>
<polygon fill="none" stroke="black" points="635.5,-186 556.5,-186 556.5,-148 635.5,-148 635.5,-186"/>
<text text-anchor="middle" x="596" y="-170.8" font-family="Times,serif" font-size="14.00">a</text>
<text text-anchor="middle" x="596" y="-155.8" font-family="Times,serif" font-size="14.00">[1695AA0]</text>
</g>
<!-- out
[1695A60]&#45;&gt;a
[1695AA0] -->
<g id="edge28" class="edge"><title>out
[1695A60]&#45;&gt;a
[1695AA0]</title>
<path fill="none" stroke="black" d="M596,-221.831C596,-214.131 596,-204.974 596,-196.417"/>
<polygon fill="black" stroke="black" points="599.5,-196.413 596,-186.413 592.5,-196.413 599.5,-196.413"/>
</g>
</g>
</svg>
