<?xml version="1.0" encoding="UTF-8" standalone="no"?>
<!DOCTYPE svg PUBLIC "-//W3C//DTD SVG 1.1//EN"
 "http://www.w3.org/Graphics/SVG/1.1/DTD/svg11.dtd">
<!-- Generated by graphviz version 2.38.0 (20140413.2041)
 -->
<!-- Title: Tree Pages: 1 -->
<svg width="687pt" height="638pt"
 viewBox="0.00 0.00 686.50 638.00" xmlns="http://www.w3.org/2000/svg" xmlns:xlink="http://www.w3.org/1999/xlink">
<g id="graph0" class="graph" transform="scale(1 1) rotate(0) translate(4 634)">
<title>Tree</title>
<polygon fill="white" stroke="none" points="-4,4 -4,-634 682.5,-634 682.5,4 -4,4"/>
<!-- ;
[1695B20] -->
<g id="node1" class="node"><title>;
[1695B20]</title>
<polygon fill="none" stroke="black" points="121.5,-630 46.5,-630 46.5,-592 121.5,-592 121.5,-630"/>
<text text-anchor="middle" x="84" y="-614.8" font-family="Times,serif" font-size="14.00">;</text>
<text text-anchor="middle" x="84" y="-599.8" font-family="Times,serif" font-size="14.00">[1695B20]</text>
</g>
<!-- ;
[16954A0] -->
<g id="node2" class="node"><title>;
[16954A0]</title>
<polygon fill="none" stroke="black" points="122,-556 46,-556 46,-518 122,-518 122,-556"/>
<text text-anchor="middle" x="84" y="-540.8" font-family="Times,serif" font-size="14.00">;</text>
<text text-anchor="middle" x="84" y="-525.8" font-family="Times,serif" font-size="14.00">[16954A0]</text>
</g>
<!-- ;
[1695B20]&#45;&gt;;
[16954A0] -->
<g id="edge1" class="edge"><title>;
[1695B20]&#45;&gt;;
[16954A0]</title>
<path fill="none" stroke="black" d="M84,-591.831C84,-584.131 84,-574.974 84,-566.417"/>
<polygon fill="black" stroke="black" points="87.5001,-566.413 84,-556.413 80.5001,-566.413 87.5001,-566.413"/>
</g>
<!-- in
[1695420] -->
<g id="node3" class="node"><title>in
[1695420]</title>
<polygon fill="none" stroke="black" points="75.5,-482 2.5,-482 2.5,-444 75.5,-444 75.5,-482"/>
<text text-anchor="middle" x="39" y="-466.8" font-family="Times,serif" font-size="14.00">in</text>
<text text-anchor="middle" x="39" y="-451.8" font-family="Times,serif" font-size="14.00">[1695420]</text>
</g>
<!-- ;
[16954A0]&#45;&gt;in
[1695420] -->
<g id="edge2" class="edge"><title>;
[16954A0]&#45;&gt;in
[1695420]</title>
<path fill="none" stroke="black" d="M72.6446,-517.831C67.5674,-509.708 61.4773,-499.964 55.8824,-491.012"/>
<polygon fill="black" stroke="black" points="58.7763,-489.038 50.5083,-482.413 52.8403,-492.748 58.7763,-489.038"/>
</g>
<!-- ;
[1695620] -->
<g id="node5" class="node"><title>;
[1695620]</title>
<polygon fill="none" stroke="black" points="166.5,-482 93.5,-482 93.5,-444 166.5,-444 166.5,-482"/>
<text text-anchor="middle" x="130" y="-466.8" font-family="Times,serif" font-size="14.00">;</text>
<text text-anchor="middle" x="130" y="-451.8" font-family="Times,serif" font-size="14.00">[1695620]</text>
</g>
<!-- ;
[16954A0]&#45;&gt;;
[1695620] -->
<g id="edge4" class="edge"><title>;
[16954A0]&#45;&gt;;
[1695620]</title>
<path fill="none" stroke="black" d="M95.6077,-517.831C100.798,-509.708 107.023,-499.964 112.742,-491.012"/>
<polygon fill="black" stroke="black" points="115.801,-492.725 118.236,-482.413 109.903,-488.956 115.801,-492.725"/>
</g>
<!-- a
[1695460] -->
<g id="node4" class="node"><title>a
[1695460]</title>
<polygon fill="none" stroke="black" points="75.5,-408 2.5,-408 2.5,-370 75.5,-370 75.5,-408"/>
<text text-anchor="middle" x="39" y="-392.8" font-family="Times,serif" font-size="14.00">a</text>
<text text-anchor="middle" x="39" y="-377.8" font-family="Times,serif" font-size="14.00">[1695460]</text>
</g>
<!-- in
[1695420]&#45;&gt;a
[1695460] -->
<g id="edge3" class="edge"><title>in
[1695420]&#45;&gt;a
[1695460]</title>
<path fill="none" stroke="black" d="M39,-443.831C39,-436.131 39,-426.974 39,-418.417"/>
<polygon fill="black" stroke="black" points="42.5001,-418.413 39,-408.413 35.5001,-418.413 42.5001,-418.413"/>
</g>
<!-- =
[1695520] -->
<g id="node6" class="node"><title>=
[1695520]</title>
<polygon fill="none" stroke="black" points="166.5,-408 93.5,-408 93.5,-370 166.5,-370 166.5,-408"/>
<text text-anchor="middle" x="130" y="-392.8" font-family="Times,serif" font-size="14.00">=</text>
<text text-anchor="middle" x="130" y="-377.8" font-family="Times,serif" font-size="14.00">[1695520]</text>
</g>
<!-- ;
[1695620]&#45;&gt;=
[1695520] -->
<g id="edge5" class="edge"><title>;
[1695620]&#45;&gt;=
[1695520]</title>
<path fill="none" stroke="black" d="M130,-443.831C130,-436.131 130,-426.974 130,-418.417"/>
<polygon fill="black" stroke="black" points="133.5,-418.413 130,-408.413 126.5,-418.413 133.5,-418.413"/>
</g>
<!-- ;
[16958E0] -->
<g id="node11" class="node"><title>;
[16958E0]</title>
<polygon fill="none" stroke="black" points="307,-408 233,-408 233,-370 307,-370 307,-408"/>
<text text-anchor="middle" x="270" y="-392.8" font-family="Times,serif" font-size="14.00">;</text>
<text text-anchor="middle" x="270" y="-377.8" font-family="Times,serif" font-size="14.00">[16958E0]</text>
</g>
<!-- ;
[1695620]&#45;&gt;;
[16958E0] -->
<g id="edge10" class="edge"><title>;
[1695620]&#45;&gt;;
[16958E0]</title>
<path fill="none" stroke="black" d="M165.328,-443.831C183.649,-434.409 206.21,-422.806 225.689,-412.788"/>
<polygon fill="black" stroke="black" points="227.391,-415.849 234.683,-408.163 224.19,-409.624 227.391,-415.849"/>
</g>
<!-- b
[16954E0] -->
<g id="node7" class="node"><title>b
[16954E0]</title>
<polygon fill="none" stroke="black" points="74,-334 0,-334 0,-296 74,-296 74,-334"/>
<text text-anchor="middle" x="37" y="-318.8" font-family="Times,serif" font-size="14.00">b</text>
<text text-anchor="middle" x="37" y="-303.8" font-family="Times,serif" font-size="14.00">[16954E0]</text>
</g>
<!-- =
[1695520]&#45;&gt;b
[16954E0] -->
<g id="edge6" class="edge"><title>=
[1695520]&#45;&gt;b
[16954E0]</title>
<path fill="none" stroke="black" d="M106.532,-369.831C94.9673,-360.878 80.8596,-349.956 68.3817,-340.295"/>
<polygon fill="black" stroke="black" points="70.5102,-337.517 60.4603,-334.163 66.225,-343.052 70.5102,-337.517"/>
</g>
<!-- +
[16955A0] -->
<g id="node8" class="node"><title>+
[16955A0]</title>
<polygon fill="none" stroke="black" points="168,-334 92,-334 92,-296 168,-296 168,-334"/>
<text text-anchor="middle" x="130" y="-318.8" font-family="Times,serif" font-size="14.00">+</text>
<text text-anchor="middle" x="130" y="-303.8" font-family="Times,serif" font-size="14.00">[16955A0]</text>
</g>
<!-- =
[1695520]&#45;&gt;+
[16955A0] -->
<g id="edge7" class="edge"><title>=
[1695520]&#45;&gt;+
[16955A0]</title>
<path fill="none" stroke="black" d="M130,-369.831C130,-362.131 130,-352.974 130,-344.417"/>
<polygon fill="black" stroke="black" points="133.5,-344.413 130,-334.413 126.5,-344.413 133.5,-344.413"/>
</g>
<!-- a
[1695560] -->
<g id="node9" class="node"><title>a
[1695560]</title>
<polygon fill="none" stroke="black" points="74.5,-260 1.5,-260 1.5,-222 74.5,-222 74.5,-260"/>
<text text-anchor="middle" x="38" y="-244.8" font-family="Times,serif" font-size="14.00">a</text>
<text text-anchor="middle" x="38" y="-229.8" font-family="Times,serif" font-size="14.00">[1695560]</text>
</g>
<!-- +
[16955A0]&#45;&gt;a
[1695560] -->
<g id="edge8" class="edge"><title>+
[16955A0]&#45;&gt;a
[1695560]</title>
<path fill="none" stroke="black" d="M106.785,-295.831C95.453,-286.963 81.6536,-276.164 69.3973,-266.572"/>
<polygon fill="black" stroke="black" points="71.2402,-263.57 61.2081,-260.163 66.926,-269.082 71.2402,-263.57"/>
</g>
<!-- 4
[16955E0] -->
<g id="node10" class="node"><title>4
[16955E0]</title>
<polygon fill="none" stroke="black" points="167,-260 93,-260 93,-222 167,-222 167,-260"/>
<text text-anchor="middle" x="130" y="-244.8" font-family="Times,serif" font-size="14.00">4</text>
<text text-anchor="middle" x="130" y="-229.8" font-family="Times,serif" font-size="14.00">[16955E0]</text>
</g>
<!-- +
[16955A0]&#45;&gt;4
[16955E0] -->
<g id="edge9" class="edge"><title>+
[16955A0]&#45;&gt;4
[16955E0]</title>
<path fill="none" stroke="black" d="M130,-295.831C130,-288.131 130,-278.974 130,-270.417"/>
<polygon fill="black" stroke="black" points="133.5,-270.413 130,-260.413 126.5,-270.413 133.5,-270.413"/>
</g>
<!-- foo
[1695660] -->
<g id="node12" class="node"><title>foo
[1695660]</title>
<polygon fill="none" stroke="black" points="306.5,-334 233.5,-334 233.5,-296 306.5,-296 306.5,-334"/>
<text text-anchor="middle" x="270" y="-318.8" font-family="Times,serif" font-size="14.00">foo</text>
<text text-anchor="middle" x="270" y="-303.8" font-family="Times,serif" font-size="14.00">[1695660]</text>
</g>
<!-- ;
[16958E0]&#45;&gt;foo
[1695660] -->
<g id="edge11" class="edge"><title>;
[16958E0]&#45;&gt;foo
[1695660]</title>
<path fill="none" stroke="black" d="M270,-369.831C270,-362.131 270,-352.974 270,-344.417"/>
<polygon fill="black" stroke="black" points="273.5,-344.413 270,-334.413 266.5,-344.413 273.5,-344.413"/>
</g>
<!-- ;
[1695A20] -->
<g id="node21" class="node"><title>;
[1695A20]</title>
<polygon fill="none" stroke="black" points="538,-334 462,-334 462,-296 538,-296 538,-334"/>
<text text-anchor="middle" x="500" y="-318.8" font-family="Times,serif" font-size="14.00">;</text>
<text text-anchor="middle" x="500" y="-303.8" font-family="Times,serif" font-size="14.00">[1695A20]</text>
</g>
<!-- ;
[16958E0]&#45;&gt;;
[1695A20] -->
<g id="edge20" class="edge"><title>;
[16958E0]&#45;&gt;;
[1695A20]</title>
<path fill="none" stroke="black" d="M307.209,-376.352C346.605,-364.019 408.929,-344.509 452,-331.026"/>
<polygon fill="black" stroke="black" points="453.197,-334.319 461.694,-327.991 451.105,-327.639 453.197,-334.319"/>
</g>
<!-- output(
[16956A0] -->
<g id="node13" class="node"><title>output(
[16956A0]</title>
<polygon fill="none" stroke="black" points="261,-260 185,-260 185,-222 261,-222 261,-260"/>
<text text-anchor="middle" x="223" y="-244.8" font-family="Times,serif" font-size="14.00">output(</text>
<text text-anchor="middle" x="223" y="-229.8" font-family="Times,serif" font-size="14.00">[16956A0]</text>
</g>
<!-- foo
[1695660]&#45;&gt;output(
[16956A0] -->
<g id="edge12" class="edge"><title>foo
[1695660]&#45;&gt;output(
[16956A0]</title>
<path fill="none" stroke="black" d="M258.14,-295.831C252.837,-287.708 246.476,-277.964 240.633,-269.012"/>
<polygon fill="black" stroke="black" points="243.417,-266.874 235.02,-260.413 237.555,-270.7 243.417,-266.874"/>
</g>
<!-- ;
[16957A0] -->
<g id="node15" class="node"><title>;
[16957A0]</title>
<polygon fill="none" stroke="black" points="355,-260 279,-260 279,-222 355,-222 355,-260"/>
<text text-anchor="middle" x="317" y="-244.8" font-family="Times,serif" font-size="14.00">;</text>
<text text-anchor="middle" x="317" y="-229.8" font-family="Times,serif" font-size="14.00">[16957A0]</text>
</g>
<!-- foo
[1695660]&#45;&gt;;
[16957A0] -->
<g id="edge14" class="edge"><title>foo
[1695660]&#45;&gt;;
[16957A0]</title>
<path fill="none" stroke="black" d="M281.86,-295.831C287.163,-287.708 293.524,-277.964 299.367,-269.012"/>
<polygon fill="black" stroke="black" points="302.445,-270.7 304.98,-260.413 296.583,-266.874 302.445,-270.7"/>
</g>
<!-- a
[16956E0] -->
<g id="node14" class="node"><title>a
[16956E0]</title>
<polygon fill="none" stroke="black" points="215,-186 141,-186 141,-148 215,-148 215,-186"/>
<text text-anchor="middle" x="178" y="-170.8" font-family="Times,serif" font-size="14.00">a</text>
<text text-anchor="middle" x="178" y="-155.8" font-family="Times,serif" font-size="14.00">[16956E0]</text>
</g>
<!-- output(
[16956A0]&#45;&gt;a
[16956E0] -->
<g id="edge13" class="edge"><title>output(
[16956A0]&#45;&gt;a
[16956E0]</title>
<path fill="none" stroke="black" d="M211.645,-221.831C206.567,-213.708 200.477,-203.964 194.882,-195.012"/>
<polygon fill="black" stroke="black" points="197.776,-193.038 189.508,-186.413 191.84,-196.748 197.776,-193.038"/>
</g>
<!-- out
[1695720] -->
<g id="node16" class="node"><title>out
[1695720]</title>
<polygon fill="none" stroke="black" points="306.5,-186 233.5,-186 233.5,-148 306.5,-148 306.5,-186"/>
<text text-anchor="middle" x="270" y="-170.8" font-family="Times,serif" font-size="14.00">out</text>
<text text-anchor="middle" x="270" y="-155.8" font-family="Times,serif" font-size="14.00">[1695720]</text>
</g>
<!-- ;
[16957A0]&#45;&gt;out
[1695720] -->
<g id="edge15" class="edge"><title>;
[16957A0]&#45;&gt;out
[1695720]</title>
<path fill="none" stroke="black" d="M305.14,-221.831C299.837,-213.708 293.476,-203.964 287.633,-195.012"/>
<polygon fill="black" stroke="black" points="290.417,-192.874 282.02,-186.413 284.555,-196.7 290.417,-192.874"/>
</g>
<!-- ;
[1695860] -->
<g id="node18" class="node"><title>;
[1695860]</title>
<polygon fill="none" stroke="black" points="397.5,-186 324.5,-186 324.5,-148 397.5,-148 397.5,-186"/>
<text text-anchor="middle" x="361" y="-170.8" font-family="Times,serif" font-size="14.00">;</text>
<text text-anchor="middle" x="361" y="-155.8" font-family="Times,serif" font-size="14.00">[1695860]</text>
</g>
<!-- ;
[16957A0]&#45;&gt;;
[1695860] -->
<g id="edge17" class="edge"><title>;
[16957A0]&#45;&gt;;
[1695860]</title>
<path fill="none" stroke="black" d="M328.103,-221.831C333.067,-213.708 339.022,-203.964 344.493,-195.012"/>
<polygon fill="black" stroke="black" points="347.519,-196.771 349.747,-186.413 341.546,-193.121 347.519,-196.771"/>
</g>
<!-- a
[1695760] -->
<g id="node17" class="node"><title>a
[1695760]</title>
<polygon fill="none" stroke="black" points="305.5,-112 232.5,-112 232.5,-74 305.5,-74 305.5,-112"/>
<text text-anchor="middle" x="269" y="-96.8" font-family="Times,serif" font-size="14.00">a</text>
<text text-anchor="middle" x="269" y="-81.8" font-family="Times,serif" font-size="14.00">[1695760]</text>
</g>
<!-- out
[1695720]&#45;&gt;a
[1695760] -->
<g id="edge16" class="edge"><title>out
[1695720]&#45;&gt;a
[1695760]</title>
<path fill="none" stroke="black" d="M269.748,-147.831C269.641,-140.131 269.514,-130.974 269.395,-122.417"/>
<polygon fill="black" stroke="black" points="272.894,-122.364 269.256,-112.413 265.895,-122.461 272.894,-122.364"/>
</g>
<!-- ret
[16957E0] -->
<g id="node19" class="node"><title>ret
[16957E0]</title>
<polygon fill="none" stroke="black" points="398,-112 324,-112 324,-74 398,-74 398,-112"/>
<text text-anchor="middle" x="361" y="-96.8" font-family="Times,serif" font-size="14.00">ret</text>
<text text-anchor="middle" x="361" y="-81.8" font-family="Times,serif" font-size="14.00">[16957E0]</text>
</g>
<!-- ;
[1695860]&#45;&gt;ret
[16957E0] -->
<g id="edge18" class="edge"><title>;
[1695860]&#45;&gt;ret
[16957E0]</title>
<path fill="none" stroke="black" d="M361,-147.831C361,-140.131 361,-130.974 361,-122.417"/>
<polygon fill="black" stroke="black" points="364.5,-122.413 361,-112.413 357.5,-122.413 364.5,-122.413"/>
</g>
<!-- a
[1695820] -->
<g id="node20" class="node"><title>a
[1695820]</title>
<polygon fill="none" stroke="black" points="397.5,-38 324.5,-38 324.5,-0 397.5,-0 397.5,-38"/>
<text text-anchor="middle" x="361" y="-22.8" font-family="Times,serif" font-size="14.00">a</text>
<text text-anchor="middle" x="361" y="-7.8" font-family="Times,serif" font-size="14.00">[1695820]</text>
</g>
<!-- ret
[16957E0]&#45;&gt;a
[1695820] -->
<g id="edge19" class="edge"><title>ret
[16957E0]&#45;&gt;a
[1695820]</title>
<path fill="none" stroke="black" d="M361,-73.8314C361,-66.131 361,-56.9743 361,-48.4166"/>
<polygon fill="black" stroke="black" points="364.5,-48.4132 361,-38.4133 357.5,-48.4133 364.5,-48.4132"/>
</g>
<!-- =
[1695960] -->
<g id="node22" class="node"><title>=
[1695960]</title>
<polygon fill="none" stroke="black" points="536.5,-260 463.5,-260 463.5,-222 536.5,-222 536.5,-260"/>
<text text-anchor="middle" x="500" y="-244.8" font-family="Times,serif" font-size="14.00">=</text>
<text text-anchor="middle" x="500" y="-229.8" font-family="Times,serif" font-size="14.00">[1695960]</text>
</g>
<!-- ;
[1695A20]&#45;&gt;=
[1695960] -->
<g id="edge21" class="edge"><title>;
[1695A20]&#45;&gt;=
[1695960]</title>
<path fill="none" stroke="black" d="M500,-295.831C500,-288.131 500,-278.974 500,-270.417"/>
<polygon fill="black" stroke="black" points="503.5,-270.413 500,-260.413 496.5,-270.413 503.5,-270.413"/>
</g>
<!-- ;
[1695AE0] -->
<g id="node26" class="node"><title>;
[1695AE0]</title>
<polygon fill="none" stroke="black" points="631.5,-260 554.5,-260 554.5,-222 631.5,-222 631.5,-260"/>
<text text-anchor="middle" x="593" y="-244.8" font-family="Times,serif" font-size="14.00">;</text>
<text text-anchor="middle" x="593" y="-229.8" font-family="Times,serif" font-size="14.00">[1695AE0]</text>
</g>
<!-- ;
[1695A20]&#45;&gt;;
[1695AE0] -->
<g id="edge25" class="edge"><title>;
[1695A20]&#45;&gt;;
[1695AE0]</title>
<path fill="none" stroke="black" d="M523.468,-295.831C535.033,-286.878 549.14,-275.956 561.618,-266.295"/>
<polygon fill="black" stroke="black" points="563.775,-269.052 569.54,-260.163 559.49,-263.517 563.775,-269.052"/>
</g>
<!-- d
[1695920] -->
<g id="node23" class="node"><title>d
[1695920]</title>
<polygon fill="none" stroke="black" points="488.5,-186 415.5,-186 415.5,-148 488.5,-148 488.5,-186"/>
<text text-anchor="middle" x="452" y="-170.8" font-family="Times,serif" font-size="14.00">d</text>
<text text-anchor="middle" x="452" y="-155.8" font-family="Times,serif" font-size="14.00">[1695920]</text>
</g>
<!-- =
[1695960]&#45;&gt;d
[1695920] -->
<g id="edge22" class="edge"><title>=
[1695960]&#45;&gt;d
[1695920]</title>
<path fill="none" stroke="black" d="M487.888,-221.831C482.472,-213.708 475.976,-203.964 470.008,-195.012"/>
<polygon fill="black" stroke="black" points="472.735,-192.792 464.276,-186.413 466.91,-196.675 472.735,-192.792"/>
</g>
<!-- output(
[16959A0] -->
<g id="node24" class="node"><title>output(
[16959A0]</title>
<polygon fill="none" stroke="black" points="583,-186 507,-186 507,-148 583,-148 583,-186"/>
<text text-anchor="middle" x="545" y="-170.8" font-family="Times,serif" font-size="14.00">output(</text>
<text text-anchor="middle" x="545" y="-155.8" font-family="Times,serif" font-size="14.00">[16959A0]</text>
</g>
<!-- =
[1695960]&#45;&gt;output(
[16959A0] -->
<g id="edge23" class="edge"><title>=
[1695960]&#45;&gt;output(
[16959A0]</title>
<path fill="none" stroke="black" d="M511.355,-221.831C516.433,-213.708 522.523,-203.964 528.118,-195.012"/>
<polygon fill="black" stroke="black" points="531.16,-196.748 533.492,-186.413 525.224,-193.038 531.16,-196.748"/>
</g>
<!-- b
[16959E0] -->
<g id="node25" class="node"><title>b
[16959E0]</title>
<polygon fill="none" stroke="black" points="581,-112 507,-112 507,-74 581,-74 581,-112"/>
<text text-anchor="middle" x="544" y="-96.8" font-family="Times,serif" font-size="14.00">b</text>
<text text-anchor="middle" x="544" y="-81.8" font-family="Times,serif" font-size="14.00">[16959E0]</text>
</g>
<!-- output(
[16959A0]&#45;&gt;b
[16959E0] -->
<g id="edge24" class="edge"><title>output(
[16959A0]&#45;&gt;b
[16959E0]</title>
<path fill="none" stroke="black" d="M544.748,-147.831C544.641,-140.131 544.514,-130.974 544.395,-122.417"/>
<polygon fill="black" stroke="black" points="547.894,-122.364 544.256,-112.413 540.895,-122.461 547.894,-122.364"/>
</g>
<!-- out
[1695A60] -->
<g id="node27" class="node"><title>out
[1695A60]</title>
<polygon fill="none" stroke="black" points="677,-186 601,-186 601,-148 677,-148 677,-186"/>
<text text-anchor="middle" x="639" y="-170.8" font-family="Times,serif" font-size="14.00">out</text>
<text text-anchor="middle" x="639" y="-155.8" font-family="Times,serif" font-size="14.00">[1695A60]</text>
</g>
<!-- ;
[1695AE0]&#45;&gt;out
[1695A60] -->
<g id="edge26" class="edge"><title>;
[1695AE0]&#45;&gt;out
[1695A60]</title>
<path fill="none" stroke="black" d="M604.608,-221.831C609.798,-213.708 616.023,-203.964 621.742,-195.012"/>
<polygon fill="black" stroke="black" points="624.801,-196.725 627.236,-186.413 618.903,-192.956 624.801,-196.725"/>
</g>
<!-- a
[1695AA0] -->
<g id="node28" class="node"><title>a
[1695AA0]</title>
<polygon fill="none" stroke="black" points="678.5,-112 599.5,-112 599.5,-74 678.5,-74 678.5,-112"/>
<text text-anchor="middle" x="639" y="-96.8" font-family="Times,serif" font-size="14.00">a</text>
<text text-anchor="middle" x="639" y="-81.8" font-family="Times,serif" font-size="14.00">[1695AA0]</text>
</g>
<!-- out
[1695A60]&#45;&gt;a
[1695AA0] -->
<g id="edge27" class="edge"><title>out
[1695A60]&#45;&gt;a
[1695AA0]</title>
<path fill="none" stroke="black" d="M639,-147.831C639,-140.131 639,-130.974 639,-122.417"/>
<polygon fill="black" stroke="black" points="642.5,-122.413 639,-112.413 635.5,-122.413 642.5,-122.413"/>
</g>
</g>
</svg>
