<?xml version="1.0" encoding="UTF-8" standalone="no"?>
<!DOCTYPE svg PUBLIC "-//W3C//DTD SVG 1.1//EN"
 "http://www.w3.org/Graphics/SVG/1.1/DTD/svg11.dtd">
<!-- Generated by graphviz version 2.38.0 (20140413.2041)
 -->
<!-- Title: Tree Pages: 1 -->
<svg width="180pt" height="120pt"
 viewBox="0.00 0.00 180.00 120.00" xmlns="http://www.w3.org/2000/svg" xmlns:xlink="http://www.w3.org/1999/xlink">
<g id="graph0" class="graph" transform="scale(1 1) rotate(0) translate(4 116)">
<title>Tree</title>
<polygon fill="white" stroke="none" points="-4,4 -4,-116 176,-116 176,4 -4,4"/>
<!-- +
[1A631F0] -->
<g id="node1" class="node"><title>+
[1A631F0]</title>
<polygon fill="none" stroke="black" points="124.5,-112 47.5,-112 47.5,-74 124.5,-74 124.5,-112"/>
<text text-anchor="middle" x="86" y="-96.8" font-family="Times,serif" font-size="14.00">+</text>
<text text-anchor="middle" x="86" y="-81.8" font-family="Times,serif" font-size="14.00">[1A631F0]</text>
</g>
<!-- 1
[1A631B0] -->
<g id="node2" class="node"><title>1
[1A631B0]</title>
<polygon fill="none" stroke="black" points="78,-38 0,-38 0,-0 78,-0 78,-38"/>
<text text-anchor="middle" x="39" y="-22.8" font-family="Times,serif" font-size="14.00">1</text>
<text text-anchor="middle" x="39" y="-7.8" font-family="Times,serif" font-size="14.00">[1A631B0]</text>
</g>
<!-- +
[1A631F0]&#45;&gt;1
[1A631B0] -->
<g id="edge1" class="edge"><title>+
[1A631F0]&#45;&gt;1
[1A631B0]</title>
<path fill="none" stroke="black" d="M68.5428,-65.257C64.6237,-59.2533 60.464,-52.881 56.5414,-46.872"/>
<polygon fill="black" stroke="black" points="65.7428,-67.3707 74.1399,-73.8314 71.6045,-63.5444 65.7428,-67.3707"/>
<polygon fill="black" stroke="black" points="59.4169,-44.8739 51.0198,-38.4133 53.5552,-48.7003 59.4169,-44.8739"/>
</g>
<!-- 0
[1A63170] -->
<g id="node3" class="node"><title>0
[1A63170]</title>
<polygon fill="none" stroke="black" points="172,-38 96,-38 96,-0 172,-0 172,-38"/>
<text text-anchor="middle" x="134" y="-22.8" font-family="Times,serif" font-size="14.00">0</text>
<text text-anchor="middle" x="134" y="-7.8" font-family="Times,serif" font-size="14.00">[1A63170]</text>
</g>
<!-- +
[1A631F0]&#45;&gt;0
[1A63170] -->
<g id="edge2" class="edge"><title>+
[1A631F0]&#45;&gt;0
[1A63170]</title>
<path fill="none" stroke="black" d="M103.829,-65.257C107.831,-59.2533 112.079,-52.881 116.085,-46.872"/>
<polygon fill="black" stroke="black" points="100.747,-63.5694 98.1124,-73.8314 106.572,-67.4523 100.747,-63.5694"/>
<polygon fill="black" stroke="black" points="119.09,-48.6753 121.724,-38.4133 113.265,-44.7923 119.09,-48.6753"/>
</g>
</g>
</svg>
