<?xml version="1.0" encoding="UTF-8" standalone="no"?>
<!DOCTYPE svg PUBLIC "-//W3C//DTD SVG 1.1//EN"
 "http://www.w3.org/Graphics/SVG/1.1/DTD/svg11.dtd">
<!-- Generated by graphviz version 2.38.0 (20140413.2041)
 -->
<!-- Title: Tree Pages: 1 -->
<svg width="227pt" height="342pt"
 viewBox="0.00 0.00 227.00 342.00" xmlns="http://www.w3.org/2000/svg" xmlns:xlink="http://www.w3.org/1999/xlink">
<g id="graph0" class="graph" transform="scale(1 1) rotate(0) translate(4 338)">
<title>Tree</title>
<polygon fill="white" stroke="none" points="-4,4 -4,-338 223,-338 223,4 -4,4"/>
<!-- &#45;
[123C570] -->
<g id="node1" class="node"><title>&#45;
[123C570]</title>
<polygon fill="none" stroke="black" points="170,-334 95,-334 95,-296 170,-296 170,-334"/>
<text text-anchor="middle" x="132.5" y="-318.8" font-family="Times,serif" font-size="14.00">&#45;</text>
<text text-anchor="middle" x="132.5" y="-303.8" font-family="Times,serif" font-size="14.00">[123C570]</text>
</g>
<!-- *
[123C4F0] -->
<g id="node2" class="node"><title>*
[123C4F0]</title>
<polygon fill="none" stroke="black" points="123.5,-260 47.5,-260 47.5,-222 123.5,-222 123.5,-260"/>
<text text-anchor="middle" x="85.5" y="-244.8" font-family="Times,serif" font-size="14.00">*</text>
<text text-anchor="middle" x="85.5" y="-229.8" font-family="Times,serif" font-size="14.00">[123C4F0]</text>
</g>
<!-- &#45;
[123C570]&#45;&gt;*
[123C4F0] -->
<g id="edge1" class="edge"><title>&#45;
[123C570]&#45;&gt;*
[123C4F0]</title>
<path fill="none" stroke="black" d="M115.043,-287.257C111.124,-281.253 106.964,-274.881 103.041,-268.872"/>
<polygon fill="black" stroke="black" points="112.243,-289.371 120.64,-295.831 118.104,-285.544 112.243,-289.371"/>
<polygon fill="black" stroke="black" points="105.917,-266.874 97.5198,-260.413 100.055,-270.7 105.917,-266.874"/>
</g>
<!-- 1
[123C270] -->
<g id="node9" class="node"><title>1
[123C270]</title>
<polygon fill="none" stroke="black" points="217,-260 142,-260 142,-222 217,-222 217,-260"/>
<text text-anchor="middle" x="179.5" y="-244.8" font-family="Times,serif" font-size="14.00">1</text>
<text text-anchor="middle" x="179.5" y="-229.8" font-family="Times,serif" font-size="14.00">[123C270]</text>
</g>
<!-- &#45;
[123C570]&#45;&gt;1
[123C270] -->
<g id="edge8" class="edge"><title>&#45;
[123C570]&#45;&gt;1
[123C270]</title>
<path fill="none" stroke="black" d="M149.957,-287.257C153.876,-281.253 158.036,-274.881 161.959,-268.872"/>
<polygon fill="black" stroke="black" points="146.896,-285.544 144.36,-295.831 152.757,-289.371 146.896,-285.544"/>
<polygon fill="black" stroke="black" points="164.945,-270.7 167.48,-260.413 159.083,-266.874 164.945,-270.7"/>
</g>
<!-- 3
[123C4B0] -->
<g id="node3" class="node"><title>3
[123C4B0]</title>
<polygon fill="none" stroke="black" points="77,-186 0,-186 0,-148 77,-148 77,-186"/>
<text text-anchor="middle" x="38.5" y="-170.8" font-family="Times,serif" font-size="14.00">3</text>
<text text-anchor="middle" x="38.5" y="-155.8" font-family="Times,serif" font-size="14.00">[123C4B0]</text>
</g>
<!-- *
[123C4F0]&#45;&gt;3
[123C4B0] -->
<g id="edge2" class="edge"><title>*
[123C4F0]&#45;&gt;3
[123C4B0]</title>
<path fill="none" stroke="black" d="M68.0428,-213.257C64.1237,-207.253 59.964,-200.881 56.0414,-194.872"/>
<polygon fill="black" stroke="black" points="65.2428,-215.371 73.6399,-221.831 71.1045,-211.544 65.2428,-215.371"/>
<polygon fill="black" stroke="black" points="58.9169,-192.874 50.5198,-186.413 53.0552,-196.7 58.9169,-192.874"/>
</g>
<!-- ^
[123C470] -->
<g id="node4" class="node"><title>^
[123C470]</title>
<polygon fill="none" stroke="black" points="170,-186 95,-186 95,-148 170,-148 170,-186"/>
<text text-anchor="middle" x="132.5" y="-170.8" font-family="Times,serif" font-size="14.00">^</text>
<text text-anchor="middle" x="132.5" y="-155.8" font-family="Times,serif" font-size="14.00">[123C470]</text>
</g>
<!-- *
[123C4F0]&#45;&gt;^
[123C470] -->
<g id="edge3" class="edge"><title>*
[123C4F0]&#45;&gt;^
[123C470]</title>
<path fill="none" stroke="black" d="M102.957,-213.257C106.876,-207.253 111.036,-200.881 114.959,-194.872"/>
<polygon fill="black" stroke="black" points="99.8955,-211.544 97.3601,-221.831 105.757,-215.371 99.8955,-211.544"/>
<polygon fill="black" stroke="black" points="117.945,-196.7 120.48,-186.413 112.083,-192.874 117.945,-196.7"/>
</g>
<!-- +
[123C3B0] -->
<g id="node5" class="node"><title>+
[123C3B0]</title>
<polygon fill="none" stroke="black" points="124,-112 47,-112 47,-74 124,-74 124,-112"/>
<text text-anchor="middle" x="85.5" y="-96.8" font-family="Times,serif" font-size="14.00">+</text>
<text text-anchor="middle" x="85.5" y="-81.8" font-family="Times,serif" font-size="14.00">[123C3B0]</text>
</g>
<!-- ^
[123C470]&#45;&gt;+
[123C3B0] -->
<g id="edge4" class="edge"><title>^
[123C470]&#45;&gt;+
[123C3B0]</title>
<path fill="none" stroke="black" d="M115.043,-139.257C111.124,-133.253 106.964,-126.881 103.041,-120.872"/>
<polygon fill="black" stroke="black" points="112.243,-141.371 120.64,-147.831 118.104,-137.544 112.243,-141.371"/>
<polygon fill="black" stroke="black" points="105.917,-118.874 97.5198,-112.413 100.055,-122.7 105.917,-118.874"/>
</g>
<!-- 2
[123C2B0] -->
<g id="node8" class="node"><title>2
[123C2B0]</title>
<polygon fill="none" stroke="black" points="219,-112 142,-112 142,-74 219,-74 219,-112"/>
<text text-anchor="middle" x="180.5" y="-96.8" font-family="Times,serif" font-size="14.00">2</text>
<text text-anchor="middle" x="180.5" y="-81.8" font-family="Times,serif" font-size="14.00">[123C2B0]</text>
</g>
<!-- ^
[123C470]&#45;&gt;2
[123C2B0] -->
<g id="edge7" class="edge"><title>^
[123C470]&#45;&gt;2
[123C2B0]</title>
<path fill="none" stroke="black" d="M150.329,-139.257C154.331,-133.253 158.579,-126.881 162.585,-120.872"/>
<polygon fill="black" stroke="black" points="147.247,-137.569 144.612,-147.831 153.072,-141.452 147.247,-137.569"/>
<polygon fill="black" stroke="black" points="165.59,-122.675 168.224,-112.413 159.765,-118.792 165.59,-122.675"/>
</g>
<!-- 3
[123C3F0] -->
<g id="node6" class="node"><title>3
[123C3F0]</title>
<polygon fill="none" stroke="black" points="76.5,-38 0.5,-38 0.5,-0 76.5,-0 76.5,-38"/>
<text text-anchor="middle" x="38.5" y="-22.8" font-family="Times,serif" font-size="14.00">3</text>
<text text-anchor="middle" x="38.5" y="-7.8" font-family="Times,serif" font-size="14.00">[123C3F0]</text>
</g>
<!-- +
[123C3B0]&#45;&gt;3
[123C3F0] -->
<g id="edge5" class="edge"><title>+
[123C3B0]&#45;&gt;3
[123C3F0]</title>
<path fill="none" stroke="black" d="M68.0428,-65.257C64.1237,-59.2533 59.964,-52.881 56.0414,-46.872"/>
<polygon fill="black" stroke="black" points="65.2428,-67.3707 73.6399,-73.8314 71.1045,-63.5444 65.2428,-67.3707"/>
<polygon fill="black" stroke="black" points="58.9169,-44.8739 50.5198,-38.4133 53.0552,-48.7003 58.9169,-44.8739"/>
</g>
<!-- x
[123C430] -->
<g id="node7" class="node"><title>x
[123C430]</title>
<polygon fill="none" stroke="black" points="170,-38 95,-38 95,-0 170,-0 170,-38"/>
<text text-anchor="middle" x="132.5" y="-22.8" font-family="Times,serif" font-size="14.00">x</text>
<text text-anchor="middle" x="132.5" y="-7.8" font-family="Times,serif" font-size="14.00">[123C430]</text>
</g>
<!-- +
[123C3B0]&#45;&gt;x
[123C430] -->
<g id="edge6" class="edge"><title>+
[123C3B0]&#45;&gt;x
[123C430]</title>
<path fill="none" stroke="black" d="M102.957,-65.257C106.876,-59.2533 111.036,-52.881 114.959,-46.872"/>
<polygon fill="black" stroke="black" points="99.8955,-63.5444 97.3601,-73.8314 105.757,-67.3707 99.8955,-63.5444"/>
<polygon fill="black" stroke="black" points="117.945,-48.7003 120.48,-38.4133 112.083,-44.8739 117.945,-48.7003"/>
</g>
</g>
</svg>
