<?xml version="1.0" encoding="UTF-8" standalone="no"?>
<!DOCTYPE svg PUBLIC "-//W3C//DTD SVG 1.1//EN"
 "http://www.w3.org/Graphics/SVG/1.1/DTD/svg11.dtd">
<!-- Generated by graphviz version 2.38.0 (20140413.2041)
 -->
<!-- Title: Tree Pages: 1 -->
<svg width="212pt" height="342pt"
 viewBox="0.00 0.00 212.00 342.00" xmlns="http://www.w3.org/2000/svg" xmlns:xlink="http://www.w3.org/1999/xlink">
<g id="graph0" class="graph" transform="scale(1 1) rotate(0) translate(4 338)">
<title>Tree</title>
<polygon fill="white" stroke="none" points="-4,4 -4,-338 208,-338 208,4 -4,4"/>
<!-- &#45;
[A89570] -->
<g id="node1" class="node"><title>&#45;
[A89570]</title>
<polygon fill="none" stroke="black" points="158,-334 89,-334 89,-296 158,-296 158,-334"/>
<text text-anchor="middle" x="123.5" y="-318.8" font-family="Times,serif" font-size="14.00">&#45;</text>
<text text-anchor="middle" x="123.5" y="-303.8" font-family="Times,serif" font-size="14.00">[A89570]</text>
</g>
<!-- *
[A894F0] -->
<g id="node2" class="node"><title>*
[A894F0]</title>
<polygon fill="none" stroke="black" points="114.5,-260 44.5,-260 44.5,-222 114.5,-222 114.5,-260"/>
<text text-anchor="middle" x="79.5" y="-244.8" font-family="Times,serif" font-size="14.00">*</text>
<text text-anchor="middle" x="79.5" y="-229.8" font-family="Times,serif" font-size="14.00">[A894F0]</text>
</g>
<!-- &#45;
[A89570]&#45;&gt;*
[A894F0] -->
<g id="edge1" class="edge"><title>&#45;
[A89570]&#45;&gt;*
[A894F0]</title>
<path fill="none" stroke="black" d="M107.157,-287.257C103.573,-281.393 99.7749,-275.177 96.1783,-269.292"/>
<polygon fill="black" stroke="black" points="104.196,-289.124 112.397,-295.831 110.169,-285.473 104.196,-289.124"/>
<polygon fill="black" stroke="black" points="98.9536,-267.121 90.7526,-260.413 92.9806,-270.771 98.9536,-267.121"/>
</g>
<!-- 1
[A89270] -->
<g id="node9" class="node"><title>1
[A89270]</title>
<polygon fill="none" stroke="black" points="202,-260 133,-260 133,-222 202,-222 202,-260"/>
<text text-anchor="middle" x="167.5" y="-244.8" font-family="Times,serif" font-size="14.00">1</text>
<text text-anchor="middle" x="167.5" y="-229.8" font-family="Times,serif" font-size="14.00">[A89270]</text>
</g>
<!-- &#45;
[A89570]&#45;&gt;1
[A89270] -->
<g id="edge8" class="edge"><title>&#45;
[A89570]&#45;&gt;1
[A89270]</title>
<path fill="none" stroke="black" d="M139.843,-287.257C143.427,-281.393 147.225,-275.177 150.822,-269.292"/>
<polygon fill="black" stroke="black" points="136.831,-285.473 134.603,-295.831 142.804,-289.124 136.831,-285.473"/>
<polygon fill="black" stroke="black" points="154.019,-270.771 156.247,-260.413 148.046,-267.121 154.019,-270.771"/>
</g>
<!-- 3
[A894B0] -->
<g id="node3" class="node"><title>3
[A894B0]</title>
<polygon fill="none" stroke="black" points="71,-186 0,-186 0,-148 71,-148 71,-186"/>
<text text-anchor="middle" x="35.5" y="-170.8" font-family="Times,serif" font-size="14.00">3</text>
<text text-anchor="middle" x="35.5" y="-155.8" font-family="Times,serif" font-size="14.00">[A894B0]</text>
</g>
<!-- *
[A894F0]&#45;&gt;3
[A894B0] -->
<g id="edge2" class="edge"><title>*
[A894F0]&#45;&gt;3
[A894B0]</title>
<path fill="none" stroke="black" d="M63.1571,-213.257C59.5734,-207.393 55.7749,-201.177 52.1783,-195.292"/>
<polygon fill="black" stroke="black" points="60.1959,-215.124 68.3969,-221.831 66.1689,-211.473 60.1959,-215.124"/>
<polygon fill="black" stroke="black" points="54.9536,-193.121 46.7526,-186.413 48.9806,-196.771 54.9536,-193.121"/>
</g>
<!-- ^
[A89470] -->
<g id="node4" class="node"><title>^
[A89470]</title>
<polygon fill="none" stroke="black" points="158,-186 89,-186 89,-148 158,-148 158,-186"/>
<text text-anchor="middle" x="123.5" y="-170.8" font-family="Times,serif" font-size="14.00">^</text>
<text text-anchor="middle" x="123.5" y="-155.8" font-family="Times,serif" font-size="14.00">[A89470]</text>
</g>
<!-- *
[A894F0]&#45;&gt;^
[A89470] -->
<g id="edge3" class="edge"><title>*
[A894F0]&#45;&gt;^
[A89470]</title>
<path fill="none" stroke="black" d="M95.8429,-213.257C99.4266,-207.393 103.225,-201.177 106.822,-195.292"/>
<polygon fill="black" stroke="black" points="92.8311,-211.473 90.6031,-221.831 98.8041,-215.124 92.8311,-211.473"/>
<polygon fill="black" stroke="black" points="110.019,-196.771 112.247,-186.413 104.046,-193.121 110.019,-196.771"/>
</g>
<!-- +
[A893B0] -->
<g id="node5" class="node"><title>+
[A893B0]</title>
<polygon fill="none" stroke="black" points="115,-112 44,-112 44,-74 115,-74 115,-112"/>
<text text-anchor="middle" x="79.5" y="-96.8" font-family="Times,serif" font-size="14.00">+</text>
<text text-anchor="middle" x="79.5" y="-81.8" font-family="Times,serif" font-size="14.00">[A893B0]</text>
</g>
<!-- ^
[A89470]&#45;&gt;+
[A893B0] -->
<g id="edge4" class="edge"><title>^
[A89470]&#45;&gt;+
[A893B0]</title>
<path fill="none" stroke="black" d="M107.157,-139.257C103.573,-133.393 99.7749,-127.177 96.1783,-121.292"/>
<polygon fill="black" stroke="black" points="104.196,-141.124 112.397,-147.831 110.169,-137.473 104.196,-141.124"/>
<polygon fill="black" stroke="black" points="98.9536,-119.121 90.7526,-112.413 92.9806,-122.771 98.9536,-119.121"/>
</g>
<!-- 2
[A892B0] -->
<g id="node8" class="node"><title>2
[A892B0]</title>
<polygon fill="none" stroke="black" points="204,-112 133,-112 133,-74 204,-74 204,-112"/>
<text text-anchor="middle" x="168.5" y="-96.8" font-family="Times,serif" font-size="14.00">2</text>
<text text-anchor="middle" x="168.5" y="-81.8" font-family="Times,serif" font-size="14.00">[A892B0]</text>
</g>
<!-- ^
[A89470]&#45;&gt;2
[A892B0] -->
<g id="edge7" class="edge"><title>^
[A89470]&#45;&gt;2
[A892B0]</title>
<path fill="none" stroke="black" d="M140.214,-139.257C143.879,-133.393 147.764,-127.177 151.443,-121.292"/>
<polygon fill="black" stroke="black" points="137.187,-137.496 134.855,-147.831 143.123,-141.206 137.187,-137.496"/>
<polygon fill="black" stroke="black" points="154.66,-122.748 156.992,-112.413 148.724,-119.038 154.66,-122.748"/>
</g>
<!-- 3
[A893F0] -->
<g id="node6" class="node"><title>3
[A893F0]</title>
<polygon fill="none" stroke="black" points="70.5,-38 0.5,-38 0.5,-0 70.5,-0 70.5,-38"/>
<text text-anchor="middle" x="35.5" y="-22.8" font-family="Times,serif" font-size="14.00">3</text>
<text text-anchor="middle" x="35.5" y="-7.8" font-family="Times,serif" font-size="14.00">[A893F0]</text>
</g>
<!-- +
[A893B0]&#45;&gt;3
[A893F0] -->
<g id="edge5" class="edge"><title>+
[A893B0]&#45;&gt;3
[A893F0]</title>
<path fill="none" stroke="black" d="M63.1571,-65.257C59.5734,-59.3929 55.7749,-53.1772 52.1783,-47.2918"/>
<polygon fill="black" stroke="black" points="60.1959,-67.1236 68.3969,-73.8314 66.1689,-63.4734 60.1959,-67.1236"/>
<polygon fill="black" stroke="black" points="54.9536,-45.121 46.7526,-38.4133 48.9806,-48.7712 54.9536,-45.121"/>
</g>
<!-- x
[A89430] -->
<g id="node7" class="node"><title>x
[A89430]</title>
<polygon fill="none" stroke="black" points="158,-38 89,-38 89,-0 158,-0 158,-38"/>
<text text-anchor="middle" x="123.5" y="-22.8" font-family="Times,serif" font-size="14.00">x</text>
<text text-anchor="middle" x="123.5" y="-7.8" font-family="Times,serif" font-size="14.00">[A89430]</text>
</g>
<!-- +
[A893B0]&#45;&gt;x
[A89430] -->
<g id="edge6" class="edge"><title>+
[A893B0]&#45;&gt;x
[A89430]</title>
<path fill="none" stroke="black" d="M95.8429,-65.257C99.4266,-59.3929 103.225,-53.1772 106.822,-47.2918"/>
<polygon fill="black" stroke="black" points="92.8311,-63.4734 90.6031,-73.8314 98.8041,-67.1236 92.8311,-63.4734"/>
<polygon fill="black" stroke="black" points="110.019,-48.7712 112.247,-38.4133 104.046,-45.121 110.019,-48.7712"/>
</g>
</g>
</svg>
