<?xml version="1.0" encoding="UTF-8" standalone="no"?>
<!DOCTYPE svg PUBLIC "-//W3C//DTD SVG 1.1//EN"
 "http://www.w3.org/Graphics/SVG/1.1/DTD/svg11.dtd">
<!-- Generated by graphviz version 2.38.0 (20140413.2041)
 -->
<!-- Title: Tree Pages: 1 -->
<svg width="180pt" height="120pt"
 viewBox="0.00 0.00 180.00 120.00" xmlns="http://www.w3.org/2000/svg" xmlns:xlink="http://www.w3.org/1999/xlink">
<g id="graph0" class="graph" transform="scale(1 1) rotate(0) translate(4 116)">
<title>Tree</title>
<polygon fill="white" stroke="none" points="-4,4 -4,-116 176,-116 176,4 -4,4"/>
<!-- +
[1A63040] -->
<g id="node1" class="node"><title>+
[1A63040]</title>
<polygon fill="none" stroke="black" points="123,-112 47,-112 47,-74 123,-74 123,-112"/>
<text text-anchor="middle" x="85" y="-96.8" font-family="Times,serif" font-size="14.00">+</text>
<text text-anchor="middle" x="85" y="-81.8" font-family="Times,serif" font-size="14.00">[1A63040]</text>
</g>
<!-- x
[1A63080] -->
<g id="node2" class="node"><title>x
[1A63080]</title>
<polygon fill="none" stroke="black" points="76,-38 0,-38 0,-0 76,-0 76,-38"/>
<text text-anchor="middle" x="38" y="-22.8" font-family="Times,serif" font-size="14.00">x</text>
<text text-anchor="middle" x="38" y="-7.8" font-family="Times,serif" font-size="14.00">[1A63080]</text>
</g>
<!-- +
[1A63040]&#45;&gt;x
[1A63080] -->
<g id="edge1" class="edge"><title>+
[1A63040]&#45;&gt;x
[1A63080]</title>
<path fill="none" stroke="black" d="M67.5428,-65.257C63.6237,-59.2533 59.464,-52.881 55.5414,-46.872"/>
<polygon fill="black" stroke="black" points="64.7428,-67.3707 73.1399,-73.8314 70.6045,-63.5444 64.7428,-67.3707"/>
<polygon fill="black" stroke="black" points="58.4169,-44.8739 50.0198,-38.4133 52.5552,-48.7003 58.4169,-44.8739"/>
</g>
<!-- 3
[1A630C0] -->
<g id="node3" class="node"><title>3
[1A630C0]</title>
<polygon fill="none" stroke="black" points="172,-38 94,-38 94,-0 172,-0 172,-38"/>
<text text-anchor="middle" x="133" y="-22.8" font-family="Times,serif" font-size="14.00">3</text>
<text text-anchor="middle" x="133" y="-7.8" font-family="Times,serif" font-size="14.00">[1A630C0]</text>
</g>
<!-- +
[1A63040]&#45;&gt;3
[1A630C0] -->
<g id="edge2" class="edge"><title>+
[1A63040]&#45;&gt;3
[1A630C0]</title>
<path fill="none" stroke="black" d="M102.829,-65.257C106.831,-59.2533 111.079,-52.881 115.085,-46.872"/>
<polygon fill="black" stroke="black" points="99.7473,-63.5694 97.1124,-73.8314 105.572,-67.4523 99.7473,-63.5694"/>
<polygon fill="black" stroke="black" points="118.09,-48.6753 120.724,-38.4133 112.265,-44.7923 118.09,-48.6753"/>
</g>
</g>
</svg>
