<?xml version="1.0" encoding="UTF-8" standalone="no"?>
<!DOCTYPE svg PUBLIC "-//W3C//DTD SVG 1.1//EN"
 "http://www.w3.org/Graphics/SVG/1.1/DTD/svg11.dtd">
<!-- Generated by graphviz version 2.38.0 (20140413.2041)
 -->
<!-- Title: Tree Pages: 1 -->
<svg width="368pt" height="342pt"
 viewBox="0.00 0.00 367.50 342.00" xmlns="http://www.w3.org/2000/svg" xmlns:xlink="http://www.w3.org/1999/xlink">
<g id="graph0" class="graph" transform="scale(1 1) rotate(0) translate(4 338)">
<title>Tree</title>
<polygon fill="white" stroke="none" points="-4,4 -4,-338 363.5,-338 363.5,4 -4,4"/>
<!-- +
[20C58F0] -->
<g id="node1" class="node"><title>+
[20C58F0]</title>
<polygon fill="none" stroke="black" points="124.5,-334 48.5,-334 48.5,-296 124.5,-296 124.5,-334"/>
<text text-anchor="middle" x="86.5" y="-318.8" font-family="Times,serif" font-size="14.00">+</text>
<text text-anchor="middle" x="86.5" y="-303.8" font-family="Times,serif" font-size="14.00">[20C58F0]</text>
</g>
<!-- cos
[20C5870] -->
<g id="node2" class="node"><title>cos
[20C5870]</title>
<polygon fill="none" stroke="black" points="78,-260 3,-260 3,-222 78,-222 78,-260"/>
<text text-anchor="middle" x="40.5" y="-244.8" font-family="Times,serif" font-size="14.00">cos</text>
<text text-anchor="middle" x="40.5" y="-229.8" font-family="Times,serif" font-size="14.00">[20C5870]</text>
</g>
<!-- +
[20C58F0]&#45;&gt;cos
[20C5870] -->
<g id="edge1" class="edge"><title>+
[20C58F0]&#45;&gt;cos
[20C5870]</title>
<path fill="none" stroke="black" d="M69.4142,-287.257C65.5785,-281.253 61.5073,-274.881 57.6682,-268.872"/>
<polygon fill="black" stroke="black" points="66.5589,-289.289 74.8923,-295.831 72.4578,-285.52 66.5589,-289.289"/>
<polygon fill="black" stroke="black" points="60.5974,-266.956 52.264,-260.413 54.6985,-270.725 60.5974,-266.956"/>
</g>
<!-- /
[20C5770] -->
<g id="node4" class="node"><title>/
[20C5770]</title>
<polygon fill="none" stroke="black" points="171,-260 96,-260 96,-222 171,-222 171,-260"/>
<text text-anchor="middle" x="133.5" y="-244.8" font-family="Times,serif" font-size="14.00">/</text>
<text text-anchor="middle" x="133.5" y="-229.8" font-family="Times,serif" font-size="14.00">[20C5770]</text>
</g>
<!-- +
[20C58F0]&#45;&gt;/
[20C5770] -->
<g id="edge3" class="edge"><title>+
[20C58F0]&#45;&gt;/
[20C5770]</title>
<path fill="none" stroke="black" d="M103.957,-287.257C107.876,-281.253 112.036,-274.881 115.959,-268.872"/>
<polygon fill="black" stroke="black" points="100.896,-285.544 98.3601,-295.831 106.757,-289.371 100.896,-285.544"/>
<polygon fill="black" stroke="black" points="118.945,-270.7 121.48,-260.413 113.083,-266.874 118.945,-270.7"/>
</g>
<!-- x
[20C57F0] -->
<g id="node3" class="node"><title>x
[20C57F0]</title>
<polygon fill="none" stroke="black" points="77.5,-186 1.5,-186 1.5,-148 77.5,-148 77.5,-186"/>
<text text-anchor="middle" x="39.5" y="-170.8" font-family="Times,serif" font-size="14.00">x</text>
<text text-anchor="middle" x="39.5" y="-155.8" font-family="Times,serif" font-size="14.00">[20C57F0]</text>
</g>
<!-- cos
[20C5870]&#45;&gt;x
[20C57F0] -->
<g id="edge2" class="edge"><title>cos
[20C5870]&#45;&gt;x
[20C57F0]</title>
<path fill="none" stroke="black" d="M40.1052,-211.573C40.0372,-206.679 39.9665,-201.59 39.8985,-196.69"/>
<polygon fill="black" stroke="black" points="36.609,-211.881 40.2477,-221.831 43.6083,-211.784 36.609,-211.881"/>
<polygon fill="black" stroke="black" points="43.3944,-196.364 39.7557,-186.413 36.395,-196.461 43.3944,-196.364"/>
</g>
<!-- &#45;
[20C5730] -->
<g id="node5" class="node"><title>&#45;
[20C5730]</title>
<polygon fill="none" stroke="black" points="171,-186 96,-186 96,-148 171,-148 171,-186"/>
<text text-anchor="middle" x="133.5" y="-170.8" font-family="Times,serif" font-size="14.00">&#45;</text>
<text text-anchor="middle" x="133.5" y="-155.8" font-family="Times,serif" font-size="14.00">[20C5730]</text>
</g>
<!-- /
[20C5770]&#45;&gt;&#45;
[20C5730] -->
<g id="edge4" class="edge"><title>/
[20C5770]&#45;&gt;&#45;
[20C5730]</title>
<path fill="none" stroke="black" d="M133.5,-211.573C133.5,-206.679 133.5,-201.59 133.5,-196.69"/>
<polygon fill="black" stroke="black" points="130,-211.831 133.5,-221.831 137,-211.831 130,-211.831"/>
<polygon fill="black" stroke="black" points="137,-196.413 133.5,-186.413 130,-196.413 137,-196.413"/>
</g>
<!-- ^
[20C53F0] -->
<g id="node9" class="node"><title>^
[20C53F0]</title>
<polygon fill="none" stroke="black" points="265.5,-186 189.5,-186 189.5,-148 265.5,-148 265.5,-186"/>
<text text-anchor="middle" x="227.5" y="-170.8" font-family="Times,serif" font-size="14.00">^</text>
<text text-anchor="middle" x="227.5" y="-155.8" font-family="Times,serif" font-size="14.00">[20C53F0]</text>
</g>
<!-- /
[20C5770]&#45;&gt;^
[20C53F0] -->
<g id="edge8" class="edge"><title>/
[20C5770]&#45;&gt;^
[20C53F0]</title>
<path fill="none" stroke="black" d="M165.227,-215.698C175.081,-208.151 185.94,-199.833 195.792,-192.287"/>
<polygon fill="black" stroke="black" points="163.031,-212.972 157.22,-221.831 167.287,-218.529 163.031,-212.972"/>
<polygon fill="black" stroke="black" points="197.977,-195.022 203.787,-186.163 193.72,-189.465 197.977,-195.022"/>
</g>
<!-- 0
[20C56B0] -->
<g id="node6" class="node"><title>0
[20C56B0]</title>
<polygon fill="none" stroke="black" points="77,-112 0,-112 0,-74 77,-74 77,-112"/>
<text text-anchor="middle" x="38.5" y="-96.8" font-family="Times,serif" font-size="14.00">0</text>
<text text-anchor="middle" x="38.5" y="-81.8" font-family="Times,serif" font-size="14.00">[20C56B0]</text>
</g>
<!-- &#45;
[20C5730]&#45;&gt;0
[20C56B0] -->
<g id="edge5" class="edge"><title>&#45;
[20C5730]&#45;&gt;0
[20C56B0]</title>
<path fill="none" stroke="black" d="M101.435,-141.698C91.4766,-134.151 80.5024,-125.833 70.5452,-118.287"/>
<polygon fill="black" stroke="black" points="99.4437,-144.581 109.527,-147.831 103.672,-139.002 99.4437,-144.581"/>
<polygon fill="black" stroke="black" points="72.5486,-115.414 62.4648,-112.163 68.3205,-120.992 72.5486,-115.414"/>
</g>
<!-- sin
[20C54F0] -->
<g id="node7" class="node"><title>sin
[20C54F0]</title>
<polygon fill="none" stroke="black" points="171.5,-112 95.5,-112 95.5,-74 171.5,-74 171.5,-112"/>
<text text-anchor="middle" x="133.5" y="-96.8" font-family="Times,serif" font-size="14.00">sin</text>
<text text-anchor="middle" x="133.5" y="-81.8" font-family="Times,serif" font-size="14.00">[20C54F0]</text>
</g>
<!-- &#45;
[20C5730]&#45;&gt;sin
[20C54F0] -->
<g id="edge6" class="edge"><title>&#45;
[20C5730]&#45;&gt;sin
[20C54F0]</title>
<path fill="none" stroke="black" d="M133.5,-137.573C133.5,-132.679 133.5,-127.59 133.5,-122.69"/>
<polygon fill="black" stroke="black" points="130,-137.831 133.5,-147.831 137,-137.831 130,-137.831"/>
<polygon fill="black" stroke="black" points="137,-122.413 133.5,-112.413 130,-122.413 137,-122.413"/>
</g>
<!-- x
[20C5470] -->
<g id="node8" class="node"><title>x
[20C5470]</title>
<polygon fill="none" stroke="black" points="171,-38 96,-38 96,-0 171,-0 171,-38"/>
<text text-anchor="middle" x="133.5" y="-22.8" font-family="Times,serif" font-size="14.00">x</text>
<text text-anchor="middle" x="133.5" y="-7.8" font-family="Times,serif" font-size="14.00">[20C5470]</text>
</g>
<!-- sin
[20C54F0]&#45;&gt;x
[20C5470] -->
<g id="edge7" class="edge"><title>sin
[20C54F0]&#45;&gt;x
[20C5470]</title>
<path fill="none" stroke="black" d="M133.5,-63.5726C133.5,-58.6792 133.5,-53.5904 133.5,-48.6901"/>
<polygon fill="black" stroke="black" points="130,-63.8313 133.5,-73.8314 137,-63.8314 130,-63.8313"/>
<polygon fill="black" stroke="black" points="137,-48.4132 133.5,-38.4133 130,-48.4133 137,-48.4132"/>
</g>
<!-- cos
[20C5330] -->
<g id="node10" class="node"><title>cos
[20C5330]</title>
<polygon fill="none" stroke="black" points="265,-112 190,-112 190,-74 265,-74 265,-112"/>
<text text-anchor="middle" x="227.5" y="-96.8" font-family="Times,serif" font-size="14.00">cos</text>
<text text-anchor="middle" x="227.5" y="-81.8" font-family="Times,serif" font-size="14.00">[20C5330]</text>
</g>
<!-- ^
[20C53F0]&#45;&gt;cos
[20C5330] -->
<g id="edge9" class="edge"><title>^
[20C53F0]&#45;&gt;cos
[20C5330]</title>
<path fill="none" stroke="black" d="M227.5,-137.573C227.5,-132.679 227.5,-127.59 227.5,-122.69"/>
<polygon fill="black" stroke="black" points="224,-137.831 227.5,-147.831 231,-137.831 224,-137.831"/>
<polygon fill="black" stroke="black" points="231,-122.413 227.5,-112.413 224,-122.413 231,-122.413"/>
</g>
<!-- 2
[20C52F0] -->
<g id="node12" class="node"><title>2
[20C52F0]</title>
<polygon fill="none" stroke="black" points="359.5,-112 283.5,-112 283.5,-74 359.5,-74 359.5,-112"/>
<text text-anchor="middle" x="321.5" y="-96.8" font-family="Times,serif" font-size="14.00">2</text>
<text text-anchor="middle" x="321.5" y="-81.8" font-family="Times,serif" font-size="14.00">[20C52F0]</text>
</g>
<!-- ^
[20C53F0]&#45;&gt;2
[20C52F0] -->
<g id="edge11" class="edge"><title>^
[20C53F0]&#45;&gt;2
[20C52F0]</title>
<path fill="none" stroke="black" d="M259.227,-141.698C269.081,-134.151 279.94,-125.833 289.792,-118.287"/>
<polygon fill="black" stroke="black" points="257.031,-138.972 251.22,-147.831 261.287,-144.529 257.031,-138.972"/>
<polygon fill="black" stroke="black" points="291.977,-121.022 297.787,-112.163 287.72,-115.465 291.977,-121.022"/>
</g>
<!-- x
[20C53B0] -->
<g id="node11" class="node"><title>x
[20C53B0]</title>
<polygon fill="none" stroke="black" points="266,-38 189,-38 189,-0 266,-0 266,-38"/>
<text text-anchor="middle" x="227.5" y="-22.8" font-family="Times,serif" font-size="14.00">x</text>
<text text-anchor="middle" x="227.5" y="-7.8" font-family="Times,serif" font-size="14.00">[20C53B0]</text>
</g>
<!-- cos
[20C5330]&#45;&gt;x
[20C53B0] -->
<g id="edge10" class="edge"><title>cos
[20C5330]&#45;&gt;x
[20C53B0]</title>
<path fill="none" stroke="black" d="M227.5,-63.5726C227.5,-58.6792 227.5,-53.5904 227.5,-48.6901"/>
<polygon fill="black" stroke="black" points="224,-63.8313 227.5,-73.8314 231,-63.8314 224,-63.8313"/>
<polygon fill="black" stroke="black" points="231,-48.4132 227.5,-38.4133 224,-48.4133 231,-48.4132"/>
</g>
</g>
</svg>
