<?xml version="1.0" encoding="UTF-8" standalone="no"?>
<!DOCTYPE svg PUBLIC "-//W3C//DTD SVG 1.1//EN"
 "http://www.w3.org/Graphics/SVG/1.1/DTD/svg11.dtd">
<!-- Generated by graphviz version 2.38.0 (20140413.2041)
 -->
<!-- Title: Tree Pages: 1 -->
<svg width="366pt" height="416pt"
 viewBox="0.00 0.00 365.50 416.00" xmlns="http://www.w3.org/2000/svg" xmlns:xlink="http://www.w3.org/1999/xlink">
<g id="graph0" class="graph" transform="scale(1 1) rotate(0) translate(4 412)">
<title>Tree</title>
<polygon fill="white" stroke="none" points="-4,4 -4,-412 361.5,-412 361.5,4 -4,4"/>
<!-- &#45;
[123C570] -->
<g id="node1" class="node"><title>&#45;
[123C570]</title>
<polygon fill="none" stroke="black" points="262,-408 187,-408 187,-370 262,-370 262,-408"/>
<text text-anchor="middle" x="224.5" y="-392.8" font-family="Times,serif" font-size="14.00">&#45;</text>
<text text-anchor="middle" x="224.5" y="-377.8" font-family="Times,serif" font-size="14.00">[123C570]</text>
</g>
<!-- *
[123C530] -->
<g id="node2" class="node"><title>*
[123C530]</title>
<polygon fill="none" stroke="black" points="216,-334 141,-334 141,-296 216,-296 216,-334"/>
<text text-anchor="middle" x="178.5" y="-318.8" font-family="Times,serif" font-size="14.00">*</text>
<text text-anchor="middle" x="178.5" y="-303.8" font-family="Times,serif" font-size="14.00">[123C530]</text>
</g>
<!-- &#45;
[123C570]&#45;&gt;*
[123C530] -->
<g id="edge1" class="edge"><title>&#45;
[123C570]&#45;&gt;*
[123C530]</title>
<path fill="none" stroke="black" d="M207.414,-361.257C203.578,-355.253 199.507,-348.881 195.668,-342.872"/>
<polygon fill="black" stroke="black" points="204.559,-363.289 212.892,-369.831 210.458,-359.52 204.559,-363.289"/>
<polygon fill="black" stroke="black" points="198.597,-340.956 190.264,-334.413 192.699,-344.725 198.597,-340.956"/>
</g>
<!-- 1
[123C270] -->
<g id="node13" class="node"><title>1
[123C270]</title>
<polygon fill="none" stroke="black" points="309,-334 234,-334 234,-296 309,-296 309,-334"/>
<text text-anchor="middle" x="271.5" y="-318.8" font-family="Times,serif" font-size="14.00">1</text>
<text text-anchor="middle" x="271.5" y="-303.8" font-family="Times,serif" font-size="14.00">[123C270]</text>
</g>
<!-- &#45;
[123C570]&#45;&gt;1
[123C270] -->
<g id="edge12" class="edge"><title>&#45;
[123C570]&#45;&gt;1
[123C270]</title>
<path fill="none" stroke="black" d="M241.957,-361.257C245.876,-355.253 250.036,-348.881 253.959,-342.872"/>
<polygon fill="black" stroke="black" points="238.896,-359.544 236.36,-369.831 244.757,-363.371 238.896,-359.544"/>
<polygon fill="black" stroke="black" points="256.945,-344.7 259.48,-334.413 251.083,-340.874 256.945,-344.7"/>
</g>
<!-- *
[123C4F0] -->
<g id="node3" class="node"><title>*
[123C4F0]</title>
<polygon fill="none" stroke="black" points="169.5,-260 93.5,-260 93.5,-222 169.5,-222 169.5,-260"/>
<text text-anchor="middle" x="131.5" y="-244.8" font-family="Times,serif" font-size="14.00">*</text>
<text text-anchor="middle" x="131.5" y="-229.8" font-family="Times,serif" font-size="14.00">[123C4F0]</text>
</g>
<!-- *
[123C530]&#45;&gt;*
[123C4F0] -->
<g id="edge2" class="edge"><title>*
[123C530]&#45;&gt;*
[123C4F0]</title>
<path fill="none" stroke="black" d="M161.043,-287.257C157.124,-281.253 152.964,-274.881 149.041,-268.872"/>
<polygon fill="black" stroke="black" points="158.243,-289.371 166.64,-295.831 164.104,-285.544 158.243,-289.371"/>
<polygon fill="black" stroke="black" points="151.917,-266.874 143.52,-260.413 146.055,-270.7 151.917,-266.874"/>
</g>
<!-- +
[123C370] -->
<g id="node10" class="node"><title>+
[123C370]</title>
<polygon fill="none" stroke="black" points="263,-260 188,-260 188,-222 263,-222 263,-260"/>
<text text-anchor="middle" x="225.5" y="-244.8" font-family="Times,serif" font-size="14.00">+</text>
<text text-anchor="middle" x="225.5" y="-229.8" font-family="Times,serif" font-size="14.00">[123C370]</text>
</g>
<!-- *
[123C530]&#45;&gt;+
[123C370] -->
<g id="edge9" class="edge"><title>*
[123C530]&#45;&gt;+
[123C370]</title>
<path fill="none" stroke="black" d="M195.957,-287.257C199.876,-281.253 204.036,-274.881 207.959,-268.872"/>
<polygon fill="black" stroke="black" points="192.896,-285.544 190.36,-295.831 198.757,-289.371 192.896,-285.544"/>
<polygon fill="black" stroke="black" points="210.945,-270.7 213.48,-260.413 205.083,-266.874 210.945,-270.7"/>
</g>
<!-- 3
[123C4B0] -->
<g id="node4" class="node"><title>3
[123C4B0]</title>
<polygon fill="none" stroke="black" points="77,-186 0,-186 0,-148 77,-148 77,-186"/>
<text text-anchor="middle" x="38.5" y="-170.8" font-family="Times,serif" font-size="14.00">3</text>
<text text-anchor="middle" x="38.5" y="-155.8" font-family="Times,serif" font-size="14.00">[123C4B0]</text>
</g>
<!-- *
[123C4F0]&#45;&gt;3
[123C4B0] -->
<g id="edge3" class="edge"><title>*
[123C4F0]&#45;&gt;3
[123C4B0]</title>
<path fill="none" stroke="black" d="M100.11,-215.698C90.3613,-208.151 79.6182,-199.833 69.8705,-192.287"/>
<polygon fill="black" stroke="black" points="97.9823,-218.477 108.032,-221.831 102.268,-212.942 97.9823,-218.477"/>
<polygon fill="black" stroke="black" points="72.0102,-189.517 61.9603,-186.163 67.725,-195.052 72.0102,-189.517"/>
</g>
<!-- ^
[123C470] -->
<g id="node5" class="node"><title>^
[123C470]</title>
<polygon fill="none" stroke="black" points="170,-186 95,-186 95,-148 170,-148 170,-186"/>
<text text-anchor="middle" x="132.5" y="-170.8" font-family="Times,serif" font-size="14.00">^</text>
<text text-anchor="middle" x="132.5" y="-155.8" font-family="Times,serif" font-size="14.00">[123C470]</text>
</g>
<!-- *
[123C4F0]&#45;&gt;^
[123C470] -->
<g id="edge4" class="edge"><title>*
[123C4F0]&#45;&gt;^
[123C470]</title>
<path fill="none" stroke="black" d="M131.895,-211.573C131.963,-206.679 132.033,-201.59 132.102,-196.69"/>
<polygon fill="black" stroke="black" points="128.392,-211.784 131.752,-221.831 135.391,-211.881 128.392,-211.784"/>
<polygon fill="black" stroke="black" points="135.605,-196.461 132.244,-186.413 128.606,-196.364 135.605,-196.461"/>
</g>
<!-- +
[123C3B0] -->
<g id="node6" class="node"><title>+
[123C3B0]</title>
<polygon fill="none" stroke="black" points="124,-112 47,-112 47,-74 124,-74 124,-112"/>
<text text-anchor="middle" x="85.5" y="-96.8" font-family="Times,serif" font-size="14.00">+</text>
<text text-anchor="middle" x="85.5" y="-81.8" font-family="Times,serif" font-size="14.00">[123C3B0]</text>
</g>
<!-- ^
[123C470]&#45;&gt;+
[123C3B0] -->
<g id="edge5" class="edge"><title>^
[123C470]&#45;&gt;+
[123C3B0]</title>
<path fill="none" stroke="black" d="M115.043,-139.257C111.124,-133.253 106.964,-126.881 103.041,-120.872"/>
<polygon fill="black" stroke="black" points="112.243,-141.371 120.64,-147.831 118.104,-137.544 112.243,-141.371"/>
<polygon fill="black" stroke="black" points="105.917,-118.874 97.5198,-112.413 100.055,-122.7 105.917,-118.874"/>
</g>
<!-- 2
[123C2B0] -->
<g id="node9" class="node"><title>2
[123C2B0]</title>
<polygon fill="none" stroke="black" points="219,-112 142,-112 142,-74 219,-74 219,-112"/>
<text text-anchor="middle" x="180.5" y="-96.8" font-family="Times,serif" font-size="14.00">2</text>
<text text-anchor="middle" x="180.5" y="-81.8" font-family="Times,serif" font-size="14.00">[123C2B0]</text>
</g>
<!-- ^
[123C470]&#45;&gt;2
[123C2B0] -->
<g id="edge8" class="edge"><title>^
[123C470]&#45;&gt;2
[123C2B0]</title>
<path fill="none" stroke="black" d="M150.329,-139.257C154.331,-133.253 158.579,-126.881 162.585,-120.872"/>
<polygon fill="black" stroke="black" points="147.247,-137.569 144.612,-147.831 153.072,-141.452 147.247,-137.569"/>
<polygon fill="black" stroke="black" points="165.59,-122.675 168.224,-112.413 159.765,-118.792 165.59,-122.675"/>
</g>
<!-- 3
[123C3F0] -->
<g id="node7" class="node"><title>3
[123C3F0]</title>
<polygon fill="none" stroke="black" points="76.5,-38 0.5,-38 0.5,-0 76.5,-0 76.5,-38"/>
<text text-anchor="middle" x="38.5" y="-22.8" font-family="Times,serif" font-size="14.00">3</text>
<text text-anchor="middle" x="38.5" y="-7.8" font-family="Times,serif" font-size="14.00">[123C3F0]</text>
</g>
<!-- +
[123C3B0]&#45;&gt;3
[123C3F0] -->
<g id="edge6" class="edge"><title>+
[123C3B0]&#45;&gt;3
[123C3F0]</title>
<path fill="none" stroke="black" d="M68.0428,-65.257C64.1237,-59.2533 59.964,-52.881 56.0414,-46.872"/>
<polygon fill="black" stroke="black" points="65.2428,-67.3707 73.6399,-73.8314 71.1045,-63.5444 65.2428,-67.3707"/>
<polygon fill="black" stroke="black" points="58.9169,-44.8739 50.5198,-38.4133 53.0552,-48.7003 58.9169,-44.8739"/>
</g>
<!-- x
[123C430] -->
<g id="node8" class="node"><title>x
[123C430]</title>
<polygon fill="none" stroke="black" points="170,-38 95,-38 95,-0 170,-0 170,-38"/>
<text text-anchor="middle" x="132.5" y="-22.8" font-family="Times,serif" font-size="14.00">x</text>
<text text-anchor="middle" x="132.5" y="-7.8" font-family="Times,serif" font-size="14.00">[123C430]</text>
</g>
<!-- +
[123C3B0]&#45;&gt;x
[123C430] -->
<g id="edge7" class="edge"><title>+
[123C3B0]&#45;&gt;x
[123C430]</title>
<path fill="none" stroke="black" d="M102.957,-65.257C106.876,-59.2533 111.036,-52.881 114.959,-46.872"/>
<polygon fill="black" stroke="black" points="99.8955,-63.5444 97.3601,-73.8314 105.757,-67.3707 99.8955,-63.5444"/>
<polygon fill="black" stroke="black" points="117.945,-48.7003 120.48,-38.4133 112.083,-44.8739 117.945,-48.7003"/>
</g>
<!-- 0
[123C330] -->
<g id="node11" class="node"><title>0
[123C330]</title>
<polygon fill="none" stroke="black" points="263,-186 188,-186 188,-148 263,-148 263,-186"/>
<text text-anchor="middle" x="225.5" y="-170.8" font-family="Times,serif" font-size="14.00">0</text>
<text text-anchor="middle" x="225.5" y="-155.8" font-family="Times,serif" font-size="14.00">[123C330]</text>
</g>
<!-- +
[123C370]&#45;&gt;0
[123C330] -->
<g id="edge10" class="edge"><title>+
[123C370]&#45;&gt;0
[123C330]</title>
<path fill="none" stroke="black" d="M225.5,-211.573C225.5,-206.679 225.5,-201.59 225.5,-196.69"/>
<polygon fill="black" stroke="black" points="222,-211.831 225.5,-221.831 229,-211.831 222,-211.831"/>
<polygon fill="black" stroke="black" points="229,-196.413 225.5,-186.413 222,-196.413 229,-196.413"/>
</g>
<!-- 1
[123C2F0] -->
<g id="node12" class="node"><title>1
[123C2F0]</title>
<polygon fill="none" stroke="black" points="357.5,-186 281.5,-186 281.5,-148 357.5,-148 357.5,-186"/>
<text text-anchor="middle" x="319.5" y="-170.8" font-family="Times,serif" font-size="14.00">1</text>
<text text-anchor="middle" x="319.5" y="-155.8" font-family="Times,serif" font-size="14.00">[123C2F0]</text>
</g>
<!-- +
[123C370]&#45;&gt;1
[123C2F0] -->
<g id="edge11" class="edge"><title>+
[123C370]&#45;&gt;1
[123C2F0]</title>
<path fill="none" stroke="black" d="M257.227,-215.698C267.081,-208.151 277.94,-199.833 287.792,-192.287"/>
<polygon fill="black" stroke="black" points="255.031,-212.972 249.22,-221.831 259.287,-218.529 255.031,-212.972"/>
<polygon fill="black" stroke="black" points="289.977,-195.022 295.787,-186.163 285.72,-189.465 289.977,-195.022"/>
</g>
</g>
</svg>
