<?xml version="1.0" encoding="UTF-8" standalone="no"?>
<!DOCTYPE svg PUBLIC "-//W3C//DTD SVG 1.1//EN"
 "http://www.w3.org/Graphics/SVG/1.1/DTD/svg11.dtd">
<!-- Generated by graphviz version 2.38.0 (20140413.2041)
 -->
<!-- Title: Tree Pages: 1 -->
<svg width="331pt" height="194pt"
 viewBox="0.00 0.00 331.00 194.00" xmlns="http://www.w3.org/2000/svg" xmlns:xlink="http://www.w3.org/1999/xlink">
<g id="graph0" class="graph" transform="scale(1 1) rotate(0) translate(4 190)">
<title>Tree</title>
<polygon fill="white" stroke="none" points="-4,4 -4,-190 327,-190 327,4 -4,4"/>
<!-- *
[45489EA8] -->
<g id="node1" class="node"><title>*
[45489EA8]</title>
<polygon fill="none" stroke="black" points="202.5,-186 118.5,-186 118.5,-148 202.5,-148 202.5,-186"/>
<text text-anchor="middle" x="160.5" y="-170.8" font-family="Times,serif" font-size="14.00">*</text>
<text text-anchor="middle" x="160.5" y="-155.8" font-family="Times,serif" font-size="14.00">[45489EA8]</text>
</g>
<!-- +
[94F010] -->
<g id="node2" class="node"><title>+
[94F010]</title>
<polygon fill="none" stroke="black" points="151,-112 84,-112 84,-74 151,-74 151,-112"/>
<text text-anchor="middle" x="117.5" y="-96.8" font-family="Times,serif" font-size="14.00">+</text>
<text text-anchor="middle" x="117.5" y="-81.8" font-family="Times,serif" font-size="14.00">[94F010]</text>
</g>
<!-- *
[45489EA8]&#45;&gt;+
[94F010] -->
<g id="edge1" class="edge"><title>*
[45489EA8]&#45;&gt;+
[94F010]</title>
<path fill="none" stroke="black" d="M144.362,-138.978C140.889,-133.164 137.218,-127.016 133.742,-121.195"/>
<polygon fill="black" stroke="black" points="141.517,-141.041 149.649,-147.831 147.527,-137.451 141.517,-141.041"/>
<polygon fill="black" stroke="black" points="136.629,-119.204 128.497,-112.413 130.619,-122.793 136.629,-119.204"/>
</g>
<!-- &#45;
[94F0D0] -->
<g id="node5" class="node"><title>&#45;
[94F0D0]</title>
<polygon fill="none" stroke="black" points="239.5,-112 169.5,-112 169.5,-74 239.5,-74 239.5,-112"/>
<text text-anchor="middle" x="204.5" y="-96.8" font-family="Times,serif" font-size="14.00">&#45;</text>
<text text-anchor="middle" x="204.5" y="-81.8" font-family="Times,serif" font-size="14.00">[94F0D0]</text>
</g>
<!-- *
[45489EA8]&#45;&gt;&#45;
[94F0D0] -->
<g id="edge4" class="edge"><title>*
[45489EA8]&#45;&gt;&#45;
[94F0D0]</title>
<path fill="none" stroke="black" d="M176.843,-139.257C180.427,-133.393 184.225,-127.177 187.822,-121.292"/>
<polygon fill="black" stroke="black" points="173.831,-137.473 171.603,-147.831 179.804,-141.124 173.831,-137.473"/>
<polygon fill="black" stroke="black" points="191.019,-122.771 193.247,-112.413 185.046,-119.121 191.019,-122.771"/>
</g>
<!-- x
[94F050] -->
<g id="node3" class="node"><title>x
[94F050]</title>
<polygon fill="none" stroke="black" points="67,-38 0,-38 0,-0 67,-0 67,-38"/>
<text text-anchor="middle" x="33.5" y="-22.8" font-family="Times,serif" font-size="14.00">x</text>
<text text-anchor="middle" x="33.5" y="-7.8" font-family="Times,serif" font-size="14.00">[94F050]</text>
</g>
<!-- +
[94F010]&#45;&gt;x
[94F050] -->
<g id="edge2" class="edge"><title>+
[94F010]&#45;&gt;x
[94F050]</title>
<path fill="none" stroke="black" d="M88.5023,-67.1448C80.083,-59.9283 70.8904,-52.0489 62.4726,-44.8337"/>
<polygon fill="black" stroke="black" points="86.4329,-69.9808 96.3033,-73.8314 90.9884,-64.666 86.4329,-69.9808"/>
<polygon fill="black" stroke="black" points="64.5603,-42.0134 54.69,-38.1628 60.0048,-47.3282 64.5603,-42.0134"/>
</g>
<!-- 3
[94F090] -->
<g id="node4" class="node"><title>3
[94F090]</title>
<polygon fill="none" stroke="black" points="152,-38 85,-38 85,-0 152,-0 152,-38"/>
<text text-anchor="middle" x="118.5" y="-22.8" font-family="Times,serif" font-size="14.00">3</text>
<text text-anchor="middle" x="118.5" y="-7.8" font-family="Times,serif" font-size="14.00">[94F090]</text>
</g>
<!-- +
[94F010]&#45;&gt;3
[94F090] -->
<g id="edge3" class="edge"><title>+
[94F010]&#45;&gt;3
[94F090]</title>
<path fill="none" stroke="black" d="M117.895,-63.5726C117.963,-58.6792 118.033,-53.5904 118.102,-48.6901"/>
<polygon fill="black" stroke="black" points="114.392,-63.7837 117.752,-73.8314 121.391,-63.881 114.392,-63.7837"/>
<polygon fill="black" stroke="black" points="121.605,-48.4609 118.244,-38.4133 114.606,-48.3637 121.605,-48.4609"/>
</g>
<!-- 8
[94F110] -->
<g id="node6" class="node"><title>8
[94F110]</title>
<polygon fill="none" stroke="black" points="238,-38 171,-38 171,-0 238,-0 238,-38"/>
<text text-anchor="middle" x="204.5" y="-22.8" font-family="Times,serif" font-size="14.00">8</text>
<text text-anchor="middle" x="204.5" y="-7.8" font-family="Times,serif" font-size="14.00">[94F110]</text>
</g>
<!-- &#45;
[94F0D0]&#45;&gt;8
[94F110] -->
<g id="edge5" class="edge"><title>&#45;
[94F0D0]&#45;&gt;8
[94F110]</title>
<path fill="none" stroke="black" d="M204.5,-63.5726C204.5,-58.6792 204.5,-53.5904 204.5,-48.6901"/>
<polygon fill="black" stroke="black" points="201,-63.8313 204.5,-73.8314 208,-63.8314 201,-63.8313"/>
<polygon fill="black" stroke="black" points="208,-48.4132 204.5,-38.4133 201,-48.4133 208,-48.4132"/>
</g>
<!-- 4
[94F150] -->
<g id="node7" class="node"><title>4
[94F150]</title>
<polygon fill="none" stroke="black" points="323,-38 256,-38 256,-0 323,-0 323,-38"/>
<text text-anchor="middle" x="289.5" y="-22.8" font-family="Times,serif" font-size="14.00">4</text>
<text text-anchor="middle" x="289.5" y="-7.8" font-family="Times,serif" font-size="14.00">[94F150]</text>
</g>
<!-- &#45;
[94F0D0]&#45;&gt;4
[94F150] -->
<g id="edge6" class="edge"><title>&#45;
[94F0D0]&#45;&gt;4
[94F150]</title>
<path fill="none" stroke="black" d="M233.843,-67.1448C242.362,-59.9283 251.664,-52.0489 260.182,-44.8337"/>
<polygon fill="black" stroke="black" points="231.317,-64.6972 225.949,-73.8314 235.842,-70.0385 231.317,-64.6972"/>
<polygon fill="black" stroke="black" points="262.69,-47.297 268.058,-38.1628 258.165,-41.9556 262.69,-47.297"/>
</g>
</g>
</svg>
