<?xml version="1.0" encoding="UTF-8" standalone="no"?>
<!DOCTYPE svg PUBLIC "-//W3C//DTD SVG 1.1//EN"
 "http://www.w3.org/Graphics/SVG/1.1/DTD/svg11.dtd">
<!-- Generated by graphviz version 2.38.0 (20140413.2041)
 -->
<!-- Title: Tree Pages: 1 -->
<svg width="170pt" height="188pt"
 viewBox="0.00 0.00 170.00 188.00" xmlns="http://www.w3.org/2000/svg" xmlns:xlink="http://www.w3.org/1999/xlink">
<g id="graph0" class="graph" transform="scale(1 1) rotate(0) translate(4 184)">
<title>Tree</title>
<polygon fill="white" stroke="none" points="-4,4 -4,-184 166,-184 166,4 -4,4"/>
<!-- * -->
<g id="node1" class="node"><title>*</title>
<polygon fill="none" stroke="black" points="126,-180 72,-180 72,-144 126,-144 126,-180"/>
<text text-anchor="middle" x="99" y="-158.3" font-family="Times,serif" font-size="14.00">*</text>
</g>
<!-- + -->
<g id="node2" class="node"><title>+</title>
<polygon fill="none" stroke="black" points="90,-108 36,-108 36,-72 90,-72 90,-108"/>
<text text-anchor="middle" x="63" y="-86.3" font-family="Times,serif" font-size="14.00">+</text>
</g>
<!-- *&#45;&gt;+ -->
<g id="edge1" class="edge"><title>*&#45;&gt;+</title>
<path fill="none" stroke="black" d="M85.524,-134.797C82.5833,-129.079 79.4704,-123.026 76.5277,-117.304"/>
<polygon fill="black" stroke="black" points="82.4151,-136.404 90.1011,-143.697 88.6401,-133.203 82.4151,-136.404"/>
<polygon fill="black" stroke="black" points="79.4826,-115.396 71.7965,-108.104 73.2575,-118.598 79.4826,-115.396"/>
</g>
<!-- 4 -->
<g id="node5" class="node"><title>4</title>
<polygon fill="none" stroke="black" points="162,-108 108,-108 108,-72 162,-72 162,-108"/>
<text text-anchor="middle" x="135" y="-86.3" font-family="Times,serif" font-size="14.00">4</text>
</g>
<!-- *&#45;&gt;4 -->
<g id="edge4" class="edge"><title>*&#45;&gt;4</title>
<path fill="none" stroke="black" d="M112.476,-134.797C115.417,-129.079 118.53,-123.026 121.472,-117.304"/>
<polygon fill="black" stroke="black" points="109.36,-133.203 107.899,-143.697 115.585,-136.404 109.36,-133.203"/>
<polygon fill="black" stroke="black" points="124.742,-118.598 126.203,-108.104 118.517,-115.396 124.742,-118.598"/>
</g>
<!-- x -->
<g id="node3" class="node"><title>x</title>
<polygon fill="none" stroke="black" points="54,-36 0,-36 0,-0 54,-0 54,-36"/>
<text text-anchor="middle" x="27" y="-14.3" font-family="Times,serif" font-size="14.00">x</text>
</g>
<!-- +&#45;&gt;x -->
<g id="edge2" class="edge"><title>+&#45;&gt;x</title>
<path fill="none" stroke="black" d="M49.524,-62.7967C46.5833,-57.0787 43.4704,-51.0257 40.5277,-45.3038"/>
<polygon fill="black" stroke="black" points="46.4151,-64.4045 54.1011,-71.6966 52.6401,-61.203 46.4151,-64.4045"/>
<polygon fill="black" stroke="black" points="43.4826,-43.3965 35.7965,-36.1043 37.2575,-46.598 43.4826,-43.3965"/>
</g>
<!-- 3 -->
<g id="node4" class="node"><title>3</title>
<polygon fill="none" stroke="black" points="126,-36 72,-36 72,-0 126,-0 126,-36"/>
<text text-anchor="middle" x="99" y="-14.3" font-family="Times,serif" font-size="14.00">3</text>
</g>
<!-- +&#45;&gt;3 -->
<g id="edge3" class="edge"><title>+&#45;&gt;3</title>
<path fill="none" stroke="black" d="M76.476,-62.7967C79.4167,-57.0787 82.5296,-51.0257 85.4723,-45.3038"/>
<polygon fill="black" stroke="black" points="73.3599,-61.203 71.8989,-71.6966 79.5849,-64.4045 73.3599,-61.203"/>
<polygon fill="black" stroke="black" points="88.7425,-46.598 90.2035,-36.1043 82.5174,-43.3965 88.7425,-46.598"/>
</g>
</g>
</svg>
