<?xml version="1.0" encoding="UTF-8" standalone="no"?>
<!DOCTYPE svg PUBLIC "-//W3C//DTD SVG 1.1//EN"
 "http://www.w3.org/Graphics/SVG/1.1/DTD/svg11.dtd">
<!-- Generated by graphviz version 2.38.0 (20140413.2041)
 -->
<!-- Title: Tree Pages: 1 -->
<svg width="463pt" height="490pt"
 viewBox="0.00 0.00 462.50 490.00" xmlns="http://www.w3.org/2000/svg" xmlns:xlink="http://www.w3.org/1999/xlink">
<g id="graph0" class="graph" transform="scale(1 1) rotate(0) translate(4 486)">
<title>Tree</title>
<polygon fill="white" stroke="none" points="-4,4 -4,-486 458.5,-486 458.5,4 -4,4"/>
<!-- +
[20C58F0] -->
<g id="node1" class="node"><title>+
[20C58F0]</title>
<polygon fill="none" stroke="black" points="219.5,-482 143.5,-482 143.5,-444 219.5,-444 219.5,-482"/>
<text text-anchor="middle" x="181.5" y="-466.8" font-family="Times,serif" font-size="14.00">+</text>
<text text-anchor="middle" x="181.5" y="-451.8" font-family="Times,serif" font-size="14.00">[20C58F0]</text>
</g>
<!-- *
[20C58B0] -->
<g id="node2" class="node"><title>*
[20C58B0]</title>
<polygon fill="none" stroke="black" points="173,-408 96,-408 96,-370 173,-370 173,-408"/>
<text text-anchor="middle" x="134.5" y="-392.8" font-family="Times,serif" font-size="14.00">*</text>
<text text-anchor="middle" x="134.5" y="-377.8" font-family="Times,serif" font-size="14.00">[20C58B0]</text>
</g>
<!-- +
[20C58F0]&#45;&gt;*
[20C58B0] -->
<g id="edge1" class="edge"><title>+
[20C58F0]&#45;&gt;*
[20C58B0]</title>
<path fill="none" stroke="black" d="M164.043,-435.257C160.124,-429.253 155.964,-422.881 152.041,-416.872"/>
<polygon fill="black" stroke="black" points="161.243,-437.371 169.64,-443.831 167.104,-433.544 161.243,-437.371"/>
<polygon fill="black" stroke="black" points="154.917,-414.874 146.52,-408.413 149.055,-418.7 154.917,-414.874"/>
</g>
<!-- /
[20C5770] -->
<g id="node6" class="node"><title>/
[20C5770]</title>
<polygon fill="none" stroke="black" points="266,-408 191,-408 191,-370 266,-370 266,-408"/>
<text text-anchor="middle" x="228.5" y="-392.8" font-family="Times,serif" font-size="14.00">/</text>
<text text-anchor="middle" x="228.5" y="-377.8" font-family="Times,serif" font-size="14.00">[20C5770]</text>
</g>
<!-- +
[20C58F0]&#45;&gt;/
[20C5770] -->
<g id="edge5" class="edge"><title>+
[20C58F0]&#45;&gt;/
[20C5770]</title>
<path fill="none" stroke="black" d="M198.957,-435.257C202.876,-429.253 207.036,-422.881 210.959,-416.872"/>
<polygon fill="black" stroke="black" points="195.896,-433.544 193.36,-443.831 201.757,-437.371 195.896,-433.544"/>
<polygon fill="black" stroke="black" points="213.945,-418.7 216.48,-408.413 208.083,-414.874 213.945,-418.7"/>
</g>
<!-- cos
[20C5870] -->
<g id="node3" class="node"><title>cos
[20C5870]</title>
<polygon fill="none" stroke="black" points="78,-334 3,-334 3,-296 78,-296 78,-334"/>
<text text-anchor="middle" x="40.5" y="-318.8" font-family="Times,serif" font-size="14.00">cos</text>
<text text-anchor="middle" x="40.5" y="-303.8" font-family="Times,serif" font-size="14.00">[20C5870]</text>
</g>
<!-- *
[20C58B0]&#45;&gt;cos
[20C5870] -->
<g id="edge2" class="edge"><title>*
[20C58B0]&#45;&gt;cos
[20C5870]</title>
<path fill="none" stroke="black" d="M102.773,-363.698C92.9189,-356.151 82.0603,-347.833 72.2078,-340.287"/>
<polygon fill="black" stroke="black" points="100.713,-366.529 110.78,-369.831 104.969,-360.972 100.713,-366.529"/>
<polygon fill="black" stroke="black" points="74.2797,-337.465 64.2126,-334.163 70.0231,-343.022 74.2797,-337.465"/>
</g>
<!-- 1
[20C57B0] -->
<g id="node5" class="node"><title>1
[20C57B0]</title>
<polygon fill="none" stroke="black" points="173,-334 96,-334 96,-296 173,-296 173,-334"/>
<text text-anchor="middle" x="134.5" y="-318.8" font-family="Times,serif" font-size="14.00">1</text>
<text text-anchor="middle" x="134.5" y="-303.8" font-family="Times,serif" font-size="14.00">[20C57B0]</text>
</g>
<!-- *
[20C58B0]&#45;&gt;1
[20C57B0] -->
<g id="edge4" class="edge"><title>*
[20C58B0]&#45;&gt;1
[20C57B0]</title>
<path fill="none" stroke="black" d="M134.5,-359.573C134.5,-354.679 134.5,-349.59 134.5,-344.69"/>
<polygon fill="black" stroke="black" points="131,-359.831 134.5,-369.831 138,-359.831 131,-359.831"/>
<polygon fill="black" stroke="black" points="138,-344.413 134.5,-334.413 131,-344.413 138,-344.413"/>
</g>
<!-- x
[20C57F0] -->
<g id="node4" class="node"><title>x
[20C57F0]</title>
<polygon fill="none" stroke="black" points="77.5,-260 1.5,-260 1.5,-222 77.5,-222 77.5,-260"/>
<text text-anchor="middle" x="39.5" y="-244.8" font-family="Times,serif" font-size="14.00">x</text>
<text text-anchor="middle" x="39.5" y="-229.8" font-family="Times,serif" font-size="14.00">[20C57F0]</text>
</g>
<!-- cos
[20C5870]&#45;&gt;x
[20C57F0] -->
<g id="edge3" class="edge"><title>cos
[20C5870]&#45;&gt;x
[20C57F0]</title>
<path fill="none" stroke="black" d="M40.1052,-285.573C40.0372,-280.679 39.9665,-275.59 39.8985,-270.69"/>
<polygon fill="black" stroke="black" points="36.609,-285.881 40.2477,-295.831 43.6083,-285.784 36.609,-285.881"/>
<polygon fill="black" stroke="black" points="43.3944,-270.364 39.7557,-260.413 36.395,-270.461 43.3944,-270.364"/>
</g>
<!-- &#45;
[20C5730] -->
<g id="node7" class="node"><title>&#45;
[20C5730]</title>
<polygon fill="none" stroke="black" points="266,-334 191,-334 191,-296 266,-296 266,-334"/>
<text text-anchor="middle" x="228.5" y="-318.8" font-family="Times,serif" font-size="14.00">&#45;</text>
<text text-anchor="middle" x="228.5" y="-303.8" font-family="Times,serif" font-size="14.00">[20C5730]</text>
</g>
<!-- /
[20C5770]&#45;&gt;&#45;
[20C5730] -->
<g id="edge6" class="edge"><title>/
[20C5770]&#45;&gt;&#45;
[20C5730]</title>
<path fill="none" stroke="black" d="M228.5,-359.573C228.5,-354.679 228.5,-349.59 228.5,-344.69"/>
<polygon fill="black" stroke="black" points="225,-359.831 228.5,-369.831 232,-359.831 225,-359.831"/>
<polygon fill="black" stroke="black" points="232,-344.413 228.5,-334.413 225,-344.413 232,-344.413"/>
</g>
<!-- ^
[20C53F0] -->
<g id="node18" class="node"><title>^
[20C53F0]</title>
<polygon fill="none" stroke="black" points="360.5,-334 284.5,-334 284.5,-296 360.5,-296 360.5,-334"/>
<text text-anchor="middle" x="322.5" y="-318.8" font-family="Times,serif" font-size="14.00">^</text>
<text text-anchor="middle" x="322.5" y="-303.8" font-family="Times,serif" font-size="14.00">[20C53F0]</text>
</g>
<!-- /
[20C5770]&#45;&gt;^
[20C53F0] -->
<g id="edge17" class="edge"><title>/
[20C5770]&#45;&gt;^
[20C53F0]</title>
<path fill="none" stroke="black" d="M260.227,-363.698C270.081,-356.151 280.94,-347.833 290.792,-340.287"/>
<polygon fill="black" stroke="black" points="258.031,-360.972 252.22,-369.831 262.287,-366.529 258.031,-360.972"/>
<polygon fill="black" stroke="black" points="292.977,-343.022 298.787,-334.163 288.72,-337.465 292.977,-343.022"/>
</g>
<!-- *
[20C56F0] -->
<g id="node8" class="node"><title>*
[20C56F0]</title>
<polygon fill="none" stroke="black" points="171.5,-260 95.5,-260 95.5,-222 171.5,-222 171.5,-260"/>
<text text-anchor="middle" x="133.5" y="-244.8" font-family="Times,serif" font-size="14.00">*</text>
<text text-anchor="middle" x="133.5" y="-229.8" font-family="Times,serif" font-size="14.00">[20C56F0]</text>
</g>
<!-- &#45;
[20C5730]&#45;&gt;*
[20C56F0] -->
<g id="edge7" class="edge"><title>&#45;
[20C5730]&#45;&gt;*
[20C56F0]</title>
<path fill="none" stroke="black" d="M196.435,-289.698C186.477,-282.151 175.502,-273.833 165.545,-266.287"/>
<polygon fill="black" stroke="black" points="194.444,-292.581 204.527,-295.831 198.672,-287.002 194.444,-292.581"/>
<polygon fill="black" stroke="black" points="167.549,-263.414 157.465,-260.163 163.32,-268.992 167.549,-263.414"/>
</g>
<!-- *
[20C55B0] -->
<g id="node12" class="node"><title>*
[20C55B0]</title>
<polygon fill="none" stroke="black" points="267,-260 190,-260 190,-222 267,-222 267,-260"/>
<text text-anchor="middle" x="228.5" y="-244.8" font-family="Times,serif" font-size="14.00">*</text>
<text text-anchor="middle" x="228.5" y="-229.8" font-family="Times,serif" font-size="14.00">[20C55B0]</text>
</g>
<!-- &#45;
[20C5730]&#45;&gt;*
[20C55B0] -->
<g id="edge11" class="edge"><title>&#45;
[20C5730]&#45;&gt;*
[20C55B0]</title>
<path fill="none" stroke="black" d="M228.5,-285.573C228.5,-280.679 228.5,-275.59 228.5,-270.69"/>
<polygon fill="black" stroke="black" points="225,-285.831 228.5,-295.831 232,-285.831 225,-285.831"/>
<polygon fill="black" stroke="black" points="232,-270.413 228.5,-260.413 225,-270.413 232,-270.413"/>
</g>
<!-- 0
[20C56B0] -->
<g id="node9" class="node"><title>0
[20C56B0]</title>
<polygon fill="none" stroke="black" points="77,-186 0,-186 0,-148 77,-148 77,-186"/>
<text text-anchor="middle" x="38.5" y="-170.8" font-family="Times,serif" font-size="14.00">0</text>
<text text-anchor="middle" x="38.5" y="-155.8" font-family="Times,serif" font-size="14.00">[20C56B0]</text>
</g>
<!-- *
[20C56F0]&#45;&gt;0
[20C56B0] -->
<g id="edge8" class="edge"><title>*
[20C56F0]&#45;&gt;0
[20C56B0]</title>
<path fill="none" stroke="black" d="M101.435,-215.698C91.4766,-208.151 80.5024,-199.833 70.5452,-192.287"/>
<polygon fill="black" stroke="black" points="99.4437,-218.581 109.527,-221.831 103.672,-213.002 99.4437,-218.581"/>
<polygon fill="black" stroke="black" points="72.5486,-189.414 62.4648,-186.163 68.3205,-194.992 72.5486,-189.414"/>
</g>
<!-- cos
[20C55F0] -->
<g id="node10" class="node"><title>cos
[20C55F0]</title>
<polygon fill="none" stroke="black" points="171.5,-186 95.5,-186 95.5,-148 171.5,-148 171.5,-186"/>
<text text-anchor="middle" x="133.5" y="-170.8" font-family="Times,serif" font-size="14.00">cos</text>
<text text-anchor="middle" x="133.5" y="-155.8" font-family="Times,serif" font-size="14.00">[20C55F0]</text>
</g>
<!-- *
[20C56F0]&#45;&gt;cos
[20C55F0] -->
<g id="edge9" class="edge"><title>*
[20C56F0]&#45;&gt;cos
[20C55F0]</title>
<path fill="none" stroke="black" d="M133.5,-211.573C133.5,-206.679 133.5,-201.59 133.5,-196.69"/>
<polygon fill="black" stroke="black" points="130,-211.831 133.5,-221.831 137,-211.831 130,-211.831"/>
<polygon fill="black" stroke="black" points="137,-196.413 133.5,-186.413 130,-196.413 137,-196.413"/>
</g>
<!-- x
[20C5670] -->
<g id="node11" class="node"><title>x
[20C5670]</title>
<polygon fill="none" stroke="black" points="171,-112 96,-112 96,-74 171,-74 171,-112"/>
<text text-anchor="middle" x="133.5" y="-96.8" font-family="Times,serif" font-size="14.00">x</text>
<text text-anchor="middle" x="133.5" y="-81.8" font-family="Times,serif" font-size="14.00">[20C5670]</text>
</g>
<!-- cos
[20C55F0]&#45;&gt;x
[20C5670] -->
<g id="edge10" class="edge"><title>cos
[20C55F0]&#45;&gt;x
[20C5670]</title>
<path fill="none" stroke="black" d="M133.5,-137.573C133.5,-132.679 133.5,-127.59 133.5,-122.69"/>
<polygon fill="black" stroke="black" points="130,-137.831 133.5,-147.831 137,-137.831 130,-137.831"/>
<polygon fill="black" stroke="black" points="137,-122.413 133.5,-112.413 130,-122.413 137,-122.413"/>
</g>
<!-- 1
[20C5570] -->
<g id="node13" class="node"><title>1
[20C5570]</title>
<polygon fill="none" stroke="black" points="265,-186 190,-186 190,-148 265,-148 265,-186"/>
<text text-anchor="middle" x="227.5" y="-170.8" font-family="Times,serif" font-size="14.00">1</text>
<text text-anchor="middle" x="227.5" y="-155.8" font-family="Times,serif" font-size="14.00">[20C5570]</text>
</g>
<!-- *
[20C55B0]&#45;&gt;1
[20C5570] -->
<g id="edge12" class="edge"><title>*
[20C55B0]&#45;&gt;1
[20C5570]</title>
<path fill="none" stroke="black" d="M228.105,-211.573C228.037,-206.679 227.967,-201.59 227.898,-196.69"/>
<polygon fill="black" stroke="black" points="224.609,-211.881 228.248,-221.831 231.608,-211.784 224.609,-211.881"/>
<polygon fill="black" stroke="black" points="231.394,-196.364 227.756,-186.413 224.395,-196.461 231.394,-196.364"/>
</g>
<!-- *
[20C5530] -->
<g id="node14" class="node"><title>*
[20C5530]</title>
<polygon fill="none" stroke="black" points="358,-186 283,-186 283,-148 358,-148 358,-186"/>
<text text-anchor="middle" x="320.5" y="-170.8" font-family="Times,serif" font-size="14.00">*</text>
<text text-anchor="middle" x="320.5" y="-155.8" font-family="Times,serif" font-size="14.00">[20C5530]</text>
</g>
<!-- *
[20C55B0]&#45;&gt;*
[20C5530] -->
<g id="edge13" class="edge"><title>*
[20C55B0]&#45;&gt;*
[20C5530]</title>
<path fill="none" stroke="black" d="M259.905,-215.422C269.385,-208.003 279.788,-199.862 289.257,-192.451"/>
<polygon fill="black" stroke="black" points="257.433,-212.912 251.715,-221.831 261.748,-218.425 257.433,-212.912"/>
<polygon fill="black" stroke="black" points="291.574,-195.082 297.292,-186.163 287.26,-189.57 291.574,-195.082"/>
</g>
<!-- sin
[20C54F0] -->
<g id="node15" class="node"><title>sin
[20C54F0]</title>
<polygon fill="none" stroke="black" points="311.5,-112 235.5,-112 235.5,-74 311.5,-74 311.5,-112"/>
<text text-anchor="middle" x="273.5" y="-96.8" font-family="Times,serif" font-size="14.00">sin</text>
<text text-anchor="middle" x="273.5" y="-81.8" font-family="Times,serif" font-size="14.00">[20C54F0]</text>
</g>
<!-- *
[20C5530]&#45;&gt;sin
[20C54F0] -->
<g id="edge14" class="edge"><title>*
[20C5530]&#45;&gt;sin
[20C54F0]</title>
<path fill="none" stroke="black" d="M303.043,-139.257C299.124,-133.253 294.964,-126.881 291.041,-120.872"/>
<polygon fill="black" stroke="black" points="300.243,-141.371 308.64,-147.831 306.104,-137.544 300.243,-141.371"/>
<polygon fill="black" stroke="black" points="293.917,-118.874 285.52,-112.413 288.055,-122.7 293.917,-118.874"/>
</g>
<!-- 1
[20C5430] -->
<g id="node17" class="node"><title>1
[20C5430]</title>
<polygon fill="none" stroke="black" points="405,-112 330,-112 330,-74 405,-74 405,-112"/>
<text text-anchor="middle" x="367.5" y="-96.8" font-family="Times,serif" font-size="14.00">1</text>
<text text-anchor="middle" x="367.5" y="-81.8" font-family="Times,serif" font-size="14.00">[20C5430]</text>
</g>
<!-- *
[20C5530]&#45;&gt;1
[20C5430] -->
<g id="edge16" class="edge"><title>*
[20C5530]&#45;&gt;1
[20C5430]</title>
<path fill="none" stroke="black" d="M337.957,-139.257C341.876,-133.253 346.036,-126.881 349.959,-120.872"/>
<polygon fill="black" stroke="black" points="334.896,-137.544 332.36,-147.831 340.757,-141.371 334.896,-137.544"/>
<polygon fill="black" stroke="black" points="352.945,-122.7 355.48,-112.413 347.083,-118.874 352.945,-122.7"/>
</g>
<!-- x
[20C5470] -->
<g id="node16" class="node"><title>x
[20C5470]</title>
<polygon fill="none" stroke="black" points="311,-38 236,-38 236,-0 311,-0 311,-38"/>
<text text-anchor="middle" x="273.5" y="-22.8" font-family="Times,serif" font-size="14.00">x</text>
<text text-anchor="middle" x="273.5" y="-7.8" font-family="Times,serif" font-size="14.00">[20C5470]</text>
</g>
<!-- sin
[20C54F0]&#45;&gt;x
[20C5470] -->
<g id="edge15" class="edge"><title>sin
[20C54F0]&#45;&gt;x
[20C5470]</title>
<path fill="none" stroke="black" d="M273.5,-63.5726C273.5,-58.6792 273.5,-53.5904 273.5,-48.6901"/>
<polygon fill="black" stroke="black" points="270,-63.8313 273.5,-73.8314 277,-63.8314 270,-63.8313"/>
<polygon fill="black" stroke="black" points="277,-48.4132 273.5,-38.4133 270,-48.4133 277,-48.4132"/>
</g>
<!-- cos
[20C5330] -->
<g id="node19" class="node"><title>cos
[20C5330]</title>
<polygon fill="none" stroke="black" points="360,-260 285,-260 285,-222 360,-222 360,-260"/>
<text text-anchor="middle" x="322.5" y="-244.8" font-family="Times,serif" font-size="14.00">cos</text>
<text text-anchor="middle" x="322.5" y="-229.8" font-family="Times,serif" font-size="14.00">[20C5330]</text>
</g>
<!-- ^
[20C53F0]&#45;&gt;cos
[20C5330] -->
<g id="edge18" class="edge"><title>^
[20C53F0]&#45;&gt;cos
[20C5330]</title>
<path fill="none" stroke="black" d="M322.5,-285.573C322.5,-280.679 322.5,-275.59 322.5,-270.69"/>
<polygon fill="black" stroke="black" points="319,-285.831 322.5,-295.831 326,-285.831 319,-285.831"/>
<polygon fill="black" stroke="black" points="326,-270.413 322.5,-260.413 319,-270.413 326,-270.413"/>
</g>
<!-- 2
[20C52F0] -->
<g id="node21" class="node"><title>2
[20C52F0]</title>
<polygon fill="none" stroke="black" points="454.5,-260 378.5,-260 378.5,-222 454.5,-222 454.5,-260"/>
<text text-anchor="middle" x="416.5" y="-244.8" font-family="Times,serif" font-size="14.00">2</text>
<text text-anchor="middle" x="416.5" y="-229.8" font-family="Times,serif" font-size="14.00">[20C52F0]</text>
</g>
<!-- ^
[20C53F0]&#45;&gt;2
[20C52F0] -->
<g id="edge20" class="edge"><title>^
[20C53F0]&#45;&gt;2
[20C52F0]</title>
<path fill="none" stroke="black" d="M354.227,-289.698C364.081,-282.151 374.94,-273.833 384.792,-266.287"/>
<polygon fill="black" stroke="black" points="352.031,-286.972 346.22,-295.831 356.287,-292.529 352.031,-286.972"/>
<polygon fill="black" stroke="black" points="386.977,-269.022 392.787,-260.163 382.72,-263.465 386.977,-269.022"/>
</g>
<!-- x
[20C53B0] -->
<g id="node20" class="node"><title>x
[20C53B0]</title>
<polygon fill="none" stroke="black" points="453,-186 376,-186 376,-148 453,-148 453,-186"/>
<text text-anchor="middle" x="414.5" y="-170.8" font-family="Times,serif" font-size="14.00">x</text>
<text text-anchor="middle" x="414.5" y="-155.8" font-family="Times,serif" font-size="14.00">[20C53B0]</text>
</g>
<!-- cos
[20C5330]&#45;&gt;x
[20C53B0] -->
<g id="edge19" class="edge"><title>cos
[20C5330]&#45;&gt;x
[20C53B0]</title>
<path fill="none" stroke="black" d="M353.905,-215.422C363.385,-208.003 373.788,-199.862 383.257,-192.451"/>
<polygon fill="black" stroke="black" points="351.433,-212.912 345.715,-221.831 355.748,-218.425 351.433,-212.912"/>
<polygon fill="black" stroke="black" points="385.574,-195.082 391.292,-186.163 381.26,-189.57 385.574,-195.082"/>
</g>
</g>
</svg>
