<?xml version="1.0" encoding="UTF-8" standalone="no"?>
<!DOCTYPE svg PUBLIC "-//W3C//DTD SVG 1.1//EN"
 "http://www.w3.org/Graphics/SVG/1.1/DTD/svg11.dtd">
<!-- Generated by graphviz version 2.38.0 (20140413.2041)
 -->
<!-- Title: Tree Pages: 1 -->
<svg width="342pt" height="416pt"
 viewBox="0.00 0.00 341.50 416.00" xmlns="http://www.w3.org/2000/svg" xmlns:xlink="http://www.w3.org/1999/xlink">
<g id="graph0" class="graph" transform="scale(1 1) rotate(0) translate(4 412)">
<title>Tree</title>
<polygon fill="white" stroke="none" points="-4,4 -4,-412 337.5,-412 337.5,4 -4,4"/>
<!-- &#45;
[A89570] -->
<g id="node1" class="node"><title>&#45;
[A89570]</title>
<polygon fill="none" stroke="black" points="244,-408 175,-408 175,-370 244,-370 244,-408"/>
<text text-anchor="middle" x="209.5" y="-392.8" font-family="Times,serif" font-size="14.00">&#45;</text>
<text text-anchor="middle" x="209.5" y="-377.8" font-family="Times,serif" font-size="14.00">[A89570]</text>
</g>
<!-- *
[A89530] -->
<g id="node2" class="node"><title>*
[A89530]</title>
<polygon fill="none" stroke="black" points="201,-334 132,-334 132,-296 201,-296 201,-334"/>
<text text-anchor="middle" x="166.5" y="-318.8" font-family="Times,serif" font-size="14.00">*</text>
<text text-anchor="middle" x="166.5" y="-303.8" font-family="Times,serif" font-size="14.00">[A89530]</text>
</g>
<!-- &#45;
[A89570]&#45;&gt;*
[A89530] -->
<g id="edge1" class="edge"><title>&#45;
[A89570]&#45;&gt;*
[A89530]</title>
<path fill="none" stroke="black" d="M193.362,-360.978C189.889,-355.164 186.218,-349.016 182.742,-343.195"/>
<polygon fill="black" stroke="black" points="190.517,-363.041 198.649,-369.831 196.527,-359.451 190.517,-363.041"/>
<polygon fill="black" stroke="black" points="185.629,-341.204 177.497,-334.413 179.619,-344.793 185.629,-341.204"/>
</g>
<!-- 1
[A89270] -->
<g id="node13" class="node"><title>1
[A89270]</title>
<polygon fill="none" stroke="black" points="288,-334 219,-334 219,-296 288,-296 288,-334"/>
<text text-anchor="middle" x="253.5" y="-318.8" font-family="Times,serif" font-size="14.00">1</text>
<text text-anchor="middle" x="253.5" y="-303.8" font-family="Times,serif" font-size="14.00">[A89270]</text>
</g>
<!-- &#45;
[A89570]&#45;&gt;1
[A89270] -->
<g id="edge12" class="edge"><title>&#45;
[A89570]&#45;&gt;1
[A89270]</title>
<path fill="none" stroke="black" d="M225.843,-361.257C229.427,-355.393 233.225,-349.177 236.822,-343.292"/>
<polygon fill="black" stroke="black" points="222.831,-359.473 220.603,-369.831 228.804,-363.124 222.831,-359.473"/>
<polygon fill="black" stroke="black" points="240.019,-344.771 242.247,-334.413 234.046,-341.121 240.019,-344.771"/>
</g>
<!-- *
[A894F0] -->
<g id="node3" class="node"><title>*
[A894F0]</title>
<polygon fill="none" stroke="black" points="157.5,-260 87.5,-260 87.5,-222 157.5,-222 157.5,-260"/>
<text text-anchor="middle" x="122.5" y="-244.8" font-family="Times,serif" font-size="14.00">*</text>
<text text-anchor="middle" x="122.5" y="-229.8" font-family="Times,serif" font-size="14.00">[A894F0]</text>
</g>
<!-- *
[A89530]&#45;&gt;*
[A894F0] -->
<g id="edge2" class="edge"><title>*
[A89530]&#45;&gt;*
[A894F0]</title>
<path fill="none" stroke="black" d="M150.157,-287.257C146.573,-281.393 142.775,-275.177 139.178,-269.292"/>
<polygon fill="black" stroke="black" points="147.196,-289.124 155.397,-295.831 153.169,-285.473 147.196,-289.124"/>
<polygon fill="black" stroke="black" points="141.954,-267.121 133.753,-260.413 135.981,-270.771 141.954,-267.121"/>
</g>
<!-- +
[A89370] -->
<g id="node10" class="node"><title>+
[A89370]</title>
<polygon fill="none" stroke="black" points="245,-260 176,-260 176,-222 245,-222 245,-260"/>
<text text-anchor="middle" x="210.5" y="-244.8" font-family="Times,serif" font-size="14.00">+</text>
<text text-anchor="middle" x="210.5" y="-229.8" font-family="Times,serif" font-size="14.00">[A89370]</text>
</g>
<!-- *
[A89530]&#45;&gt;+
[A89370] -->
<g id="edge9" class="edge"><title>*
[A89530]&#45;&gt;+
[A89370]</title>
<path fill="none" stroke="black" d="M182.843,-287.257C186.427,-281.393 190.225,-275.177 193.822,-269.292"/>
<polygon fill="black" stroke="black" points="179.831,-285.473 177.603,-295.831 185.804,-289.124 179.831,-285.473"/>
<polygon fill="black" stroke="black" points="197.019,-270.771 199.247,-260.413 191.046,-267.121 197.019,-270.771"/>
</g>
<!-- 3
[A894B0] -->
<g id="node4" class="node"><title>3
[A894B0]</title>
<polygon fill="none" stroke="black" points="71,-186 0,-186 0,-148 71,-148 71,-186"/>
<text text-anchor="middle" x="35.5" y="-170.8" font-family="Times,serif" font-size="14.00">3</text>
<text text-anchor="middle" x="35.5" y="-155.8" font-family="Times,serif" font-size="14.00">[A894B0]</text>
</g>
<!-- *
[A894F0]&#45;&gt;3
[A894B0] -->
<g id="edge3" class="edge"><title>*
[A894F0]&#45;&gt;3
[A894B0]</title>
<path fill="none" stroke="black" d="M92.8014,-215.422C83.9272,-208.078 74.1981,-200.026 65.3164,-192.676"/>
<polygon fill="black" stroke="black" points="90.6108,-218.152 100.546,-221.831 95.0738,-212.759 90.6108,-218.152"/>
<polygon fill="black" stroke="black" points="67.3822,-189.842 57.4467,-186.163 62.9192,-195.235 67.3822,-189.842"/>
</g>
<!-- ^
[A89470] -->
<g id="node5" class="node"><title>^
[A89470]</title>
<polygon fill="none" stroke="black" points="158,-186 89,-186 89,-148 158,-148 158,-186"/>
<text text-anchor="middle" x="123.5" y="-170.8" font-family="Times,serif" font-size="14.00">^</text>
<text text-anchor="middle" x="123.5" y="-155.8" font-family="Times,serif" font-size="14.00">[A89470]</text>
</g>
<!-- *
[A894F0]&#45;&gt;^
[A89470] -->
<g id="edge4" class="edge"><title>*
[A894F0]&#45;&gt;^
[A89470]</title>
<path fill="none" stroke="black" d="M122.895,-211.573C122.963,-206.679 123.033,-201.59 123.102,-196.69"/>
<polygon fill="black" stroke="black" points="119.392,-211.784 122.752,-221.831 126.391,-211.881 119.392,-211.784"/>
<polygon fill="black" stroke="black" points="126.605,-196.461 123.244,-186.413 119.606,-196.364 126.605,-196.461"/>
</g>
<!-- +
[A893B0] -->
<g id="node6" class="node"><title>+
[A893B0]</title>
<polygon fill="none" stroke="black" points="115,-112 44,-112 44,-74 115,-74 115,-112"/>
<text text-anchor="middle" x="79.5" y="-96.8" font-family="Times,serif" font-size="14.00">+</text>
<text text-anchor="middle" x="79.5" y="-81.8" font-family="Times,serif" font-size="14.00">[A893B0]</text>
</g>
<!-- ^
[A89470]&#45;&gt;+
[A893B0] -->
<g id="edge5" class="edge"><title>^
[A89470]&#45;&gt;+
[A893B0]</title>
<path fill="none" stroke="black" d="M107.157,-139.257C103.573,-133.393 99.7749,-127.177 96.1783,-121.292"/>
<polygon fill="black" stroke="black" points="104.196,-141.124 112.397,-147.831 110.169,-137.473 104.196,-141.124"/>
<polygon fill="black" stroke="black" points="98.9536,-119.121 90.7526,-112.413 92.9806,-122.771 98.9536,-119.121"/>
</g>
<!-- 2
[A892B0] -->
<g id="node9" class="node"><title>2
[A892B0]</title>
<polygon fill="none" stroke="black" points="204,-112 133,-112 133,-74 204,-74 204,-112"/>
<text text-anchor="middle" x="168.5" y="-96.8" font-family="Times,serif" font-size="14.00">2</text>
<text text-anchor="middle" x="168.5" y="-81.8" font-family="Times,serif" font-size="14.00">[A892B0]</text>
</g>
<!-- ^
[A89470]&#45;&gt;2
[A892B0] -->
<g id="edge8" class="edge"><title>^
[A89470]&#45;&gt;2
[A892B0]</title>
<path fill="none" stroke="black" d="M140.214,-139.257C143.879,-133.393 147.764,-127.177 151.443,-121.292"/>
<polygon fill="black" stroke="black" points="137.187,-137.496 134.855,-147.831 143.123,-141.206 137.187,-137.496"/>
<polygon fill="black" stroke="black" points="154.66,-122.748 156.992,-112.413 148.724,-119.038 154.66,-122.748"/>
</g>
<!-- 3
[A893F0] -->
<g id="node7" class="node"><title>3
[A893F0]</title>
<polygon fill="none" stroke="black" points="70.5,-38 0.5,-38 0.5,-0 70.5,-0 70.5,-38"/>
<text text-anchor="middle" x="35.5" y="-22.8" font-family="Times,serif" font-size="14.00">3</text>
<text text-anchor="middle" x="35.5" y="-7.8" font-family="Times,serif" font-size="14.00">[A893F0]</text>
</g>
<!-- +
[A893B0]&#45;&gt;3
[A893F0] -->
<g id="edge6" class="edge"><title>+
[A893B0]&#45;&gt;3
[A893F0]</title>
<path fill="none" stroke="black" d="M63.1571,-65.257C59.5734,-59.3929 55.7749,-53.1772 52.1783,-47.2918"/>
<polygon fill="black" stroke="black" points="60.1959,-67.1236 68.3969,-73.8314 66.1689,-63.4734 60.1959,-67.1236"/>
<polygon fill="black" stroke="black" points="54.9536,-45.121 46.7526,-38.4133 48.9806,-48.7712 54.9536,-45.121"/>
</g>
<!-- x
[A89430] -->
<g id="node8" class="node"><title>x
[A89430]</title>
<polygon fill="none" stroke="black" points="158,-38 89,-38 89,-0 158,-0 158,-38"/>
<text text-anchor="middle" x="123.5" y="-22.8" font-family="Times,serif" font-size="14.00">x</text>
<text text-anchor="middle" x="123.5" y="-7.8" font-family="Times,serif" font-size="14.00">[A89430]</text>
</g>
<!-- +
[A893B0]&#45;&gt;x
[A89430] -->
<g id="edge7" class="edge"><title>+
[A893B0]&#45;&gt;x
[A89430]</title>
<path fill="none" stroke="black" d="M95.8429,-65.257C99.4266,-59.3929 103.225,-53.1772 106.822,-47.2918"/>
<polygon fill="black" stroke="black" points="92.8311,-63.4734 90.6031,-73.8314 98.8041,-67.1236 92.8311,-63.4734"/>
<polygon fill="black" stroke="black" points="110.019,-48.7712 112.247,-38.4133 104.046,-45.121 110.019,-48.7712"/>
</g>
<!-- 0
[A89330] -->
<g id="node11" class="node"><title>0
[A89330]</title>
<polygon fill="none" stroke="black" points="245,-186 176,-186 176,-148 245,-148 245,-186"/>
<text text-anchor="middle" x="210.5" y="-170.8" font-family="Times,serif" font-size="14.00">0</text>
<text text-anchor="middle" x="210.5" y="-155.8" font-family="Times,serif" font-size="14.00">[A89330]</text>
</g>
<!-- +
[A89370]&#45;&gt;0
[A89330] -->
<g id="edge10" class="edge"><title>+
[A89370]&#45;&gt;0
[A89330]</title>
<path fill="none" stroke="black" d="M210.5,-211.573C210.5,-206.679 210.5,-201.59 210.5,-196.69"/>
<polygon fill="black" stroke="black" points="207,-211.831 210.5,-221.831 214,-211.831 207,-211.831"/>
<polygon fill="black" stroke="black" points="214,-196.413 210.5,-186.413 207,-196.413 214,-196.413"/>
</g>
<!-- 1
[A892F0] -->
<g id="node12" class="node"><title>1
[A892F0]</title>
<polygon fill="none" stroke="black" points="333.5,-186 263.5,-186 263.5,-148 333.5,-148 333.5,-186"/>
<text text-anchor="middle" x="298.5" y="-170.8" font-family="Times,serif" font-size="14.00">1</text>
<text text-anchor="middle" x="298.5" y="-155.8" font-family="Times,serif" font-size="14.00">[A892F0]</text>
</g>
<!-- +
[A89370]&#45;&gt;1
[A892F0] -->
<g id="edge11" class="edge"><title>+
[A89370]&#45;&gt;1
[A892F0]</title>
<path fill="none" stroke="black" d="M240.54,-215.422C249.516,-208.078 259.357,-200.026 268.341,-192.676"/>
<polygon fill="black" stroke="black" points="238.229,-212.79 232.706,-221.831 242.662,-218.208 238.229,-212.79"/>
<polygon fill="black" stroke="black" points="270.778,-195.204 276.301,-186.163 266.345,-189.786 270.778,-195.204"/>
</g>
</g>
</svg>
