<?xml version="1.0" encoding="UTF-8" standalone="no"?>
<!DOCTYPE svg PUBLIC "-//W3C//DTD SVG 1.1//EN"
 "http://www.w3.org/Graphics/SVG/1.1/DTD/svg11.dtd">
<!-- Generated by graphviz version 2.38.0 (20140413.2041)
 -->
<!-- Title: Tree Pages: 1 -->
<svg width="426pt" height="392pt"
 viewBox="0.00 0.00 426.00 392.00" xmlns="http://www.w3.org/2000/svg" xmlns:xlink="http://www.w3.org/1999/xlink">
<g id="graph0" class="graph" transform="scale(1 1) rotate(0) translate(4 388)">
<title>Tree</title>
<polygon fill="white" stroke="none" points="-4,4 -4,-388 422,-388 422,4 -4,4"/>
<!-- Человек -->
<g id="node1" class="node"><title>Человек</title>
<polygon fill="none" stroke="black" points="244.5,-384 179.5,-384 179.5,-348 244.5,-348 244.5,-384"/>
<text text-anchor="middle" x="212" y="-362.3" font-family="Times,serif" font-size="14.00">Человек</text>
</g>
<!-- Вождь -->
<g id="node2" class="node"><title>Вождь</title>
<polygon fill="none" stroke="black" points="196.5,-297 141.5,-297 141.5,-261 196.5,-261 196.5,-297"/>
<text text-anchor="middle" x="169" y="-275.3" font-family="Times,serif" font-size="14.00">Вождь</text>
</g>
<!-- Человек&#45;&gt;Вождь -->
<g id="edge1" class="edge"><title>Человек&#45;&gt;Вождь</title>
<path fill="none" stroke="black" d="M198.605,-338.522C193.383,-328.199 187.414,-316.399 182.21,-306.112"/>
<polygon fill="black" stroke="black" points="195.661,-340.456 203.298,-347.799 201.907,-337.296 195.661,-340.456"/>
<polygon fill="black" stroke="black" points="185.326,-304.519 177.689,-297.175 179.08,-307.679 185.326,-304.519"/>
<text text-anchor="middle" x="201" y="-318.8" font-family="Times,serif" font-size="14.00">да</text>
</g>
<!-- Гавкает -->
<g id="node11" class="node"><title>Гавкает</title>
<polygon fill="none" stroke="black" points="277,-297 215,-297 215,-261 277,-261 277,-297"/>
<text text-anchor="middle" x="246" y="-275.3" font-family="Times,serif" font-size="14.00">Гавкает</text>
</g>
<!-- Человек&#45;&gt;Гавкает -->
<g id="edge10" class="edge"><title>Человек&#45;&gt;Гавкает</title>
<path fill="none" stroke="black" d="M222.749,-338.129C226.768,-328.079 231.33,-316.675 235.342,-306.645"/>
<polygon fill="black" stroke="black" points="219.345,-337.214 218.88,-347.799 225.844,-339.814 219.345,-337.214"/>
<polygon fill="black" stroke="black" points="238.666,-307.76 239.13,-297.175 232.166,-305.16 238.666,-307.76"/>
<text text-anchor="middle" x="242" y="-318.8" font-family="Times,serif" font-size="14.00">нет</text>
</g>
<!-- Ленин -->
<g id="node3" class="node"><title>Ленин</title>
<polygon fill="none" stroke="black" points="127,-210 73,-210 73,-174 127,-174 127,-210"/>
<text text-anchor="middle" x="100" y="-188.3" font-family="Times,serif" font-size="14.00">Ленин</text>
</g>
<!-- Вождь&#45;&gt;Ленин -->
<g id="edge2" class="edge"><title>Вождь&#45;&gt;Ленин</title>
<path fill="none" stroke="black" d="M148.457,-252.694C139.583,-241.762 129.227,-229.004 120.372,-218.096"/>
<polygon fill="black" stroke="black" points="146.017,-255.241 155.037,-260.799 151.452,-250.829 146.017,-255.241"/>
<polygon fill="black" stroke="black" points="122.962,-215.734 113.942,-210.175 117.528,-220.145 122.962,-215.734"/>
<text text-anchor="middle" x="146" y="-231.8" font-family="Times,serif" font-size="14.00">да</text>
</g>
<!-- Жив -->
<g id="node4" class="node"><title>Жив</title>
<polygon fill="none" stroke="black" points="199,-210 145,-210 145,-174 199,-174 199,-210"/>
<text text-anchor="middle" x="172" y="-188.3" font-family="Times,serif" font-size="14.00">Жив</text>
</g>
<!-- Вождь&#45;&gt;Жив -->
<g id="edge3" class="edge"><title>Вождь&#45;&gt;Жив</title>
<path fill="none" stroke="black" d="M169.962,-250.734C170.304,-241.06 170.688,-230.173 171.03,-220.481"/>
<polygon fill="black" stroke="black" points="166.462,-250.682 169.607,-260.799 173.458,-250.929 166.462,-250.682"/>
<polygon fill="black" stroke="black" points="174.539,-220.293 171.394,-210.175 167.543,-220.046 174.539,-220.293"/>
<text text-anchor="middle" x="181" y="-231.8" font-family="Times,serif" font-size="14.00">нет</text>
</g>
<!-- Он китаец -->
<g id="node5" class="node"><title>Он китаец</title>
<polygon fill="none" stroke="black" points="162.5,-123 85.5,-123 85.5,-87 162.5,-87 162.5,-123"/>
<text text-anchor="middle" x="124" y="-101.3" font-family="Times,serif" font-size="14.00">Он китаец</text>
</g>
<!-- Жив&#45;&gt;Он китаец -->
<g id="edge4" class="edge"><title>Жив&#45;&gt;Он китаец</title>
<path fill="none" stroke="black" d="M157.269,-164.914C151.345,-154.424 144.531,-142.356 138.618,-131.886"/>
<polygon fill="black" stroke="black" points="154.322,-166.812 162.286,-173.799 160.417,-163.37 154.322,-166.812"/>
<polygon fill="black" stroke="black" points="141.664,-130.162 133.699,-123.175 135.569,-133.604 141.664,-130.162"/>
<text text-anchor="middle" x="158" y="-144.8" font-family="Times,serif" font-size="14.00">да</text>
</g>
<!-- Репер -->
<g id="node8" class="node"><title>Репер</title>
<polygon fill="none" stroke="black" points="235,-123 181,-123 181,-87 235,-87 235,-123"/>
<text text-anchor="middle" x="208" y="-101.3" font-family="Times,serif" font-size="14.00">Репер</text>
</g>
<!-- Жив&#45;&gt;Репер -->
<g id="edge7" class="edge"><title>Жив&#45;&gt;Репер</title>
<path fill="none" stroke="black" d="M183.214,-164.522C187.542,-154.305 192.482,-142.64 196.807,-132.427"/>
<polygon fill="black" stroke="black" points="179.962,-163.226 179.285,-173.799 186.408,-165.956 179.962,-163.226"/>
<polygon fill="black" stroke="black" points="200.049,-133.749 200.726,-123.175 193.603,-131.019 200.049,-133.749"/>
<text text-anchor="middle" x="203" y="-144.8" font-family="Times,serif" font-size="14.00">нет</text>
</g>
<!-- Джеки Чан -->
<g id="node6" class="node"><title>Джеки Чан</title>
<polygon fill="none" stroke="black" points="82,-36 0,-36 0,-0 82,-0 82,-36"/>
<text text-anchor="middle" x="41" y="-14.3" font-family="Times,serif" font-size="14.00">Джеки Чан</text>
</g>
<!-- Он китаец&#45;&gt;Джеки Чан -->
<g id="edge5" class="edge"><title>Он китаец&#45;&gt;Джеки Чан</title>
<path fill="none" stroke="black" d="M100.044,-79.4671C89.0447,-68.2024 76.0296,-54.8737 65.0219,-43.6007"/>
<polygon fill="black" stroke="black" points="97.7131,-82.0895 107.204,-86.799 102.721,-77.199 97.7131,-82.0895"/>
<polygon fill="black" stroke="black" points="67.2619,-40.885 57.7713,-36.1754 62.2536,-45.7755 67.2619,-40.885"/>
<text text-anchor="middle" x="95" y="-57.8" font-family="Times,serif" font-size="14.00">да</text>
</g>
<!-- Цой -->
<g id="node7" class="node"><title>Цой</title>
<polygon fill="none" stroke="black" points="154,-36 100,-36 100,-0 154,-0 154,-36"/>
<text text-anchor="middle" x="127" y="-14.3" font-family="Times,serif" font-size="14.00">Цой</text>
</g>
<!-- Он китаец&#45;&gt;Цой -->
<g id="edge6" class="edge"><title>Он китаец&#45;&gt;Цой</title>
<path fill="none" stroke="black" d="M124.962,-76.7339C125.304,-67.0601 125.688,-56.1727 126.03,-46.4811"/>
<polygon fill="black" stroke="black" points="121.462,-76.6817 124.607,-86.799 128.458,-76.9287 121.462,-76.6817"/>
<polygon fill="black" stroke="black" points="129.539,-46.2927 126.394,-36.1754 122.543,-46.0457 129.539,-46.2927"/>
<text text-anchor="middle" x="136" y="-57.8" font-family="Times,serif" font-size="14.00">нет</text>
</g>
<!-- Гуф -->
<g id="node9" class="node"><title>Гуф</title>
<polygon fill="none" stroke="black" points="229,-36 175,-36 175,-0 229,-0 229,-36"/>
<text text-anchor="middle" x="202" y="-14.3" font-family="Times,serif" font-size="14.00">Гуф</text>
</g>
<!-- Репер&#45;&gt;Гуф -->
<g id="edge8" class="edge"><title>Репер&#45;&gt;Гуф</title>
<path fill="none" stroke="black" d="M206.075,-76.7339C205.385,-66.9561 204.607,-55.9384 203.918,-46.1689"/>
<polygon fill="black" stroke="black" points="202.59,-77.0703 206.786,-86.799 209.573,-76.5773 202.59,-77.0703"/>
<polygon fill="black" stroke="black" points="207.408,-45.9041 203.212,-36.1754 200.425,-46.3971 207.408,-45.9041"/>
<text text-anchor="middle" x="213" y="-57.8" font-family="Times,serif" font-size="14.00">да</text>
</g>
<!-- Пушкин -->
<g id="node10" class="node"><title>Пушкин</title>
<polygon fill="none" stroke="black" points="311,-36 247,-36 247,-0 311,-0 311,-36"/>
<text text-anchor="middle" x="279" y="-14.3" font-family="Times,serif" font-size="14.00">Пушкин</text>
</g>
<!-- Репер&#45;&gt;Пушкин -->
<g id="edge9" class="edge"><title>Репер&#45;&gt;Пушкин</title>
<path fill="none" stroke="black" d="M228.815,-79.0811C238.085,-67.9824 248.978,-54.9418 258.242,-43.851"/>
<polygon fill="black" stroke="black" points="226.092,-76.8804 222.368,-86.799 231.465,-81.3679 226.092,-76.8804"/>
<polygon fill="black" stroke="black" points="260.929,-46.094 264.653,-36.1754 255.557,-41.6065 260.929,-46.094"/>
<text text-anchor="middle" x="258" y="-57.8" font-family="Times,serif" font-size="14.00">нет</text>
</g>
<!-- Пес -->
<g id="node12" class="node"><title>Пес</title>
<polygon fill="none" stroke="black" points="272,-210 218,-210 218,-174 272,-174 272,-210"/>
<text text-anchor="middle" x="245" y="-188.3" font-family="Times,serif" font-size="14.00">Пес</text>
</g>
<!-- Гавкает&#45;&gt;Пес -->
<g id="edge11" class="edge"><title>Гавкает&#45;&gt;Пес</title>
<path fill="none" stroke="black" d="M245.679,-250.734C245.565,-241.06 245.437,-230.173 245.323,-220.481"/>
<polygon fill="black" stroke="black" points="242.18,-250.841 245.798,-260.799 249.18,-250.758 242.18,-250.841"/>
<polygon fill="black" stroke="black" points="248.82,-220.134 245.202,-210.175 241.82,-220.216 248.82,-220.134"/>
<text text-anchor="middle" x="253" y="-231.8" font-family="Times,serif" font-size="14.00">да</text>
</g>
<!-- Зеленая -->
<g id="node13" class="node"><title>Зеленая</title>
<polygon fill="none" stroke="black" points="352,-210 290,-210 290,-174 352,-174 352,-210"/>
<text text-anchor="middle" x="321" y="-188.3" font-family="Times,serif" font-size="14.00">Зеленая</text>
</g>
<!-- Гавкает&#45;&gt;Зеленая -->
<g id="edge12" class="edge"><title>Гавкает&#45;&gt;Зеленая</title>
<path fill="none" stroke="black" d="M267.987,-253.081C277.78,-241.982 289.287,-228.942 299.073,-217.851"/>
<polygon fill="black" stroke="black" points="265.169,-250.985 261.177,-260.799 270.418,-255.616 265.169,-250.985"/>
<polygon fill="black" stroke="black" points="301.853,-219.99 305.845,-210.175 296.605,-215.358 301.853,-219.99"/>
<text text-anchor="middle" x="298" y="-231.8" font-family="Times,serif" font-size="14.00">нет</text>
</g>
<!-- Лягушка -->
<g id="node14" class="node"><title>Лягушка</title>
<polygon fill="none" stroke="black" points="346,-123 278,-123 278,-87 346,-87 346,-123"/>
<text text-anchor="middle" x="312" y="-101.3" font-family="Times,serif" font-size="14.00">Лягушка</text>
</g>
<!-- Зеленая&#45;&gt;Лягушка -->
<g id="edge13" class="edge"><title>Зеленая&#45;&gt;Лягушка</title>
<path fill="none" stroke="black" d="M318.113,-163.734C317.078,-153.956 315.911,-142.938 314.877,-133.169"/>
<polygon fill="black" stroke="black" points="314.645,-164.223 319.179,-173.799 321.606,-163.486 314.645,-164.223"/>
<polygon fill="black" stroke="black" points="318.352,-132.751 313.819,-123.175 311.391,-133.488 318.352,-132.751"/>
<text text-anchor="middle" x="325" y="-144.8" font-family="Times,serif" font-size="14.00">да</text>
</g>
<!-- Кот -->
<g id="node15" class="node"><title>Кот</title>
<polygon fill="none" stroke="black" points="418,-123 364,-123 364,-87 418,-87 418,-123"/>
<text text-anchor="middle" x="391" y="-101.3" font-family="Times,serif" font-size="14.00">Кот</text>
</g>
<!-- Зеленая&#45;&gt;Кот -->
<g id="edge14" class="edge"><title>Зеленая&#45;&gt;Кот</title>
<path fill="none" stroke="black" d="M341.841,-165.694C350.843,-154.762 361.349,-142.004 370.333,-131.096"/>
<polygon fill="black" stroke="black" points="338.821,-163.855 335.166,-173.799 344.224,-168.305 338.821,-163.855"/>
<polygon fill="black" stroke="black" points="373.2,-133.12 376.856,-123.175 367.797,-128.67 373.2,-133.12"/>
<text text-anchor="middle" x="370" y="-144.8" font-family="Times,serif" font-size="14.00">нет</text>
</g>
</g>
</svg>
