<?xml version="1.0" encoding="UTF-8" standalone="no"?>
<!DOCTYPE svg PUBLIC "-//W3C//DTD SVG 1.1//EN"
 "http://www.w3.org/Graphics/SVG/1.1/DTD/svg11.dtd">
<!-- Generated by graphviz version 2.38.0 (20140413.2041)
 -->
<!-- Title: Tree Pages: 1 -->
<svg width="279pt" height="305pt"
 viewBox="0.00 0.00 279.00 305.00" xmlns="http://www.w3.org/2000/svg" xmlns:xlink="http://www.w3.org/1999/xlink">
<g id="graph0" class="graph" transform="scale(1 1) rotate(0) translate(4 301)">
<title>Tree</title>
<polygon fill="white" stroke="none" points="-4,4 -4,-301 275,-301 275,4 -4,4"/>
<!-- Человек -->
<g id="node1" class="node"><title>Человек</title>
<polygon fill="none" stroke="black" points="172.5,-297 107.5,-297 107.5,-261 172.5,-261 172.5,-297"/>
<text text-anchor="middle" x="140" y="-275.3" font-family="Times,serif" font-size="14.00">Человек</text>
</g>
<!-- Вождь -->
<g id="node2" class="node"><title>Вождь</title>
<polygon fill="none" stroke="black" points="124.5,-210 69.5,-210 69.5,-174 124.5,-174 124.5,-210"/>
<text text-anchor="middle" x="97" y="-188.3" font-family="Times,serif" font-size="14.00">Вождь</text>
</g>
<!-- Человек&#45;&gt;Вождь -->
<g id="edge1" class="edge"><title>Человек&#45;&gt;Вождь</title>
<path fill="none" stroke="black" d="M126.605,-251.522C121.383,-241.199 115.414,-229.399 110.21,-219.112"/>
<polygon fill="black" stroke="black" points="123.661,-253.456 131.298,-260.799 129.907,-250.296 123.661,-253.456"/>
<polygon fill="black" stroke="black" points="113.326,-217.519 105.689,-210.175 107.08,-220.679 113.326,-217.519"/>
<text text-anchor="middle" x="129" y="-231.8" font-family="Times,serif" font-size="14.00">да</text>
</g>
<!-- Гавкает -->
<g id="node7" class="node"><title>Гавкает</title>
<polygon fill="none" stroke="black" points="205,-210 143,-210 143,-174 205,-174 205,-210"/>
<text text-anchor="middle" x="174" y="-188.3" font-family="Times,serif" font-size="14.00">Гавкает</text>
</g>
<!-- Человек&#45;&gt;Гавкает -->
<g id="edge6" class="edge"><title>Человек&#45;&gt;Гавкает</title>
<path fill="none" stroke="black" d="M150.749,-251.129C154.768,-241.079 159.33,-229.675 163.342,-219.645"/>
<polygon fill="black" stroke="black" points="147.345,-250.214 146.88,-260.799 153.844,-252.814 147.345,-250.214"/>
<polygon fill="black" stroke="black" points="166.666,-220.76 167.13,-210.175 160.166,-218.16 166.666,-220.76"/>
<text text-anchor="middle" x="170" y="-231.8" font-family="Times,serif" font-size="14.00">нет</text>
</g>
<!-- Ленин -->
<g id="node3" class="node"><title>Ленин</title>
<polygon fill="none" stroke="black" points="54,-123 0,-123 0,-87 54,-87 54,-123"/>
<text text-anchor="middle" x="27" y="-101.3" font-family="Times,serif" font-size="14.00">Ленин</text>
</g>
<!-- Вождь&#45;&gt;Ленин -->
<g id="edge2" class="edge"><title>Вождь&#45;&gt;Ленин</title>
<path fill="none" stroke="black" d="M76.1595,-165.694C67.1567,-154.762 56.6505,-142.004 47.6672,-131.096"/>
<polygon fill="black" stroke="black" points="73.7756,-168.305 82.8345,-173.799 79.1791,-163.855 73.7756,-168.305"/>
<polygon fill="black" stroke="black" points="50.2033,-128.67 41.1445,-123.175 44.7998,-133.12 50.2033,-128.67"/>
<text text-anchor="middle" x="74" y="-144.8" font-family="Times,serif" font-size="14.00">да</text>
</g>
<!-- Жив -->
<g id="node4" class="node"><title>Жив</title>
<polygon fill="none" stroke="black" points="126,-123 72,-123 72,-87 126,-87 126,-123"/>
<text text-anchor="middle" x="99" y="-101.3" font-family="Times,serif" font-size="14.00">Жив</text>
</g>
<!-- Вождь&#45;&gt;Жив -->
<g id="edge3" class="edge"><title>Вождь&#45;&gt;Жив</title>
<path fill="none" stroke="black" d="M97.6416,-163.734C97.8692,-154.06 98.1253,-143.173 98.3534,-133.481"/>
<polygon fill="black" stroke="black" points="94.141,-163.719 97.4047,-173.799 101.139,-163.884 94.141,-163.719"/>
<polygon fill="black" stroke="black" points="101.86,-133.255 98.5959,-123.175 94.8615,-133.09 101.86,-133.255"/>
<text text-anchor="middle" x="109" y="-144.8" font-family="Times,serif" font-size="14.00">нет</text>
</g>
<!-- Цой -->
<g id="node5" class="node"><title>Цой</title>
<polygon fill="none" stroke="black" points="87,-36 33,-36 33,-0 87,-0 87,-36"/>
<text text-anchor="middle" x="60" y="-14.3" font-family="Times,serif" font-size="14.00">Цой</text>
</g>
<!-- Жив&#45;&gt;Цой -->
<g id="edge4" class="edge"><title>Жив&#45;&gt;Цой</title>
<path fill="none" stroke="black" d="M86.8513,-77.5221C82.1633,-67.3047 76.8113,-55.64 72.1255,-45.4273"/>
<polygon fill="black" stroke="black" points="83.7563,-79.1696 91.1078,-86.799 90.1186,-76.2504 83.7563,-79.1696"/>
<polygon fill="black" stroke="black" points="75.2319,-43.8048 67.8805,-36.1754 68.8696,-46.724 75.2319,-43.8048"/>
<text text-anchor="middle" x="89" y="-57.8" font-family="Times,serif" font-size="14.00">да</text>
</g>
<!-- Пушкин -->
<g id="node6" class="node"><title>Пушкин</title>
<polygon fill="none" stroke="black" points="169,-36 105,-36 105,-0 169,-0 169,-36"/>
<text text-anchor="middle" x="137" y="-14.3" font-family="Times,serif" font-size="14.00">Пушкин</text>
</g>
<!-- Жив&#45;&gt;Пушкин -->
<g id="edge5" class="edge"><title>Жив&#45;&gt;Пушкин</title>
<path fill="none" stroke="black" d="M110.837,-77.5221C115.405,-67.3047 120.62,-55.64 125.185,-45.4273"/>
<polygon fill="black" stroke="black" points="107.576,-76.2413 106.69,-86.799 113.966,-79.0982 107.576,-76.2413"/>
<polygon fill="black" stroke="black" points="128.435,-46.7332 129.322,-36.1754 122.045,-43.8762 128.435,-46.7332"/>
<text text-anchor="middle" x="131" y="-57.8" font-family="Times,serif" font-size="14.00">нет</text>
</g>
<!-- Пес -->
<g id="node8" class="node"><title>Пес</title>
<polygon fill="none" stroke="black" points="199,-123 145,-123 145,-87 199,-87 199,-123"/>
<text text-anchor="middle" x="172" y="-101.3" font-family="Times,serif" font-size="14.00">Пес</text>
</g>
<!-- Гавкает&#45;&gt;Пес -->
<g id="edge7" class="edge"><title>Гавкает&#45;&gt;Пес</title>
<path fill="none" stroke="black" d="M173.358,-163.734C173.131,-154.06 172.875,-143.173 172.647,-133.481"/>
<polygon fill="black" stroke="black" points="169.861,-163.884 173.595,-173.799 176.859,-163.719 169.861,-163.884"/>
<polygon fill="black" stroke="black" points="176.138,-133.09 172.404,-123.175 169.14,-133.255 176.138,-133.09"/>
<text text-anchor="middle" x="181" y="-144.8" font-family="Times,serif" font-size="14.00">да</text>
</g>
<!-- Кот -->
<g id="node9" class="node"><title>Кот</title>
<polygon fill="none" stroke="black" points="271,-123 217,-123 217,-87 271,-87 271,-123"/>
<text text-anchor="middle" x="244" y="-101.3" font-family="Times,serif" font-size="14.00">Кот</text>
</g>
<!-- Гавкает&#45;&gt;Кот -->
<g id="edge8" class="edge"><title>Гавкает&#45;&gt;Кот</title>
<path fill="none" stroke="black" d="M194.841,-165.694C203.843,-154.762 214.349,-142.004 223.333,-131.096"/>
<polygon fill="black" stroke="black" points="191.821,-163.855 188.166,-173.799 197.224,-168.305 191.821,-163.855"/>
<polygon fill="black" stroke="black" points="226.2,-133.12 229.856,-123.175 220.797,-128.67 226.2,-133.12"/>
<text text-anchor="middle" x="224" y="-144.8" font-family="Times,serif" font-size="14.00">нет</text>
</g>
</g>
</svg>
