<?xml version="1.0" encoding="UTF-8" standalone="no"?>
<!DOCTYPE svg PUBLIC "-//W3C//DTD SVG 1.1//EN"
 "http://www.w3.org/Graphics/SVG/1.1/DTD/svg11.dtd">
<!-- Generated by graphviz version 2.38.0 (20140413.2041)
 -->
<!-- Title: Tree Pages: 1 -->
<svg width="180pt" height="392pt"
 viewBox="0.00 0.00 180.00 392.00" xmlns="http://www.w3.org/2000/svg" xmlns:xlink="http://www.w3.org/1999/xlink">
<g id="graph0" class="graph" transform="scale(1 1) rotate(0) translate(4 388)">
<title>Tree</title>
<polygon fill="white" stroke="none" points="-4,4 -4,-388 176,-388 176,4 -4,4"/>
<!-- Человек -->
<g id="node1" class="node"><title>Человек</title>
<polygon fill="none" stroke="black" points="134.5,-384 69.5,-384 69.5,-348 134.5,-348 134.5,-384"/>
<text text-anchor="middle" x="102" y="-362.3" font-family="Times,serif" font-size="14.00">Человек</text>
</g>
<!-- Вождь -->
<g id="node2" class="node"><title>Вождь</title>
<polygon fill="none" stroke="black" points="75.5,-297 20.5,-297 20.5,-261 75.5,-261 75.5,-297"/>
<text text-anchor="middle" x="48" y="-275.3" font-family="Times,serif" font-size="14.00">Вождь</text>
</g>
<!-- Человек&#45;&gt;Вождь -->
<g id="edge1" class="edge"><title>Человек&#45;&gt;Вождь</title>
<path fill="none" stroke="black" d="M85.6759,-339.305C78.9049,-328.647 71.0663,-316.308 64.2981,-305.654"/>
<polygon fill="black" stroke="black" points="82.7557,-341.235 91.0723,-347.799 88.6642,-337.481 82.7557,-341.235"/>
<polygon fill="black" stroke="black" points="67.2281,-303.739 58.9115,-297.175 61.3196,-307.493 67.2281,-303.739"/>
<text text-anchor="middle" x="86" y="-318.8" font-family="Times,serif" font-size="14.00">да</text>
</g>
<!-- Кот -->
<g id="node9" class="node"><title>Кот</title>
<polygon fill="none" stroke="black" points="148,-297 94,-297 94,-261 148,-261 148,-297"/>
<text text-anchor="middle" x="121" y="-275.3" font-family="Times,serif" font-size="14.00">Кот</text>
</g>
<!-- Человек&#45;&gt;Кот -->
<g id="edge8" class="edge"><title>Человек&#45;&gt;Кот</title>
<path fill="none" stroke="black" d="M108.095,-337.734C110.28,-327.956 112.743,-316.938 114.927,-307.169"/>
<polygon fill="black" stroke="black" points="104.611,-337.276 105.845,-347.799 111.442,-338.803 104.611,-337.276"/>
<polygon fill="black" stroke="black" points="118.395,-307.698 117.161,-297.175 111.564,-306.171 118.395,-307.698"/>
<text text-anchor="middle" x="123" y="-318.8" font-family="Times,serif" font-size="14.00">нет</text>
</g>
<!-- Ленин -->
<g id="node3" class="node"><title>Ленин</title>
<polygon fill="none" stroke="black" points="57,-210 3,-210 3,-174 57,-174 57,-210"/>
<text text-anchor="middle" x="30" y="-188.3" font-family="Times,serif" font-size="14.00">Ленин</text>
</g>
<!-- Вождь&#45;&gt;Ленин -->
<g id="edge2" class="edge"><title>Вождь&#45;&gt;Ленин</title>
<path fill="none" stroke="black" d="M42.226,-250.734C40.1554,-240.956 37.8223,-229.938 35.7534,-220.169"/>
<polygon fill="black" stroke="black" points="38.8616,-251.741 44.3574,-260.799 45.7097,-250.291 38.8616,-251.741"/>
<polygon fill="black" stroke="black" points="39.133,-219.233 33.6372,-210.175 32.2849,-220.684 39.133,-219.233"/>
<text text-anchor="middle" x="48" y="-231.8" font-family="Times,serif" font-size="14.00">да</text>
</g>
<!-- Жив -->
<g id="node4" class="node"><title>Жив</title>
<polygon fill="none" stroke="black" points="129,-210 75,-210 75,-174 129,-174 129,-210"/>
<text text-anchor="middle" x="102" y="-188.3" font-family="Times,serif" font-size="14.00">Жив</text>
</g>
<!-- Вождь&#45;&gt;Жив -->
<g id="edge3" class="edge"><title>Вождь&#45;&gt;Жив</title>
<path fill="none" stroke="black" d="M64.3241,-252.305C71.0951,-241.647 78.9337,-229.308 85.7019,-218.654"/>
<polygon fill="black" stroke="black" points="61.3358,-250.481 58.9277,-260.799 67.2443,-254.235 61.3358,-250.481"/>
<polygon fill="black" stroke="black" points="88.6804,-220.493 91.0885,-210.175 82.7719,-216.739 88.6804,-220.493"/>
<text text-anchor="middle" x="89" y="-231.8" font-family="Times,serif" font-size="14.00">нет</text>
</g>
<!-- Негр -->
<g id="node5" class="node"><title>Негр</title>
<polygon fill="none" stroke="black" points="90,-123 36,-123 36,-87 90,-87 90,-123"/>
<text text-anchor="middle" x="63" y="-101.3" font-family="Times,serif" font-size="14.00">Негр</text>
</g>
<!-- Жив&#45;&gt;Негр -->
<g id="edge4" class="edge"><title>Жив&#45;&gt;Негр</title>
<path fill="none" stroke="black" d="M89.8513,-164.522C85.1633,-154.305 79.8113,-142.64 75.1255,-132.427"/>
<polygon fill="black" stroke="black" points="86.7563,-166.17 94.1078,-173.799 93.1186,-163.25 86.7563,-166.17"/>
<polygon fill="black" stroke="black" points="78.2319,-130.805 70.8805,-123.175 71.8696,-133.724 78.2319,-130.805"/>
<text text-anchor="middle" x="92" y="-144.8" font-family="Times,serif" font-size="14.00">да</text>
</g>
<!-- Пушкин -->
<g id="node8" class="node"><title>Пушкин</title>
<polygon fill="none" stroke="black" points="172,-123 108,-123 108,-87 172,-87 172,-123"/>
<text text-anchor="middle" x="140" y="-101.3" font-family="Times,serif" font-size="14.00">Пушкин</text>
</g>
<!-- Жив&#45;&gt;Пушкин -->
<g id="edge7" class="edge"><title>Жив&#45;&gt;Пушкин</title>
<path fill="none" stroke="black" d="M113.837,-164.522C118.405,-154.305 123.62,-142.64 128.185,-132.427"/>
<polygon fill="black" stroke="black" points="110.576,-163.241 109.69,-173.799 116.966,-166.098 110.576,-163.241"/>
<polygon fill="black" stroke="black" points="131.435,-133.733 132.322,-123.175 125.045,-130.876 131.435,-133.733"/>
<text text-anchor="middle" x="133" y="-144.8" font-family="Times,serif" font-size="14.00">нет</text>
</g>
<!-- Обама -->
<g id="node6" class="node"><title>Обама</title>
<polygon fill="none" stroke="black" points="54,-36 0,-36 0,-0 54,-0 54,-36"/>
<text text-anchor="middle" x="27" y="-14.3" font-family="Times,serif" font-size="14.00">Обама</text>
</g>
<!-- Негр&#45;&gt;Обама -->
<g id="edge5" class="edge"><title>Негр&#45;&gt;Обама</title>
<path fill="none" stroke="black" d="M51.7858,-77.5221C47.4585,-67.3047 42.5181,-55.64 38.1928,-45.4273"/>
<polygon fill="black" stroke="black" points="48.592,-78.9558 55.7149,-86.799 55.0377,-76.2258 48.592,-78.9558"/>
<polygon fill="black" stroke="black" points="41.3972,-44.0186 34.2743,-36.1754 34.9514,-46.7486 41.3972,-44.0186"/>
<text text-anchor="middle" x="55" y="-57.8" font-family="Times,serif" font-size="14.00">да</text>
</g>
<!-- Цой -->
<g id="node7" class="node"><title>Цой</title>
<polygon fill="none" stroke="black" points="126,-36 72,-36 72,-0 126,-0 126,-36"/>
<text text-anchor="middle" x="99" y="-14.3" font-family="Times,serif" font-size="14.00">Цой</text>
</g>
<!-- Негр&#45;&gt;Цой -->
<g id="edge6" class="edge"><title>Негр&#45;&gt;Цой</title>
<path fill="none" stroke="black" d="M74.2142,-77.5221C78.5415,-67.3047 83.4819,-55.64 87.8072,-45.4273"/>
<polygon fill="black" stroke="black" points="70.9623,-76.2258 70.2851,-86.799 77.408,-78.9558 70.9623,-76.2258"/>
<polygon fill="black" stroke="black" points="91.0486,-46.7486 91.7257,-36.1754 84.6028,-44.0186 91.0486,-46.7486"/>
<text text-anchor="middle" x="94" y="-57.8" font-family="Times,serif" font-size="14.00">нет</text>
</g>
</g>
</svg>
