<?xml version="1.0" encoding="UTF-8" standalone="no"?>
<!DOCTYPE svg PUBLIC "-//W3C//DTD SVG 1.1//EN"
 "http://www.w3.org/Graphics/SVG/1.1/DTD/svg11.dtd">
<!-- Generated by graphviz version 2.38.0 (20140413.2041)
 -->
<!-- Title: Tree Pages: 1 -->
<svg width="285pt" height="392pt"
 viewBox="0.00 0.00 285.00 392.00" xmlns="http://www.w3.org/2000/svg" xmlns:xlink="http://www.w3.org/1999/xlink">
<g id="graph0" class="graph" transform="scale(1 1) rotate(0) translate(4 388)">
<title>Tree</title>
<polygon fill="white" stroke="none" points="-4,4 -4,-388 281,-388 281,4 -4,4"/>
<!-- Человек -->
<g id="node1" class="node"><title>Человек</title>
<polygon fill="none" stroke="black" points="175.5,-384 110.5,-384 110.5,-348 175.5,-348 175.5,-384"/>
<text text-anchor="middle" x="143" y="-362.3" font-family="Times,serif" font-size="14.00">Человек</text>
</g>
<!-- Вождь -->
<g id="node2" class="node"><title>Вождь</title>
<polygon fill="none" stroke="black" points="127.5,-297 72.5,-297 72.5,-261 127.5,-261 127.5,-297"/>
<text text-anchor="middle" x="100" y="-275.3" font-family="Times,serif" font-size="14.00">Вождь</text>
</g>
<!-- Человек&#45;&gt;Вождь -->
<g id="edge1" class="edge"><title>Человек&#45;&gt;Вождь</title>
<path fill="none" stroke="black" d="M129.605,-338.522C124.383,-328.199 118.414,-316.399 113.21,-306.112"/>
<polygon fill="black" stroke="black" points="126.661,-340.456 134.298,-347.799 132.907,-337.296 126.661,-340.456"/>
<polygon fill="black" stroke="black" points="116.326,-304.519 108.689,-297.175 110.08,-307.679 116.326,-304.519"/>
<text text-anchor="middle" x="132" y="-318.8" font-family="Times,serif" font-size="14.00">да</text>
</g>
<!-- Гавкает -->
<g id="node9" class="node"><title>Гавкает</title>
<polygon fill="none" stroke="black" points="208,-297 146,-297 146,-261 208,-261 208,-297"/>
<text text-anchor="middle" x="177" y="-275.3" font-family="Times,serif" font-size="14.00">Гавкает</text>
</g>
<!-- Человек&#45;&gt;Гавкает -->
<g id="edge8" class="edge"><title>Человек&#45;&gt;Гавкает</title>
<path fill="none" stroke="black" d="M153.749,-338.129C157.768,-328.079 162.33,-316.675 166.342,-306.645"/>
<polygon fill="black" stroke="black" points="150.345,-337.214 149.88,-347.799 156.844,-339.814 150.345,-337.214"/>
<polygon fill="black" stroke="black" points="169.666,-307.76 170.13,-297.175 163.166,-305.16 169.666,-307.76"/>
<text text-anchor="middle" x="173" y="-318.8" font-family="Times,serif" font-size="14.00">нет</text>
</g>
<!-- Ленин -->
<g id="node3" class="node"><title>Ленин</title>
<polygon fill="none" stroke="black" points="57,-210 3,-210 3,-174 57,-174 57,-210"/>
<text text-anchor="middle" x="30" y="-188.3" font-family="Times,serif" font-size="14.00">Ленин</text>
</g>
<!-- Вождь&#45;&gt;Ленин -->
<g id="edge2" class="edge"><title>Вождь&#45;&gt;Ленин</title>
<path fill="none" stroke="black" d="M79.1595,-252.694C70.1567,-241.762 59.6505,-229.004 50.6672,-218.096"/>
<polygon fill="black" stroke="black" points="76.7756,-255.305 85.8345,-260.799 82.1791,-250.855 76.7756,-255.305"/>
<polygon fill="black" stroke="black" points="53.2033,-215.67 44.1445,-210.175 47.7998,-220.12 53.2033,-215.67"/>
<text text-anchor="middle" x="77" y="-231.8" font-family="Times,serif" font-size="14.00">да</text>
</g>
<!-- Жив -->
<g id="node4" class="node"><title>Жив</title>
<polygon fill="none" stroke="black" points="129,-210 75,-210 75,-174 129,-174 129,-210"/>
<text text-anchor="middle" x="102" y="-188.3" font-family="Times,serif" font-size="14.00">Жив</text>
</g>
<!-- Вождь&#45;&gt;Жив -->
<g id="edge3" class="edge"><title>Вождь&#45;&gt;Жив</title>
<path fill="none" stroke="black" d="M100.642,-250.734C100.869,-241.06 101.125,-230.173 101.353,-220.481"/>
<polygon fill="black" stroke="black" points="97.141,-250.719 100.405,-260.799 104.139,-250.884 97.141,-250.719"/>
<polygon fill="black" stroke="black" points="104.86,-220.255 101.596,-210.175 97.8615,-220.09 104.86,-220.255"/>
<text text-anchor="middle" x="112" y="-231.8" font-family="Times,serif" font-size="14.00">нет</text>
</g>
<!-- Негр -->
<g id="node5" class="node"><title>Негр</title>
<polygon fill="none" stroke="black" points="90,-123 36,-123 36,-87 90,-87 90,-123"/>
<text text-anchor="middle" x="63" y="-101.3" font-family="Times,serif" font-size="14.00">Негр</text>
</g>
<!-- Жив&#45;&gt;Негр -->
<g id="edge4" class="edge"><title>Жив&#45;&gt;Негр</title>
<path fill="none" stroke="black" d="M89.8513,-164.522C85.1633,-154.305 79.8113,-142.64 75.1255,-132.427"/>
<polygon fill="black" stroke="black" points="86.7563,-166.17 94.1078,-173.799 93.1186,-163.25 86.7563,-166.17"/>
<polygon fill="black" stroke="black" points="78.2319,-130.805 70.8805,-123.175 71.8696,-133.724 78.2319,-130.805"/>
<text text-anchor="middle" x="92" y="-144.8" font-family="Times,serif" font-size="14.00">да</text>
</g>
<!-- Пушкин -->
<g id="node8" class="node"><title>Пушкин</title>
<polygon fill="none" stroke="black" points="172,-123 108,-123 108,-87 172,-87 172,-123"/>
<text text-anchor="middle" x="140" y="-101.3" font-family="Times,serif" font-size="14.00">Пушкин</text>
</g>
<!-- Жив&#45;&gt;Пушкин -->
<g id="edge7" class="edge"><title>Жив&#45;&gt;Пушкин</title>
<path fill="none" stroke="black" d="M113.837,-164.522C118.405,-154.305 123.62,-142.64 128.185,-132.427"/>
<polygon fill="black" stroke="black" points="110.576,-163.241 109.69,-173.799 116.966,-166.098 110.576,-163.241"/>
<polygon fill="black" stroke="black" points="131.435,-133.733 132.322,-123.175 125.045,-130.876 131.435,-133.733"/>
<text text-anchor="middle" x="134" y="-144.8" font-family="Times,serif" font-size="14.00">нет</text>
</g>
<!-- Обама -->
<g id="node6" class="node"><title>Обама</title>
<polygon fill="none" stroke="black" points="54,-36 0,-36 0,-0 54,-0 54,-36"/>
<text text-anchor="middle" x="27" y="-14.3" font-family="Times,serif" font-size="14.00">Обама</text>
</g>
<!-- Негр&#45;&gt;Обама -->
<g id="edge5" class="edge"><title>Негр&#45;&gt;Обама</title>
<path fill="none" stroke="black" d="M51.7858,-77.5221C47.4585,-67.3047 42.5181,-55.64 38.1928,-45.4273"/>
<polygon fill="black" stroke="black" points="48.592,-78.9558 55.7149,-86.799 55.0377,-76.2258 48.592,-78.9558"/>
<polygon fill="black" stroke="black" points="41.3972,-44.0186 34.2743,-36.1754 34.9514,-46.7486 41.3972,-44.0186"/>
<text text-anchor="middle" x="55" y="-57.8" font-family="Times,serif" font-size="14.00">да</text>
</g>
<!-- Цой -->
<g id="node7" class="node"><title>Цой</title>
<polygon fill="none" stroke="black" points="126,-36 72,-36 72,-0 126,-0 126,-36"/>
<text text-anchor="middle" x="99" y="-14.3" font-family="Times,serif" font-size="14.00">Цой</text>
</g>
<!-- Негр&#45;&gt;Цой -->
<g id="edge6" class="edge"><title>Негр&#45;&gt;Цой</title>
<path fill="none" stroke="black" d="M74.2142,-77.5221C78.5415,-67.3047 83.4819,-55.64 87.8072,-45.4273"/>
<polygon fill="black" stroke="black" points="70.9623,-76.2258 70.2851,-86.799 77.408,-78.9558 70.9623,-76.2258"/>
<polygon fill="black" stroke="black" points="91.0486,-46.7486 91.7257,-36.1754 84.6028,-44.0186 91.0486,-46.7486"/>
<text text-anchor="middle" x="94" y="-57.8" font-family="Times,serif" font-size="14.00">нет</text>
</g>
<!-- Собака -->
<g id="node10" class="node"><title>Собака</title>
<polygon fill="none" stroke="black" points="205,-210 147,-210 147,-174 205,-174 205,-210"/>
<text text-anchor="middle" x="176" y="-188.3" font-family="Times,serif" font-size="14.00">Собака</text>
</g>
<!-- Гавкает&#45;&gt;Собака -->
<g id="edge9" class="edge"><title>Гавкает&#45;&gt;Собака</title>
<path fill="none" stroke="black" d="M176.679,-250.734C176.565,-241.06 176.437,-230.173 176.323,-220.481"/>
<polygon fill="black" stroke="black" points="173.18,-250.841 176.798,-260.799 180.18,-250.758 173.18,-250.841"/>
<polygon fill="black" stroke="black" points="179.82,-220.134 176.202,-210.175 172.82,-220.216 179.82,-220.134"/>
<text text-anchor="middle" x="184" y="-231.8" font-family="Times,serif" font-size="14.00">да</text>
</g>
<!-- Кот -->
<g id="node11" class="node"><title>Кот</title>
<polygon fill="none" stroke="black" points="277,-210 223,-210 223,-174 277,-174 277,-210"/>
<text text-anchor="middle" x="250" y="-188.3" font-family="Times,serif" font-size="14.00">Кот</text>
</g>
<!-- Гавкает&#45;&gt;Кот -->
<g id="edge10" class="edge"><title>Гавкает&#45;&gt;Кот</title>
<path fill="none" stroke="black" d="M198.401,-253.081C207.933,-241.982 219.132,-228.942 228.657,-217.851"/>
<polygon fill="black" stroke="black" points="195.633,-250.932 191.773,-260.799 200.943,-255.493 195.633,-250.932"/>
<polygon fill="black" stroke="black" points="231.389,-220.042 235.249,-210.175 226.079,-215.481 231.389,-220.042"/>
<text text-anchor="middle" x="228" y="-231.8" font-family="Times,serif" font-size="14.00">нет</text>
</g>
</g>
</svg>
